<svg width="99" height="98" viewBox="0 0 99 98" fill="none" xmlns="http://www.w3.org/2000/svg">
<circle cx="49.4534" cy="48.8831" r="48.8831" fill="url(#paint0_linear_2029_4761)"/>
<path d="M76.6007 57.1527L76.4576 55.6494L75.1691 42.5496C74.5964 36.8229 69.8003 32.3848 64.0021 32.3848H35.1539C29.3556 32.3848 24.5595 36.7514 23.9869 42.5496L22.5552 57.1527C22.1257 61.5908 25.6333 65.3848 29.9999 65.3848C32.3621 65.3848 34.5096 64.311 35.9413 62.4498L41.1669 55.6494H57.8459L63.0715 62.4498C64.5031 64.311 66.7222 65.3848 69.0129 65.3848C73.5227 65.3848 77.0303 61.5193 76.6007 57.1527ZM35.0107 36.465C35.0107 36.1071 35.2971 35.8924 35.5834 35.8924H39.3773C39.7352 35.8924 39.95 36.1787 39.95 36.465V40.1874C39.0194 41.118 38.4467 41.6906 37.5162 42.6212C36.5856 41.6906 36.0129 41.118 35.0823 40.1874V36.465H35.0107ZM29.9999 46.4151C29.642 46.4151 29.4272 46.1288 29.4272 45.8425V42.0485C29.4272 41.6906 29.7136 41.4759 29.9999 41.4759H33.7222C34.6528 42.4065 35.2255 42.9791 36.1561 43.9097C35.2255 44.8403 34.6528 45.413 33.7222 46.3436H29.9999V46.4151ZM39.95 51.4976C39.95 51.8555 39.6637 52.0702 39.3773 52.0702H35.5834C35.2255 52.0702 35.0107 51.7839 35.0107 51.4976V47.7752C35.9413 46.8446 36.514 46.272 37.4446 45.3414C38.3752 46.272 38.9478 46.8446 39.8784 47.7752V51.4976H39.95ZM45.5335 45.8425C45.5335 46.2004 45.2472 46.4151 44.9608 46.4151H41.2385C40.3079 45.4845 39.7352 44.9119 38.8047 43.9813C39.7352 43.0507 40.3079 42.478 41.2385 41.5475H44.9608C45.3188 41.5475 45.5335 41.8338 45.5335 42.1201V45.8425ZM56.4858 46.9162C54.911 46.9162 53.5509 45.6277 53.5509 43.9813C53.5509 42.4065 54.8394 41.0464 56.4858 41.0464C58.0606 41.0464 59.4207 42.3349 59.4207 43.9813C59.4207 45.5561 58.1322 46.9162 56.4858 46.9162ZM62.3556 52.7145C60.7808 52.7145 59.4207 51.426 59.4207 49.7796C59.4207 48.2047 60.7092 46.8446 62.3556 46.8446C63.9305 46.8446 65.2906 48.1331 65.2906 49.7796C65.2906 51.426 63.9305 52.7145 62.3556 52.7145ZM62.3556 41.0464C60.7808 41.0464 59.4207 39.7579 59.4207 38.1114C59.4207 36.5366 60.7092 35.1765 62.3556 35.1765C63.9305 35.1765 65.2906 36.465 65.2906 38.1114C65.2906 39.7579 63.9305 41.0464 62.3556 41.0464ZM68.2255 46.9162C66.6507 46.9162 65.2906 45.6277 65.2906 43.9813C65.2906 42.4065 66.5791 41.0464 68.2255 41.0464C69.8003 41.0464 71.1604 42.3349 71.1604 43.9813C71.0888 45.5561 69.8003 46.9162 68.2255 46.9162Z" fill="white"/>
<defs>
<linearGradient id="paint0_linear_2029_4761" x1="49.4534" y1="0" x2="49.4534" y2="97.7662" gradientUnits="userSpaceOnUse">
<stop stop-color="#4A83E7"/>
<stop offset="1" stop-color="#F2DFFF"/>
</linearGradient>
</defs>
</svg>
