<svg width="79" height="79" viewBox="0 0 79 79" fill="none" xmlns="http://www.w3.org/2000/svg">
<g clip-path="url(#clip0_2406_2450)">
<path d="M76.8216 78.7868H2.48242C2.14559 78.7868 1.87305 78.5142 1.87305 78.1774V69.6464C1.87305 64.4156 4.58233 62.4127 9.58134 60.5441C14.8447 58.5779 19.0303 56.7605 21.6855 55.2884C21.7553 55.2491 21.8321 55.224 21.9117 55.2146C21.9912 55.2052 22.0718 55.2117 22.1488 55.2336C22.2258 55.2555 22.2977 55.2925 22.3603 55.3423C22.423 55.3922 22.4751 55.4539 22.5138 55.524C22.6774 55.8193 22.5709 56.1906 22.2769 56.3524C19.5694 57.8556 15.3267 59.6992 10.0074 61.6867C5.32196 63.4362 3.09164 65.0739 3.09164 69.6465V77.5683H76.2122V69.6465C76.2122 65.0739 73.9819 63.4362 69.2964 61.6867C63.8861 59.6611 59.7577 57.8676 57.0264 56.3536C56.885 56.2752 56.7806 56.144 56.7359 55.9887C56.6913 55.8334 56.7102 55.6667 56.7884 55.5253C56.8271 55.4552 56.8792 55.3934 56.9418 55.3435C57.0045 55.2936 57.0763 55.2565 57.1532 55.2344C57.2302 55.2123 57.3108 55.2056 57.3903 55.2147C57.4699 55.2237 57.5468 55.2484 57.6168 55.2873C60.2958 56.7725 64.3695 58.5422 69.7239 60.5443C74.7224 62.4128 77.4311 64.4158 77.4311 69.6465V78.1775C77.4311 78.2575 77.4154 78.3368 77.3847 78.4107C77.3541 78.4847 77.3092 78.5518 77.2526 78.6084C77.196 78.665 77.1288 78.7099 77.0548 78.7405C76.9809 78.7711 76.9016 78.7868 76.8216 78.7868Z" fill="#155DDD"/>
<path d="M39.651 56.8465C31.1887 56.8465 17.7148 44.8545 17.7148 30.6441C17.7148 30.3072 17.9874 30.0347 18.3242 30.0347C18.6609 30.0347 18.9336 30.3072 18.9336 30.6441C18.9336 44.1939 31.6589 55.6279 39.6511 55.6279C47.644 55.6279 60.3687 44.1939 60.3687 30.6441C60.3687 30.3072 60.6412 30.0347 60.978 30.0347C61.0581 30.0346 61.1373 30.0504 61.2113 30.081C61.2852 30.1116 61.3524 30.1565 61.409 30.2131C61.4655 30.2697 61.5104 30.3369 61.541 30.4108C61.5716 30.4848 61.5873 30.564 61.5873 30.6441C61.5871 44.8545 48.1126 56.8465 39.651 56.8465ZM39.6872 61.7214C39.351 61.7214 39.0719 61.4489 39.0719 61.1122C39.0719 60.7753 39.3385 60.5028 39.6753 60.5028H39.6872C40.0241 60.5028 40.2966 60.7753 40.2966 61.1122C40.2966 61.1922 40.2809 61.2715 40.2503 61.3454C40.2197 61.4193 40.1748 61.4865 40.1182 61.5431C40.0616 61.5997 39.9944 61.6446 39.9205 61.6752C39.8465 61.7058 39.7673 61.7215 39.6872 61.7214ZM39.6872 66.5963C39.351 66.5963 39.0719 66.3237 39.0719 65.9871C39.0719 65.6502 39.3385 65.3777 39.6753 65.3777H39.6872C40.0241 65.3777 40.2966 65.6502 40.2966 65.9871C40.2966 66.0671 40.2809 66.1463 40.2503 66.2203C40.2197 66.2942 40.1748 66.3614 40.1182 66.418C40.0616 66.4746 39.9944 66.5195 39.9205 66.5501C39.8465 66.5806 39.7673 66.5964 39.6872 66.5963ZM39.6872 71.4712C39.351 71.4712 39.0719 71.1986 39.0719 70.8619C39.0719 70.5251 39.3385 70.2525 39.6753 70.2525H39.6872C40.0241 70.2525 40.2966 70.5251 40.2966 70.8619C40.2966 70.942 40.2809 71.0212 40.2503 71.0952C40.2197 71.1691 40.1748 71.2363 40.1182 71.2929C40.0616 71.3495 39.9944 71.3943 39.9205 71.4249C39.8465 71.4555 39.7673 71.4712 39.6872 71.4712ZM39.6872 76.3461C39.351 76.3461 39.0719 76.0735 39.0719 75.7368C39.0719 75.4 39.3385 75.1274 39.6753 75.1274H39.6872C40.0241 75.1274 40.2966 75.4 40.2966 75.7368C40.2966 75.8169 40.2809 75.8961 40.2503 75.9701C40.2197 76.044 40.1748 76.1112 40.1182 76.1678C40.0616 76.2244 39.9944 76.2692 39.9205 76.2998C39.8465 76.3304 39.7673 76.3461 39.6872 76.3461Z" fill="#155DDD"/>
<path d="M54.8848 54.4115C54.5479 54.4115 54.2754 54.1389 54.2754 53.8021V51.3646C54.2754 51.0279 54.5479 50.7554 54.8848 50.7554C55.2216 50.7554 55.4941 51.0279 55.4941 51.3646V53.8021C55.4941 54.1389 55.2216 54.4115 54.8848 54.4115Z" fill="#155DDD"/>
<path d="M48.791 62.9434C48.6637 62.9438 48.5395 62.9038 48.4364 62.8292C48.3713 62.7827 48.316 62.7238 48.2736 62.6559C48.2313 62.588 48.2028 62.5124 48.1898 62.4334C48.1767 62.3545 48.1794 62.2737 48.1976 62.1958C48.2158 62.1179 48.2492 62.0443 48.2959 61.9794L54.3893 53.4482C54.4838 53.3175 54.6261 53.2293 54.7853 53.203C54.9445 53.1767 55.1076 53.2144 55.2391 53.3078C55.3042 53.3543 55.3595 53.4132 55.4018 53.4811C55.4442 53.549 55.4727 53.6246 55.4857 53.7035C55.4988 53.7825 55.4961 53.8632 55.4779 53.9411C55.4597 54.019 55.4263 54.0926 55.3796 54.1576L49.2861 62.6887C49.23 62.7677 49.1558 62.8321 49.0696 62.8764C48.9835 62.9207 48.8879 62.9437 48.791 62.9434Z" fill="#155DDD"/>
<path d="M48.7914 62.9426C48.6969 62.9424 48.6036 62.9204 48.5189 62.8783L41.207 59.2221C41.1354 59.1863 41.0715 59.1368 41.0191 59.0763C40.9666 59.0159 40.9266 58.9457 40.9013 58.8697C40.876 58.7938 40.8659 58.7136 40.8716 58.6337C40.8773 58.5539 40.8986 58.476 40.9345 58.4044C41.0069 58.26 41.1336 58.1502 41.2868 58.0991C41.4401 58.048 41.6074 58.0598 41.7519 58.1318L49.064 61.7881C49.1559 61.7881 49.2466 61.8089 49.3294 61.849C49.4121 61.889 49.4847 61.9473 49.5418 62.0193C49.5988 62.0914 49.6388 62.1755 49.6587 62.2652C49.6787 62.3549 49.6781 62.448 49.6569 62.5375C49.6358 62.627 49.5947 62.7105 49.5368 62.7818C49.4788 62.8532 49.4054 62.9104 49.3222 62.9494C49.2389 62.9884 49.1479 63.008 49.056 63.0068C48.9641 63.0056 48.8737 62.9837 48.7914 62.9426ZM24.418 54.4115C24.0813 54.4115 23.8086 54.1389 23.8086 53.8021V51.3646C23.8086 51.2846 23.8243 51.2053 23.8549 51.1314C23.8855 51.0574 23.9304 50.9903 23.987 50.9337C24.0436 50.8771 24.1108 50.8322 24.1847 50.8016C24.2587 50.771 24.3379 50.7553 24.418 50.7554C24.7548 50.7554 25.0273 51.0279 25.0273 51.3646V53.8021C25.0273 54.1389 24.7548 54.4115 24.418 54.4115Z" fill="#155DDD"/>
<path d="M30.5119 62.9447C30.4149 62.945 30.3191 62.922 30.2328 62.8777C30.1464 62.8334 30.0719 62.769 30.0156 62.69L23.9221 54.1588C23.8756 54.0937 23.8424 54.0201 23.8243 53.9422C23.8063 53.8642 23.8037 53.7835 23.8169 53.7046C23.83 53.6257 23.8586 53.5501 23.901 53.4822C23.9434 53.4144 23.9987 53.3555 24.0638 53.309C24.1288 53.2624 24.2024 53.229 24.2803 53.2108C24.3582 53.1926 24.4389 53.1899 24.5179 53.203C24.5968 53.216 24.6724 53.2445 24.7403 53.2868C24.8082 53.3291 24.8671 53.3844 24.9136 53.4495L31.007 61.9806C31.0536 62.0457 31.0868 62.1193 31.1049 62.1973C31.1229 62.2752 31.1255 62.3559 31.1123 62.4348C31.0992 62.5138 31.0706 62.5893 31.0283 62.6572C30.9859 62.7251 30.9306 62.7839 30.8655 62.8304C30.7626 62.9048 30.6389 62.9448 30.5119 62.9447Z" fill="#155DDD"/>
<path d="M30.5119 62.9434C30.3986 62.9434 30.2876 62.9119 30.1912 62.8525C30.0949 62.793 30.0169 62.7078 29.9662 62.6066C29.9304 62.535 29.909 62.4571 29.9033 62.3772C29.8976 62.2974 29.9077 62.2172 29.933 62.1413C29.9583 62.0653 29.9983 61.9951 30.0508 61.9347C30.1033 61.8742 30.1671 61.8247 30.2387 61.7889L37.5508 58.1327C37.6954 58.0605 37.8627 58.0487 38.016 58.0998C38.1693 58.1509 38.296 58.2608 38.3684 58.4052C38.4042 58.4768 38.4256 58.5547 38.4313 58.6346C38.437 58.7144 38.4269 58.7946 38.4016 58.8706C38.3763 58.9465 38.3363 59.0167 38.2838 59.0772C38.2313 59.1376 38.1675 59.1871 38.0959 59.2229L30.7838 62.8791C30.6993 62.9211 30.6063 62.9431 30.5119 62.9434ZM18.3245 28.8191C18.1727 28.819 18.0264 28.7623 17.9141 28.66C17.8019 28.5578 17.7318 28.4174 17.7176 28.2662C16.9528 20.101 18.7024 13.6147 22.9172 8.98681C29.0878 2.21076 39.2086 0.788574 46.6134 0.788574C50.9384 0.788574 54.1505 1.28782 54.5027 1.34496C54.6336 1.36625 54.7541 1.4297 54.8457 1.52567C54.9373 1.62164 54.9951 1.74488 55.0103 1.87669C55.0256 2.0085 54.9974 2.14168 54.93 2.256C54.8627 2.37032 54.7599 2.45954 54.6372 2.51013C50.2791 4.30374 50.986 8.64189 51.3501 10.0557C51.4912 10.0495 51.6325 10.0463 51.7737 10.0463C53.5053 10.0463 56.7711 10.4683 59.1894 13.2931C61.8446 16.3947 62.6491 21.4451 61.5803 28.304C61.561 28.4273 61.5043 28.5417 61.4179 28.6318C61.3315 28.7218 61.2194 28.7831 61.097 28.8074C60.8449 28.861 60.5925 28.7449 60.4581 28.5278L55.3727 20.2121C53.4446 20.9589 46.2255 23.5671 39.4775 23.5671C32.7498 23.5671 25.6192 20.9732 23.6858 20.218L18.851 28.5165C18.7974 28.6086 18.7206 28.685 18.6282 28.7381C18.5358 28.7912 18.4311 28.8191 18.3245 28.8191ZM55.6239 18.8467C55.8299 18.8467 56.0298 18.952 56.1439 19.1383L60.6045 26.431C61.2483 20.8027 60.4628 16.6544 58.2647 14.0855C56.1629 11.6315 53.296 11.2649 51.7739 11.2649C51.3013 11.2649 51.0076 11.3024 50.9886 11.3054C50.7029 11.3417 50.4244 11.1752 50.3292 10.9014C50.3077 10.8395 48.4487 5.30102 52.4952 2.31497C51.1136 2.1681 49.0462 2.00737 46.6137 2.00737C39.4546 2.00737 29.6891 3.36054 23.8184 9.80767C20.1831 13.7989 18.4975 19.3041 18.796 26.1903L22.8977 19.1499C22.9722 19.0222 23.0904 18.9259 23.2305 18.8788C23.3706 18.8317 23.523 18.8371 23.6595 18.894C23.7422 18.9285 32.0205 22.3483 39.4778 22.3483C46.9374 22.3483 55.3075 18.9278 55.3921 18.8933C55.4655 18.8625 55.5443 18.8466 55.6239 18.8467ZM41.4793 78.7867C41.3992 78.7868 41.32 78.771 41.246 78.7404C41.1721 78.7098 41.1049 78.6649 41.0483 78.6083C40.9918 78.5517 40.9469 78.4845 40.9163 78.4106C40.8857 78.3366 40.87 78.2574 40.87 78.1773V61.1154C40.87 60.7785 41.1426 60.506 41.4793 60.506C41.8161 60.506 42.0886 60.7785 42.0886 61.1154V78.1773C42.0886 78.5142 41.8161 78.7867 41.4793 78.7867ZM37.8233 78.7867C37.4865 78.7867 37.2139 78.5142 37.2139 78.1773V61.1154C37.2139 60.7785 37.4865 60.506 37.8233 60.506C38.1602 60.506 38.4327 60.7785 38.4327 61.1154V78.1773C38.4327 78.2574 38.417 78.3366 38.3864 78.4106C38.3558 78.4845 38.3109 78.5517 38.2543 78.6083C38.1977 78.6649 38.1305 78.7098 38.0566 78.7404C37.9826 78.771 37.9034 78.7868 37.8233 78.7867ZM63.4154 73.9118H51.2287C50.892 73.9118 50.6194 73.6393 50.6194 73.3024C50.6194 72.9656 50.892 72.6932 51.2287 72.6932H63.4154C63.7522 72.6932 64.0248 72.9656 64.0248 73.3024C64.0248 73.6393 63.7522 73.9118 63.4154 73.9118Z" fill="#155DDD"/>
<path d="M51.2303 76.347C51.1503 76.347 51.0711 76.3313 50.9971 76.3007C50.9232 76.2701 50.856 76.2252 50.7994 76.1686C50.7429 76.1121 50.698 76.0449 50.6674 75.971C50.6368 75.897 50.6211 75.8178 50.6211 75.7378V73.3002C50.6211 73.2201 50.6368 73.1409 50.6674 73.067C50.698 72.993 50.7429 72.9259 50.7994 72.8693C50.856 72.8127 50.9232 72.7678 50.9971 72.7372C51.0711 72.7066 51.1503 72.6909 51.2303 72.6909C51.5671 72.6909 51.8397 72.9633 51.8397 73.3002V75.7378C51.8397 75.8178 51.824 75.897 51.7934 75.971C51.7628 76.0449 51.7179 76.1121 51.6613 76.1687C51.6047 76.2253 51.5375 76.2702 51.4635 76.3008C51.3896 76.3314 51.3103 76.3471 51.2303 76.347Z" fill="#155DDD"/>
<path d="M63.4159 76.347C63.3358 76.347 63.2566 76.3313 63.1827 76.3007C63.1087 76.2701 63.0416 76.2252 62.985 76.1686C62.9284 76.1121 62.8835 76.0449 62.8529 75.971C62.8223 75.897 62.8066 75.8178 62.8066 75.7378V73.3002C62.8066 72.9633 63.079 72.6909 63.4159 72.6909C63.7527 72.6909 64.0252 72.9633 64.0252 73.3002V75.7378C64.0253 75.8178 64.0095 75.897 63.9789 75.971C63.9483 76.0449 63.9034 76.1121 63.8468 76.1687C63.7902 76.2253 63.723 76.2702 63.6491 76.3008C63.5751 76.3314 63.4959 76.3471 63.4159 76.347Z" fill="#155DDD"/>
<path d="M52.4491 72.695C52.3286 72.6949 52.2108 72.6592 52.1106 72.5922C52.0104 72.5252 51.9323 72.4301 51.8862 72.3187C51.8401 72.2074 51.828 72.0849 51.8515 71.9667C51.875 71.8485 51.9331 71.7399 52.0183 71.6547L55.6744 67.9985C55.7895 67.8883 55.9431 67.8276 56.1024 67.8294C56.2617 67.8311 56.414 67.8952 56.5266 68.0079C56.6393 68.1205 56.7033 68.2728 56.705 68.4321C56.7067 68.5914 56.646 68.7451 56.5359 68.8602L52.8799 72.5164C52.8234 72.5731 52.7563 72.6181 52.6823 72.6487C52.6084 72.6794 52.5291 72.6951 52.4491 72.695Z" fill="#155DDD"/>
<path d="M59.7599 72.695C59.6798 72.695 59.6006 72.6793 59.5266 72.6487C59.4527 72.618 59.3856 72.5731 59.329 72.5164L55.6731 68.8602C55.5629 68.7451 55.5022 68.5914 55.5039 68.4321C55.5057 68.2728 55.5697 68.1205 55.6823 68.0079C55.795 67.8952 55.9473 67.8311 56.1066 67.8294C56.2659 67.8276 56.4195 67.8883 56.5346 67.9985L60.1907 71.6547C60.2759 71.7399 60.3339 71.8485 60.3574 71.9667C60.3809 72.0849 60.3688 72.2074 60.3227 72.3187C60.2766 72.4301 60.1985 72.5252 60.0984 72.5922C59.9982 72.6592 59.8804 72.6949 59.7599 72.695Z" fill="#155DDD"/>
<path d="M62.1968 72.6945C62.1168 72.6946 62.0375 72.6789 61.9636 72.6482C61.8896 72.6176 61.8225 72.5727 61.766 72.516L58.1099 68.8597C58.0517 68.8035 58.0052 68.7363 57.9733 68.6619C57.9414 68.5876 57.9246 68.5076 57.9239 68.4267C57.9231 68.3458 57.9386 68.2655 57.9692 68.1907C57.9998 68.1158 58.0451 68.0477 58.1023 67.9905C58.1595 67.9333 58.2276 67.888 58.3025 67.8574C58.3773 67.8268 58.4576 67.8113 58.5385 67.812C58.6194 67.8127 58.6994 67.8295 58.7737 67.8615C58.8481 67.8934 58.9153 67.9399 58.9715 67.9981L62.6276 71.6543C62.7128 71.7395 62.7708 71.8481 62.7943 71.9663C62.8178 72.0845 62.8058 72.207 62.7597 72.3183C62.7135 72.4297 62.6355 72.5248 62.5353 72.5918C62.4351 72.6588 62.3173 72.6945 62.1968 72.6945Z" fill="#155DDD"/>
</g>
<defs>
<clipPath id="clip0_2406_2450">
<rect width="78" height="78.003" fill="white" transform="translate(0.5 0.780762)"/>
</clipPath>
</defs>
</svg>
