<svg width="169" height="324" viewBox="0 0 169 324" fill="none" xmlns="http://www.w3.org/2000/svg">
<path d="M51.7872 209.675C45.8473 208.049 43.895 200.603 48.2731 196.272L178.059 67.8778C182.437 63.5467 189.862 65.5791 191.424 71.5362L237.723 248.131C239.285 254.088 233.812 259.502 227.873 257.876L51.7872 209.675Z" fill="url(#paint0_linear_2406_1674)" fill-opacity="0.33"/>
<path d="M45.3438 183.45C39.4039 181.824 37.4517 174.378 41.8297 170.047L171.616 41.6532C175.994 37.3221 183.419 39.3545 184.981 45.3116L231.28 221.907C232.842 227.864 227.369 233.278 221.429 231.652L45.3438 183.45Z" fill="url(#paint1_linear_2406_1674)" fill-opacity="0.22"/>
<defs>
<linearGradient id="paint0_linear_2406_1674" x1="24.9603" y1="220.817" x2="214.671" y2="178.647" gradientUnits="userSpaceOnUse">
<stop stop-color="#8C83C0"/>
<stop offset="1" stop-color="#4A83E7"/>
</linearGradient>
<linearGradient id="paint1_linear_2406_1674" x1="-71.9897" y1="235.664" x2="208.228" y2="152.423" gradientUnits="userSpaceOnUse">
<stop stop-color="#BA27BD"/>
<stop offset="1" stop-color="#4A83E7"/>
</linearGradient>
</defs>
</svg>
