<svg width="66" height="58" viewBox="0 0 66 58" fill="none" xmlns="http://www.w3.org/2000/svg">
<path d="M27.0003 52.7164C25.9123 52.7164 25.0234 51.8276 25.0234 50.7396C25.0234 49.6515 25.9123 48.7627 27.0003 48.7627C28.0883 48.7627 28.9772 49.6515 28.9772 50.7396C28.9848 51.8276 28.0883 52.7164 27.0003 52.7164Z" fill="#003084"/>
<path d="M39.8195 46.5789C39.8195 46.9697 39.4977 47.2915 39.1069 47.2915H14.8942C14.5035 47.2915 14.1816 46.9697 14.1816 46.5789V10.0837C14.1816 9.69291 14.5035 9.37109 14.8942 9.37109H39.0992C39.49 9.37109 39.8118 9.69291 39.8118 10.0837V46.5789H39.8195Z" fill="#E6E6E6"/>
<path d="M16.9316 17.2693C15.8896 17.2693 15.0391 18.1198 15.0391 19.1619C15.0391 20.2039 15.8896 21.0544 16.9316 21.0544C17.9737 21.0544 18.8242 20.2039 18.8242 19.1619C18.8242 18.1198 17.9737 17.2693 16.9316 17.2693ZM55.4114 34.4021C53.1587 34.4021 51.3198 36.241 51.3198 38.4937C51.3198 40.7464 53.1587 42.5853 55.4114 42.5853C57.6641 42.5853 59.503 40.7464 59.503 38.4937C59.503 36.241 57.6641 34.4021 55.4114 34.4021Z" fill="white"/>
<path d="M55.4112 32.8701C52.308 32.8701 49.7871 35.391 49.7871 38.4942C49.7871 41.5974 52.308 44.1183 55.4112 44.1183C58.5144 44.1183 61.0353 41.5974 61.0353 38.4942C61.0353 35.391 58.5144 32.8701 55.4112 32.8701ZM51.3196 38.4942C51.3196 36.2415 53.1585 34.4026 55.4112 34.4026C57.6639 34.4026 59.5028 36.2415 59.5028 38.4942C59.5028 40.7469 57.6639 42.5858 55.4112 42.5858C53.1508 42.5858 51.3196 40.7469 51.3196 38.4942Z" fill="#003084"/>
<path d="M21.8288 31.9669C20.9553 31.9669 20.2504 32.6718 20.2504 33.5453C20.2504 34.4188 20.9553 35.1238 21.8288 35.1238C22.7023 35.1238 23.4072 34.4188 23.4072 33.5453C23.4072 32.6718 22.6947 31.9669 21.8288 31.9669ZM3.63867 22.4121C2.5966 22.4121 1.74609 23.2626 1.74609 24.3047C1.74609 25.3467 2.5966 26.1973 3.63867 26.1973C4.68073 26.1973 5.53124 25.3467 5.53124 24.3047C5.53124 23.2626 4.68073 22.4121 3.63867 22.4121Z" fill="white"/>
<path d="M8.47263 21.899C8.33471 21.5005 7.90563 21.286 7.49953 21.4162L6.06669 21.899C5.44605 21.2707 4.58788 20.8799 3.6301 20.8799C1.74519 20.8799 0.205078 22.4123 0.205078 24.3049C0.205078 26.1975 1.73753 27.7299 3.6301 27.7299C5.52267 27.7299 7.05512 26.1975 7.05512 24.3049C7.05512 23.9371 6.99382 23.577 6.88655 23.2475L7.98991 22.8797C8.38835 22.7341 8.60289 22.3051 8.47263 21.899ZM3.63776 26.1898C2.5957 26.1898 1.74519 25.3393 1.74519 24.2972C1.74519 23.2552 2.5957 22.4047 3.63776 22.4047C4.67983 22.4047 5.53033 23.2552 5.53033 24.2972C5.53033 25.3393 4.67983 26.1898 3.63776 26.1898ZM19.0465 22.8797L18.7783 22.0369C19.7208 21.4239 20.3491 20.3665 20.3491 19.1635C20.3491 17.2786 18.8167 15.7385 16.9241 15.7385C15.0315 15.7385 13.4991 17.271 13.4991 19.1635C13.4991 21.0561 15.0315 22.5886 16.9241 22.5886C17.062 22.5886 17.1999 22.5809 17.3302 22.5656L17.5754 23.3471C17.675 23.6766 17.9815 23.8835 18.3033 23.8835C18.3799 23.8835 18.4565 23.8682 18.5332 23.8452C18.9546 23.7149 19.1768 23.2782 19.0465 22.8797ZM17.629 20.9182C17.5984 20.9259 17.5677 20.9412 17.5447 20.9488C17.3532 21.0178 17.1463 21.0561 16.9317 21.0561C15.8897 21.0561 15.0392 20.2056 15.0392 19.1635C15.0392 18.1215 15.8897 17.271 16.9317 17.271C17.9738 17.271 18.8243 18.1215 18.8243 19.1635C18.8243 19.9528 18.3263 20.6347 17.629 20.9182ZM19.7055 28.2586C19.7821 28.2586 19.8587 28.2433 19.9353 28.2203C20.3414 28.0901 20.5636 27.661 20.4334 27.2625L19.9737 25.799C19.8434 25.3929 19.4143 25.1707 19.0159 25.301C18.6098 25.4313 18.3876 25.8603 18.5178 26.2588L18.9776 27.7223C19.0772 28.0517 19.376 28.2586 19.7055 28.2586ZM27.3677 28.841L26.7547 29.3083C26.4176 29.5612 26.3486 30.0439 26.6092 30.3811C26.7624 30.5803 26.9923 30.6799 27.2221 30.6799C27.383 30.6799 27.5439 30.6263 27.6819 30.5266L28.2948 30.0592C28.632 29.8064 28.7009 29.3237 28.4404 28.9865C28.1876 28.6494 27.7049 28.5881 27.3677 28.841ZM34.5396 24.3509C34.2867 24.0137 33.804 23.9448 33.4669 24.2053L32.8539 24.6727C32.5167 24.9255 32.4478 25.4083 32.7083 25.7454C32.8615 25.9446 33.0914 26.0442 33.3213 26.0442C33.4822 26.0442 33.6431 25.9906 33.781 25.891L34.394 25.4236C34.7311 25.1707 34.8001 24.688 34.5396 24.3509ZM30.4173 26.5193L29.8043 26.9867C29.4672 27.2395 29.3982 27.7223 29.6587 28.0594C29.812 28.2586 30.0418 28.3582 30.2717 28.3582C30.4326 28.3582 30.5935 28.3046 30.7314 28.205L31.3444 27.7376C31.6816 27.4847 31.7505 27.002 31.49 26.6649C31.2371 26.3354 30.7544 26.2664 30.4173 26.5193ZM24.3181 31.1626L24.0423 31.3695C23.4753 30.7948 22.6938 30.4347 21.8279 30.4347C21.6977 30.4347 21.5751 30.4424 21.4525 30.4577L21.3682 30.1818C21.2379 29.7757 20.8088 29.5535 20.4027 29.6838C19.9966 29.8141 19.7744 30.2431 19.9047 30.6492L20.0196 31.0247C19.2304 31.5917 18.717 32.5112 18.717 33.5532C18.717 35.2696 20.1116 36.6641 21.8279 36.6641C23.5443 36.6641 24.9388 35.2696 24.9388 33.5532C24.9388 33.2621 24.9005 32.9786 24.8239 32.7104L25.2453 32.3886C25.5824 32.1357 25.6514 31.653 25.3909 31.3159C25.138 30.9711 24.6553 30.9021 24.3181 31.1626ZM20.2495 33.5456C20.2495 32.6721 20.9544 31.9671 21.8279 31.9671C22.7014 31.9671 23.4063 32.6721 23.4063 33.5456C23.4063 34.4191 22.7014 35.124 21.8279 35.124C20.9544 35.124 20.2495 34.4191 20.2495 33.5456Z" fill="#003084"/>
<path d="M59.9939 21.9132H44.9069V6.58874C44.9069 3.38592 42.3017 0.780762 39.0989 0.780762H14.8939C11.6911 0.780762 9.08594 3.38592 9.08594 6.58874V51.4435C9.08594 54.6463 11.6911 57.2515 14.8939 57.2515H59.9862C63.189 57.2515 65.7942 54.6769 65.7942 51.5124V27.6599C65.8018 24.4877 63.1967 21.9132 59.9939 21.9132ZM39.1066 54.1866H14.8939C13.3845 54.1866 12.1508 52.9606 12.1508 51.4435V21.4688L12.3424 21.4075C12.7408 21.2696 12.9554 20.8405 12.8251 20.4344C12.7255 20.1356 12.4497 19.9364 12.1585 19.9134V6.5964C12.1585 5.08694 13.3845 3.85332 14.9016 3.85332H39.1066C40.6161 3.85332 41.8497 5.07928 41.8497 6.5964V23.461C41.7041 23.4763 41.5508 23.5376 41.4283 23.6372C41.1064 23.9131 41.0681 24.3958 41.344 24.7176L41.842 25.2999L41.8497 25.3076V51.4511C41.842 52.9606 40.6161 54.1866 39.1066 54.1866ZM62.7369 51.5124C62.7369 52.9913 61.511 54.1866 59.9939 54.1866H44.225C44.6617 53.3667 44.9146 52.4396 44.9146 51.4435V28.4798C45.0908 28.4798 45.267 28.4185 45.405 28.2959C45.7268 28.02 45.7651 27.5373 45.4892 27.2155L44.9912 26.6332C44.9682 26.6025 44.9376 26.5795 44.9069 26.5489V24.9781H59.9939C61.5033 24.9781 62.7369 26.1811 62.7369 27.6522V51.5124Z" fill="#003084"/>
<path d="M49.9642 32.4635C49.6884 32.1417 49.2057 32.1033 48.8838 32.3792C48.562 32.655 48.5237 33.1377 48.7996 33.4596L49.2976 34.0419C49.4509 34.2181 49.6654 34.3101 49.8799 34.3101C50.0562 34.3101 50.2324 34.2488 50.378 34.1262C50.6998 33.8503 50.7381 33.3676 50.4623 33.0458L49.9642 32.4635ZM47.474 29.5518C47.1982 29.23 46.7154 29.1917 46.3936 29.4675C46.0718 29.7434 46.0335 30.2261 46.3093 30.5479L46.8074 31.1302C46.9606 31.3065 47.1752 31.3984 47.3897 31.3984C47.5659 31.3984 47.7422 31.3371 47.8878 31.2145C48.2096 30.9387 48.2479 30.456 47.972 30.1341L47.474 29.5518Z" fill="#003084"/>
<path d="M31.6352 7.21702H22.3639C21.9425 7.21702 21.5977 6.87222 21.5977 6.45079C21.5977 6.02937 21.9425 5.68457 22.3639 5.68457H31.6352C32.0566 5.68457 32.4014 6.02937 32.4014 6.45079C32.4014 6.87222 32.0566 7.21702 31.6352 7.21702Z" fill="#4A83E7"/>
<path d="M39.5726 14.657C36.998 14.657 34.9062 16.7488 34.9062 19.3233C34.9062 21.8978 36.998 23.9896 39.5726 23.9896C42.1471 23.9896 44.2389 21.8978 44.2389 19.3233C44.2389 16.7488 42.1471 14.657 39.5726 14.657Z" fill="white"/>
<path d="M39.5737 13.1245C36.1564 13.1245 33.375 15.9059 33.375 19.3233C33.375 22.7406 36.1564 25.522 39.5737 25.522C42.9911 25.522 45.7725 22.7406 45.7725 19.3233C45.7725 15.9059 42.9911 13.1245 39.5737 13.1245ZM34.9151 19.3233C34.9151 16.7488 37.0069 14.657 39.5814 14.657C42.1559 14.657 44.2477 16.7488 44.2477 19.3233C44.2477 21.8978 42.1559 23.9896 39.5814 23.9896C37.0069 23.9896 34.9151 21.8978 34.9151 19.3233Z" fill="#003084"/>
</svg>
