<svg width="78" height="79" viewBox="0 0 78 79" fill="none" xmlns="http://www.w3.org/2000/svg">
<g clip-path="url(#clip0_2406_2471)">
<path d="M49.3506 57.3605C49.2275 57.3606 49.1073 57.3234 49.0058 57.2537C48.9044 57.184 48.8264 57.0852 48.7823 56.9703C48.6609 56.6574 48.818 56.3043 49.132 56.1828C59.993 51.9868 67.0101 41.7284 67.0101 30.0511C67.01 14.6045 54.4434 2.03746 38.9987 2.03746C23.5533 2.03746 10.9874 14.6045 10.9874 30.0511C10.9874 41.7249 18.0033 51.9821 28.8606 56.1806C28.9353 56.2093 29.0035 56.2525 29.0614 56.3077C29.1193 56.3629 29.1658 56.4289 29.1982 56.502C29.2306 56.5752 29.2482 56.654 29.2501 56.7339C29.252 56.8139 29.2381 56.8935 29.2092 56.9681C29.1506 57.1183 29.0348 57.2392 28.8872 57.3043C28.7397 57.3693 28.5724 57.3733 28.4219 57.3153C17.0912 52.9347 9.76953 42.2326 9.76953 30.0511C9.76953 13.9325 22.8819 0.81958 38.9987 0.81958C55.1153 0.81958 68.2278 13.9325 68.2278 30.0511C68.2278 42.2361 60.904 52.9395 49.5695 57.32C49.4982 57.3474 49.4245 57.3605 49.3506 57.3605ZM48.1327 78.7574H29.8644C28.1858 78.7574 26.8198 77.392 26.8198 75.7127V65.9692C26.8198 65.8892 26.8355 65.81 26.8661 65.7361C26.8967 65.6622 26.9416 65.595 26.9981 65.5385C27.0547 65.4819 27.1218 65.4371 27.1957 65.4065C27.2696 65.3759 27.3488 65.3602 27.4288 65.3602H50.5684C50.6484 65.3602 50.7276 65.3759 50.8015 65.4065C50.8754 65.437 50.9426 65.4819 50.9992 65.5384C51.0557 65.595 51.1006 65.6621 51.1312 65.7361C51.1618 65.81 51.1775 65.8892 51.1775 65.9692V75.7127C51.1775 77.392 49.812 78.7574 48.1327 78.7574ZM28.0377 66.5783V75.7127C28.0377 76.72 28.8571 77.5395 29.8644 77.5395H48.1327C49.1402 77.5395 49.9596 76.72 49.9596 75.7127V66.5783H28.0377Z" fill="#155DDD"/>
<path d="M34.7378 66.5797C34.6578 66.5797 34.5786 66.564 34.5047 66.5334C34.4308 66.5028 34.3637 66.4579 34.3071 66.4014C34.2506 66.3448 34.2057 66.2776 34.1751 66.2037C34.1446 66.1298 34.1288 66.0506 34.1289 65.9706V59.8906C34.1288 59.8106 34.1446 59.7314 34.1751 59.6575C34.2057 59.5836 34.2506 59.5164 34.3071 59.4599C34.3637 59.4033 34.4308 59.3584 34.5047 59.3278C34.5786 59.2972 34.6578 59.2815 34.7378 59.2815C34.8178 59.2815 34.897 59.2972 34.9709 59.3278C35.0448 59.3584 35.112 59.4033 35.1685 59.4599C35.2251 59.5164 35.2699 59.5836 35.3005 59.6575C35.3311 59.7314 35.3468 59.8106 35.3467 59.8906V65.9706C35.3468 66.0506 35.3311 66.1298 35.3005 66.2037C35.2699 66.2776 35.2251 66.3448 35.1685 66.4014C35.112 66.4579 35.0448 66.5028 34.9709 66.5334C34.897 66.564 34.8178 66.5797 34.7378 66.5797ZM43.263 66.5797C43.183 66.5797 43.1038 66.564 43.0299 66.5334C42.9559 66.5028 42.8888 66.4579 42.8322 66.4014C42.7756 66.3448 42.7308 66.2776 42.7002 66.2037C42.6696 66.1298 42.6539 66.0506 42.6539 65.9706V59.8906C42.6539 59.5539 42.9265 59.2815 43.263 59.2815C43.5995 59.2815 43.8717 59.5539 43.8717 59.8906V65.9706C43.8718 66.0506 43.8561 66.1298 43.8256 66.2037C43.795 66.2776 43.7502 66.3448 43.6936 66.4014C43.6371 66.4579 43.57 66.5028 43.4961 66.5334C43.4222 66.564 43.343 66.5797 43.263 66.5797ZM49.3523 66.5797C49.2723 66.5797 49.1931 66.564 49.1192 66.5334C49.0453 66.5028 48.9782 66.4579 48.9217 66.4014C48.8651 66.3448 48.8203 66.2776 48.7897 66.2037C48.7592 66.1298 48.7435 66.0506 48.7435 65.9706V56.7528C48.7435 56.6729 48.7592 56.5937 48.7898 56.5198C48.8203 56.4459 48.8652 56.3788 48.9217 56.3222C48.9783 56.2657 49.0454 56.2208 49.1193 56.1903C49.1932 56.1597 49.2723 56.144 49.3523 56.144C49.4323 56.144 49.5115 56.1597 49.5854 56.1902C49.6593 56.2208 49.7265 56.2656 49.7831 56.3222C49.8396 56.3787 49.8845 56.4458 49.9151 56.5197C49.9457 56.5936 49.9614 56.6728 49.9614 56.7528V65.9706C49.9614 66.0506 49.9457 66.1298 49.9151 66.2038C49.8846 66.2777 49.8397 66.3449 49.7831 66.4014C49.7266 66.458 49.6594 66.5029 49.5855 66.5334C49.5115 66.564 49.4323 66.5797 49.3523 66.5797Z" fill="#155DDD"/>
<path d="M49.352 60.4986H28.648C28.568 60.4987 28.4888 60.483 28.4149 60.4524C28.341 60.4219 28.2739 60.377 28.2173 60.3205C28.1608 60.2639 28.1159 60.1968 28.0853 60.1229C28.0547 60.049 28.039 59.9698 28.0391 59.8899C28.039 59.8099 28.0547 59.7306 28.0853 59.6567C28.1159 59.5828 28.1607 59.5157 28.2173 59.4591C28.2738 59.4025 28.341 59.3576 28.4149 59.327C28.4888 59.2964 28.568 59.2807 28.648 59.2808H49.352C49.432 59.2807 49.5112 59.2964 49.5851 59.327C49.659 59.3576 49.7262 59.4025 49.7828 59.459C49.8393 59.5156 49.8842 59.5828 49.9148 59.6567C49.9454 59.7306 49.9611 59.8098 49.961 59.8899C49.9611 59.9698 49.9453 60.049 49.9147 60.1229C49.8841 60.1968 49.8393 60.264 49.7827 60.3205C49.7261 60.3771 49.659 60.4219 49.5851 60.4525C49.5111 60.483 49.4319 60.4987 49.352 60.4986Z" fill="#155DDD"/>
<path d="M28.6462 66.574C28.5662 66.574 28.487 66.5583 28.4131 66.5277C28.3392 66.4971 28.272 66.4523 28.2155 66.3957C28.1589 66.3391 28.1141 66.2719 28.0835 66.198C28.0529 66.1241 28.0372 66.0449 28.0373 65.9649V56.7436C28.0372 56.6637 28.053 56.5845 28.0835 56.5106C28.1141 56.4367 28.159 56.3696 28.2155 56.313C28.2721 56.2565 28.3392 56.2116 28.4131 56.1811C28.487 56.1505 28.5662 56.1348 28.6462 56.1349C28.7262 56.1348 28.8054 56.1505 28.8793 56.181C28.9532 56.2116 29.0204 56.2564 29.0769 56.313C29.1335 56.3695 29.1784 56.4367 29.209 56.5106C29.2396 56.5845 29.2553 56.6637 29.2553 56.7436V65.9649C29.2553 66.0449 29.2396 66.1241 29.209 66.1981C29.1784 66.272 29.1336 66.3392 29.077 66.3957C29.0204 66.4523 28.9533 66.4972 28.8793 66.5278C28.8054 66.5583 28.7262 66.5741 28.6462 66.574ZM15.2497 30.6545C15.1697 30.6546 15.0905 30.6389 15.0166 30.6083C14.9427 30.5777 14.8755 30.5329 14.8189 30.4763C14.7624 30.4198 14.7175 30.3526 14.6869 30.2787C14.6563 30.2048 14.6406 30.1256 14.6406 30.0456C14.6406 16.6144 25.5676 5.68701 38.9983 5.68701C39.1598 5.68701 39.3147 5.75118 39.4289 5.86539C39.5431 5.9796 39.6073 6.13451 39.6073 6.29603C39.6073 6.45755 39.5431 6.61246 39.4289 6.72667C39.3147 6.84088 39.1598 6.90505 38.9983 6.90505C26.239 6.90505 15.8585 17.286 15.8585 30.0457C15.8585 30.1257 15.8428 30.2049 15.8122 30.2788C15.7817 30.3527 15.7368 30.4198 15.6803 30.4764C15.6238 30.5329 15.5566 30.5777 15.4827 30.6083C15.4088 30.6389 15.3297 30.6546 15.2497 30.6545ZM34.7357 58.0578C34.6557 58.0579 34.5765 58.0422 34.5026 58.0116C34.4287 57.981 34.3615 57.9361 34.305 57.8796C34.2484 57.823 34.2036 57.7559 34.173 57.682C34.1424 57.6081 34.1267 57.5289 34.1268 57.4489V47.7055C34.1267 47.6255 34.1424 47.5463 34.173 47.4724C34.2036 47.3985 34.2485 47.3314 34.305 47.2748C34.3616 47.2183 34.4287 47.1734 34.5026 47.1428C34.5765 47.1122 34.6557 47.0965 34.7357 47.0966C34.8157 47.0965 34.8949 47.1122 34.9688 47.1428C35.0427 47.1734 35.1098 47.2182 35.1664 47.2748C35.2229 47.3313 35.2678 47.3985 35.2984 47.4724C35.3289 47.5463 35.3447 47.6255 35.3446 47.7055V57.4489C35.3447 57.5289 35.3289 57.6081 35.2984 57.682C35.2678 57.7559 35.2229 57.823 35.1664 57.8796C35.1098 57.9361 35.0427 57.981 34.9688 58.0116C34.8949 58.0422 34.8157 58.0579 34.7357 58.0578ZM43.2608 58.0578C43.1808 58.0579 43.1016 58.0422 43.0277 58.0116C42.9538 57.981 42.8866 57.9362 42.8301 57.8796C42.7735 57.823 42.7286 57.7559 42.698 57.682C42.6675 57.6081 42.6517 57.5289 42.6518 57.4489V47.7055C42.6518 47.369 42.9243 47.0966 43.2608 47.0966C43.5974 47.0966 43.8696 47.369 43.8696 47.7055V57.4489C43.8697 57.5288 43.854 57.6081 43.8234 57.682C43.7929 57.7559 43.748 57.823 43.6915 57.8796C43.6349 57.9361 43.5678 57.981 43.4939 58.0116C43.42 58.0422 43.3408 58.0579 43.2608 58.0578Z" fill="#155DDD"/>
<path d="M34.7379 48.3179C34.65 48.3182 34.5632 48.2993 34.4833 48.2625C34.4035 48.2258 34.3327 48.172 34.2758 48.1051C34.2237 48.0445 34.184 47.9742 34.1591 47.8983C34.1342 47.8224 34.1246 47.7422 34.1307 47.6626C34.1368 47.5829 34.1587 47.5052 34.1949 47.434C34.2312 47.3627 34.2811 47.2994 34.3419 47.2475L38.6044 43.5939C38.8601 43.3749 39.2451 43.4034 39.4625 43.6592C39.5147 43.7198 39.5544 43.79 39.5793 43.866C39.6042 43.9419 39.6139 44.0221 39.6078 44.1018C39.6016 44.1814 39.5798 44.2591 39.5435 44.3304C39.5072 44.4016 39.4572 44.4649 39.3964 44.5168L35.1338 48.1706C35.0241 48.2661 34.8834 48.3185 34.7379 48.3179Z" fill="#155DDD"/>
<path d="M43.263 48.3164C43.1174 48.3168 42.9767 48.2644 42.8669 48.1689L38.6043 44.5151C38.3487 44.2962 38.319 43.9133 38.5383 43.6575C38.7577 43.4017 39.1425 43.3734 39.3963 43.5922L43.6589 47.2458C43.7197 47.2977 43.7697 47.3611 43.8059 47.4323C43.8422 47.5036 43.8639 47.5813 43.87 47.661C43.8761 47.7407 43.8664 47.8208 43.8414 47.8967C43.8164 47.9727 43.7767 48.0429 43.7244 48.1034C43.6678 48.1705 43.5971 48.2244 43.5174 48.2612C43.4376 48.298 43.3508 48.3168 43.263 48.3164ZM34.7378 45.8806C34.6579 45.8807 34.5786 45.8649 34.5048 45.8344C34.4309 45.8038 34.3637 45.7589 34.3072 45.7024C34.2506 45.6458 34.2058 45.5787 34.1752 45.5048C34.1446 45.4309 34.1289 45.3517 34.1289 45.2717V32.4835C34.1289 32.4035 34.1446 32.3243 34.1752 32.2504C34.2058 32.1765 34.2506 32.1093 34.3072 32.0528C34.3637 31.9962 34.4309 31.9514 34.5048 31.9208C34.5786 31.8902 34.6579 31.8745 34.7378 31.8745C34.8178 31.8745 34.897 31.8902 34.9709 31.9207C35.0448 31.9513 35.112 31.9962 35.1685 32.0527C35.2251 32.1093 35.2699 32.1764 35.3005 32.2504C35.3311 32.3243 35.3468 32.4035 35.3467 32.4835V45.2717C35.3468 45.3517 35.3311 45.4309 35.3005 45.5048C35.2699 45.5787 35.2251 45.6458 35.1685 45.7024C35.112 45.759 35.0448 45.8038 34.9709 45.8344C34.897 45.865 34.8178 45.8807 34.7378 45.8806ZM43.263 45.8806C43.183 45.8807 43.1038 45.8649 43.0299 45.8344C42.956 45.8038 42.8888 45.7589 42.8323 45.7024C42.7757 45.6458 42.7308 45.5787 42.7002 45.5048C42.6696 45.4309 42.6539 45.3517 42.6539 45.2717V32.4835C42.6539 32.1469 42.9265 31.8745 43.263 31.8745C43.5995 31.8745 43.8717 32.1469 43.8717 32.4835V45.2717C43.8718 45.3517 43.8561 45.4309 43.8255 45.5048C43.795 45.5786 43.7501 45.6458 43.6936 45.7023C43.637 45.7589 43.5699 45.8038 43.496 45.8343C43.4221 45.8649 43.343 45.8807 43.263 45.8806Z" fill="#155DDD"/>
<path d="M34.7374 33.0933C34.6575 33.0934 34.5783 33.0776 34.5044 33.0471C34.4305 33.0165 34.3633 32.9716 34.3068 32.9151C34.2502 32.8585 34.2054 32.7914 34.1748 32.7175C34.1442 32.6436 34.1285 32.5644 34.1285 32.4844C34.1285 30.4696 32.4896 28.8306 30.475 28.8306C28.4601 28.8306 26.8214 30.4696 26.8214 32.4844C26.8214 32.5644 26.8057 32.6436 26.7751 32.7175C26.7445 32.7914 26.6996 32.8585 26.6431 32.9151C26.5865 32.9716 26.5194 33.0165 26.4455 33.0471C26.3716 33.0776 26.2924 33.0934 26.2124 33.0933C26.1325 33.0934 26.0533 33.0776 25.9794 33.0471C25.9055 33.0165 25.8383 32.9716 25.7818 32.9151C25.7252 32.8585 25.6804 32.7914 25.6498 32.7175C25.6192 32.6436 25.6035 32.5644 25.6035 32.4844C25.6035 29.7982 27.7889 27.6125 30.4752 27.6125C33.1613 27.6125 35.3467 29.7982 35.3467 32.4844C35.3467 32.5644 35.3309 32.6436 35.3003 32.7175C35.2697 32.7914 35.2248 32.8585 35.1682 32.9151C35.1116 32.9716 35.0445 33.0165 34.9706 33.0471C34.8966 33.0776 34.8174 33.0934 34.7374 33.0933ZM51.7876 33.0933C51.7076 33.0934 51.6284 33.0776 51.5545 33.0471C51.4807 33.0165 51.4135 32.9716 51.357 32.9151C51.3005 32.8585 51.2556 32.7913 51.225 32.7175C51.1945 32.6436 51.1788 32.5644 51.1788 32.4844C51.1788 30.4696 49.5399 28.8306 47.5253 28.8306C45.5107 28.8306 43.8715 30.4696 43.8715 32.4844C43.8715 32.8209 43.5993 33.0933 43.2627 33.0933C42.9262 33.0933 42.6537 32.8209 42.6537 32.4844C42.6537 29.7982 44.8398 27.6125 47.5255 27.6125C50.2108 27.6125 52.397 29.7982 52.397 32.4844C52.397 32.5644 52.3812 32.6436 52.3506 32.7175C52.3199 32.7914 52.2751 32.8586 52.2185 32.9151C52.1619 32.9717 52.0947 33.0165 52.0208 33.0471C51.9468 33.0777 51.8676 33.0934 51.7876 33.0933ZM40.8269 66.577H37.1733C37.0933 66.5771 37.014 66.5614 36.9401 66.5308C36.8662 66.5002 36.799 66.4553 36.7424 66.3988C36.6859 66.3422 36.641 66.275 36.6104 66.2011C36.5798 66.1272 36.5641 66.048 36.5642 65.9679V63.5416C36.5642 63.4616 36.5799 63.3824 36.6105 63.3085C36.6411 63.2346 36.6859 63.1674 36.7425 63.1109C36.7991 63.0543 36.8662 63.0095 36.9401 62.9789C37.0141 62.9483 37.0933 62.9326 37.1733 62.9327H40.8269C40.9069 62.9326 40.9861 62.9484 41.06 62.979C41.1339 63.0095 41.201 63.0544 41.2575 63.111C41.3141 63.1675 41.3589 63.2347 41.3895 63.3086C41.42 63.3825 41.4357 63.4617 41.4357 63.5416V65.9679C41.4358 66.0479 41.4201 66.1271 41.3895 66.2011C41.359 66.275 41.3141 66.3421 41.2576 66.3987C41.201 66.4553 41.1339 66.5001 41.06 66.5307C40.9861 66.5613 40.9069 66.5771 40.8269 66.577ZM37.782 65.359H40.2178V64.1506H37.782V65.359Z" fill="#155DDD"/>
<path d="M39.0002 62.9318C37.5361 62.9318 36.5643 61.099 36.5643 59.887C36.5643 59.807 36.58 59.7278 36.6106 59.6539C36.6412 59.58 36.686 59.5128 36.7426 59.4562C36.7992 59.3996 36.8663 59.3548 36.9403 59.3242C37.0142 59.2936 37.0934 59.2779 37.1734 59.278C37.2534 59.2779 37.3326 59.2936 37.4065 59.3242C37.4804 59.3548 37.5475 59.3997 37.6041 59.4563C37.6606 59.5129 37.7054 59.58 37.736 59.6539C37.7666 59.7278 37.7823 59.8071 37.7822 59.887C37.7822 60.641 38.4121 61.7139 39.0002 61.7139C39.5884 61.7139 40.218 60.641 40.218 59.887C40.218 59.5504 40.4905 59.278 40.8271 59.278C41.1636 59.278 41.4358 59.5504 41.4358 59.887C41.4358 61.099 40.4643 62.9318 39.0002 62.9318ZM30.4752 37.3551C27.789 37.3551 25.6035 35.1697 25.6035 32.4835C25.6035 32.4035 25.6192 32.3243 25.6498 32.2504C25.6804 32.1765 25.7252 32.1093 25.7818 32.0528C25.8383 31.9962 25.9055 31.9514 25.9794 31.9208C26.0533 31.8902 26.1325 31.8745 26.2124 31.8745C26.2924 31.8745 26.3716 31.8902 26.4455 31.9208C26.5194 31.9514 26.5865 31.9962 26.6431 32.0528C26.6996 32.1093 26.7445 32.1765 26.7751 32.2504C26.8057 32.3243 26.8214 32.4035 26.8214 32.4835C26.8214 34.4983 28.4603 36.1373 30.475 36.1373C30.8115 36.1373 31.0839 36.4097 31.0839 36.7462C31.0839 37.0827 30.8117 37.3551 30.4752 37.3551ZM47.5255 37.3551C47.1889 37.3551 46.9164 37.0827 46.9164 36.7462C46.9164 36.4097 47.1889 36.1373 47.5255 36.1373C49.5402 36.1373 51.179 34.4983 51.179 32.4835C51.1789 32.4035 51.1946 32.3243 51.2252 32.2504C51.2558 32.1765 51.3006 32.1093 51.3571 32.0528C51.4137 31.9962 51.4808 31.9514 51.5547 31.9208C51.6286 31.8902 51.7078 31.8745 51.7877 31.8745C51.8677 31.8745 51.947 31.8902 52.0209 31.9207C52.0948 31.9513 52.1619 31.9962 52.2185 32.0527C52.2751 32.1093 52.3199 32.1764 52.3505 32.2503C52.3811 32.3242 52.3969 32.4035 52.3968 32.4835C52.397 35.1697 50.2108 37.3551 47.5255 37.3551Z" fill="#155DDD"/>
<path d="M32.3008 37.3558H30.474C30.1373 37.3558 29.8649 37.0834 29.8649 36.7469C29.8649 36.4103 30.1373 36.1379 30.474 36.1379H32.3008C32.6373 36.1379 32.9097 36.4103 32.9097 36.7469C32.9097 37.0834 32.6373 37.3558 32.3008 37.3558ZM47.5243 37.3558H45.6974C45.3609 37.3558 45.0886 37.0834 45.0886 36.7469C45.0886 36.4103 45.3609 36.1379 45.6974 36.1379H47.5243C47.8608 36.1379 48.1331 36.4103 48.1331 36.7469C48.1331 37.0834 47.8608 37.3558 47.5243 37.3558ZM40.8259 37.3558H37.1722C36.8356 37.3558 36.5632 37.0834 36.5632 36.7469C36.5632 36.4103 36.8356 36.1379 37.1722 36.1379H40.8259C41.1624 36.1379 41.4347 36.4103 41.4347 36.7469C41.4347 37.0834 41.1624 37.3558 40.8259 37.3558ZM48.1331 71.4579H29.8648C29.7848 71.458 29.7056 71.4422 29.6317 71.4116C29.5578 71.3811 29.4907 71.3362 29.4341 71.2797C29.3776 71.2231 29.3327 71.156 29.3021 71.0821C29.2715 71.0082 29.2558 70.929 29.2559 70.849C29.2558 70.769 29.2715 70.6898 29.3021 70.6159C29.3327 70.542 29.3775 70.4748 29.4341 70.4183C29.4906 70.3617 29.5578 70.3168 29.6317 70.2863C29.7056 70.2557 29.7848 70.24 29.8648 70.24H48.1331C48.2131 70.24 48.2923 70.2557 48.3662 70.2863C48.4401 70.3168 48.5073 70.3617 48.5638 70.4182C48.6204 70.4748 48.6653 70.542 48.6959 70.6159C48.7265 70.6898 48.7422 70.769 48.7421 70.849C48.7422 70.929 48.7264 71.0082 48.6958 71.0821C48.6652 71.156 48.6204 71.2231 48.5638 71.2797C48.5072 71.3362 48.4401 71.3811 48.3662 71.4117C48.2923 71.4422 48.2131 71.458 48.1331 71.4579ZM48.1331 75.1116H29.8648C29.7848 75.1116 29.7056 75.0959 29.6317 75.0654C29.5578 75.0348 29.4907 74.9899 29.4341 74.9334C29.3776 74.8769 29.3327 74.8097 29.3021 74.7358C29.2715 74.6619 29.2558 74.5827 29.2559 74.5028C29.2558 74.4228 29.2715 74.3436 29.3021 74.2697C29.3327 74.1957 29.3775 74.1286 29.4341 74.072C29.4906 74.0154 29.5578 73.9706 29.6317 73.94C29.7056 73.9094 29.7848 73.8936 29.8648 73.8937H48.1331C48.2131 73.8936 48.2923 73.9094 48.3662 73.94C48.4401 73.9706 48.5073 74.0154 48.5638 74.072C48.6204 74.1286 48.6653 74.1957 48.6959 74.2696C48.7265 74.3436 48.7422 74.4228 48.7421 74.5028C48.7422 74.5828 48.7264 74.662 48.6958 74.7359C48.6652 74.8097 48.6203 74.8769 48.5638 74.9334C48.5072 74.9899 48.4401 75.0348 48.3662 75.0654C48.2923 75.0959 48.2131 75.1116 48.1331 75.1116Z" fill="#155DDD"/>
<path d="M29.8658 76.3277C29.7859 76.3277 29.7067 76.312 29.6328 76.2814C29.5589 76.2509 29.4917 76.206 29.4352 76.1495C29.3786 76.093 29.3338 76.0258 29.3032 75.9519C29.2726 75.878 29.2569 75.7988 29.2569 75.7189V74.501C29.2568 74.421 29.2725 74.3418 29.3031 74.2679C29.3337 74.1939 29.3786 74.1268 29.4351 74.0702C29.4917 74.0136 29.5588 73.9688 29.6327 73.9382C29.7066 73.9076 29.7858 73.8919 29.8658 73.8919C29.9458 73.8918 30.025 73.9075 30.099 73.9381C30.1729 73.9687 30.2401 74.0136 30.2966 74.0702C30.3532 74.1267 30.3981 74.1939 30.4286 74.2678C30.4592 74.3418 30.4749 74.421 30.4749 74.501V75.7189C30.4749 75.7989 30.4592 75.8781 30.4286 75.952C30.398 76.0259 30.3531 76.093 30.2966 76.1495C30.24 76.2061 30.1728 76.2509 30.0989 76.2815C30.025 76.3121 29.9458 76.3277 29.8658 76.3277ZM33.5196 76.3277C33.4397 76.3277 33.3605 76.312 33.2866 76.2814C33.2127 76.2509 33.1455 76.206 33.089 76.1495C33.0324 76.093 32.9876 76.0258 32.957 75.9519C32.9264 75.878 32.9107 75.7988 32.9107 75.7189V74.501C32.9107 74.1643 33.183 73.8919 33.5196 73.8919C33.8563 73.8919 34.1285 74.1643 34.1285 74.501V75.7189C34.1286 75.7988 34.1129 75.878 34.0823 75.9519C34.0517 76.0258 34.0068 76.093 33.9503 76.1495C33.8937 76.206 33.8266 76.2509 33.7527 76.2814C33.6788 76.312 33.5996 76.3277 33.5196 76.3277ZM37.1733 76.3277C37.0933 76.3277 37.0141 76.3121 36.9402 76.2815C36.8663 76.2509 36.7991 76.2061 36.7425 76.1495C36.686 76.093 36.6411 76.0259 36.6105 75.952C36.5799 75.8781 36.5642 75.7989 36.5642 75.7189V74.501C36.5642 74.421 36.5799 74.3418 36.6105 74.2678C36.641 74.1939 36.6859 74.1267 36.7425 74.0702C36.799 74.0136 36.8662 73.9687 36.9401 73.9381C37.0141 73.9075 37.0933 73.8918 37.1733 73.8919C37.2533 73.8919 37.3325 73.9076 37.4064 73.9382C37.4803 73.9688 37.5474 74.0137 37.6039 74.0702C37.6605 74.1268 37.7053 74.194 37.7359 74.2679C37.7664 74.3418 37.7821 74.421 37.7821 74.501V75.7189C37.7821 75.7988 37.7664 75.878 37.7358 75.9519C37.7053 76.0258 37.6604 76.0929 37.6039 76.1495C37.5473 76.206 37.4802 76.2509 37.4063 76.2814C37.3324 76.312 37.2533 76.3277 37.1733 76.3277ZM40.827 76.3277C40.747 76.3277 40.6678 76.312 40.5939 76.2814C40.52 76.2509 40.4528 76.206 40.3962 76.1495C40.3397 76.093 40.2948 76.0258 40.2642 75.9519C40.2336 75.878 40.2179 75.7989 40.2179 75.7189V74.501C40.2179 74.1643 40.4904 73.8919 40.827 73.8919C41.1635 73.8919 41.4357 74.1643 41.4357 74.501V75.7189C41.4358 75.7988 41.4201 75.878 41.3895 75.9519C41.3589 76.0258 41.3141 76.0929 41.2575 76.1495C41.201 76.206 41.1339 76.2509 41.06 76.2814C40.9861 76.312 40.9069 76.3277 40.827 76.3277ZM44.4806 76.3277C44.4006 76.3277 44.3214 76.312 44.2475 76.2814C44.1736 76.2509 44.1065 76.206 44.0499 76.1495C43.9933 76.093 43.9485 76.0258 43.9179 75.9519C43.8873 75.878 43.8715 75.7989 43.8715 75.7189V74.501C43.8715 74.1643 44.1441 73.8919 44.4806 73.8919C44.8171 73.8919 45.0897 74.1643 45.0897 74.501V75.7189C45.0897 75.7989 45.074 75.878 45.0434 75.9519C45.0127 76.0258 44.9679 76.093 44.9113 76.1495C44.8547 76.206 44.7876 76.2509 44.7137 76.2814C44.6398 76.312 44.5606 76.3277 44.4806 76.3277ZM48.1341 76.3277C48.0542 76.3277 47.975 76.312 47.9011 76.2814C47.8272 76.2509 47.7601 76.206 47.7035 76.1495C47.647 76.0929 47.6021 76.0258 47.5716 75.9519C47.541 75.878 47.5253 75.7988 47.5254 75.7189V74.501C47.5254 74.1643 47.7976 73.8919 48.1341 73.8919C48.4706 73.8919 48.7432 74.1643 48.7432 74.501V75.7189C48.7432 75.7989 48.7275 75.878 48.6969 75.9519C48.6663 76.0258 48.6214 76.093 48.5648 76.1495C48.5083 76.206 48.4411 76.2509 48.3672 76.2814C48.2933 76.312 48.2141 76.3277 48.1341 76.3277ZM29.8658 72.674C29.7858 72.6741 29.7066 72.6584 29.6327 72.6278C29.5588 72.5972 29.4917 72.5523 29.4351 72.4958C29.3786 72.4392 29.3337 72.3721 29.3031 72.2982C29.2725 72.2243 29.2568 72.1451 29.2569 72.0651V70.8472C29.2568 70.7672 29.2725 70.688 29.3031 70.6141C29.3337 70.5402 29.3786 70.473 29.4351 70.4165C29.4917 70.3599 29.5588 70.3151 29.6327 70.2845C29.7066 70.2539 29.7858 70.2382 29.8658 70.2382C29.9458 70.2382 30.025 70.2539 30.0989 70.2845C30.1728 70.3151 30.24 70.3599 30.2966 70.4165C30.3531 70.473 30.398 70.5402 30.4286 70.6141C30.4592 70.688 30.4749 70.7672 30.4749 70.8472V72.0651C30.4749 72.1451 30.4592 72.2243 30.4286 72.2982C30.3981 72.3721 30.3532 72.4393 30.2966 72.4958C30.24 72.5524 30.1729 72.5973 30.099 72.6278C30.025 72.6584 29.9458 72.6741 29.8658 72.674ZM33.5196 72.674C33.4396 72.6741 33.3604 72.6584 33.2865 72.6278C33.2126 72.5972 33.1455 72.5523 33.0889 72.4958C33.0324 72.4392 32.9875 72.3721 32.9569 72.2982C32.9264 72.2243 32.9107 72.1451 32.9107 72.0651V70.8472C32.9107 70.5105 33.183 70.2382 33.5196 70.2382C33.8563 70.2382 34.1285 70.5105 34.1285 70.8472V72.0651C34.1286 72.1451 34.1129 72.2243 34.0823 72.2982C34.0517 72.3721 34.0069 72.4392 33.9503 72.4958C33.8938 72.5523 33.8266 72.5972 33.7527 72.6278C33.6788 72.6584 33.5996 72.6741 33.5196 72.674ZM37.1733 72.674C37.0933 72.6741 37.0141 72.6584 36.9402 72.6278C36.8663 72.5972 36.7991 72.5524 36.7425 72.4958C36.686 72.4392 36.6411 72.3721 36.6105 72.2982C36.5799 72.2243 36.5642 72.1451 36.5642 72.0651V70.8472C36.5642 70.7672 36.5799 70.688 36.6105 70.6141C36.6411 70.5402 36.686 70.473 36.7425 70.4165C36.7991 70.3599 36.8663 70.3151 36.9402 70.2845C37.0141 70.2539 37.0933 70.2382 37.1733 70.2382C37.2533 70.2382 37.3324 70.2539 37.4063 70.2845C37.4802 70.3151 37.5474 70.36 37.6039 70.4165C37.6604 70.4731 37.7053 70.5402 37.7358 70.6141C37.7664 70.688 37.7821 70.7672 37.7821 70.8472V72.0651C37.7821 72.145 37.7664 72.2242 37.7358 72.2981C37.7053 72.372 37.6604 72.4392 37.6039 72.4957C37.5474 72.5523 37.4802 72.5971 37.4063 72.6277C37.3324 72.6583 37.2533 72.6741 37.1733 72.674ZM40.827 72.674C40.747 72.6741 40.6677 72.6584 40.5938 72.6278C40.5199 72.5972 40.4528 72.5524 40.3962 72.4958C40.3396 72.4392 40.2948 72.3721 40.2642 72.2982C40.2336 72.2243 40.2178 72.1451 40.2179 72.0651V70.8472C40.2179 70.5105 40.4904 70.2382 40.827 70.2382C41.1635 70.2382 41.4357 70.5105 41.4357 70.8472V72.0651C41.4358 72.145 41.4201 72.2242 41.3895 72.2981C41.3589 72.372 41.3141 72.4392 41.2576 72.4957C41.201 72.5523 41.1339 72.5971 41.06 72.6277C40.9861 72.6583 40.9069 72.6741 40.827 72.674ZM44.4806 72.674C44.4006 72.6741 44.3214 72.6584 44.2475 72.6278C44.1736 72.5972 44.1064 72.5524 44.0499 72.4958C43.9933 72.4392 43.9484 72.3721 43.9178 72.2982C43.8872 72.2243 43.8715 72.1451 43.8715 72.0651V70.8472C43.8715 70.5105 44.1441 70.2382 44.4806 70.2382C44.8171 70.2382 45.0897 70.5105 45.0897 70.8472V72.0651C45.0897 72.1451 45.074 72.2243 45.0434 72.2982C45.0128 72.3721 44.9679 72.4392 44.9114 72.4958C44.8548 72.5524 44.7876 72.5972 44.7137 72.6278C44.6398 72.6584 44.5606 72.6741 44.4806 72.674ZM48.1341 72.674C48.0541 72.6741 47.975 72.6583 47.9011 72.6277C47.8272 72.5971 47.7601 72.5523 47.7035 72.4957C47.647 72.4392 47.6021 72.372 47.5716 72.2981C47.541 72.2242 47.5253 72.145 47.5254 72.0651V70.8472C47.5254 70.5105 47.7976 70.2382 48.1341 70.2382C48.4706 70.2382 48.7432 70.5105 48.7432 70.8472V72.0651C48.7432 72.1451 48.7275 72.2243 48.6969 72.2982C48.6663 72.3721 48.6214 72.4392 48.5649 72.4958C48.5083 72.5524 48.4411 72.5972 48.3672 72.6278C48.2933 72.6584 48.2141 72.6741 48.1341 72.674ZM28.648 69.0204C28.568 69.0204 28.4888 69.0047 28.4149 68.9741C28.341 68.9435 28.2738 68.8986 28.2173 68.842C28.1607 68.7855 28.1159 68.7183 28.0853 68.6444C28.0547 68.5705 28.039 68.4913 28.0391 68.4113C28.039 68.3313 28.0547 68.2521 28.0853 68.1782C28.1159 68.1043 28.1608 68.0372 28.2173 67.9806C28.2739 67.9241 28.341 67.8793 28.4149 67.8487C28.4888 67.8181 28.568 67.8024 28.648 67.8025C31.9365 67.8025 33.0855 66.7651 33.0961 66.7557C33.3388 66.5287 33.7222 66.5346 33.9537 66.7747C34.0651 66.8882 34.1272 67.041 34.1266 67.2C34.1259 67.3591 34.0625 67.5114 33.9502 67.6239C33.8076 67.7667 32.4444 69.0204 28.648 69.0204ZM49.352 69.0204C45.5555 69.0204 44.1928 67.7667 44.0499 67.6239C43.9918 67.5681 43.9453 67.5013 43.9132 67.4274C43.8811 67.3535 43.8639 67.274 43.8628 67.1934C43.8616 67.1128 43.8764 67.0328 43.9064 66.958C43.9364 66.8832 43.981 66.8151 44.0375 66.7576C44.094 66.7002 44.1613 66.6545 44.2356 66.6233C44.3099 66.592 44.3897 66.5759 44.4702 66.5757C44.5508 66.5755 44.6306 66.5913 44.7051 66.6222C44.7795 66.6531 44.8471 66.6985 44.9038 66.7557C44.9372 66.7866 46.0955 67.8025 49.3518 67.8025C49.4318 67.8024 49.511 67.8181 49.5849 67.8487C49.6588 67.8792 49.726 67.924 49.7825 67.9806C49.8391 68.0371 49.884 68.1043 49.9146 68.1782C49.9452 68.2521 49.9609 68.3313 49.9609 68.4113C49.961 68.4913 49.9453 68.5705 49.9147 68.6444C49.8841 68.7183 49.8393 68.7855 49.7827 68.8421C49.7262 68.8987 49.659 68.9435 49.5851 68.9741C49.5112 69.0047 49.4319 69.0204 49.352 69.0204Z" fill="#155DDD"/>
<path d="M39.0003 69.0236C35.7407 69.0236 34.3642 67.6843 34.307 67.6272C34.2505 67.5707 34.2056 67.5036 34.1749 67.4297C34.1443 67.3558 34.1285 67.2766 34.1285 67.1967C34.1285 67.1167 34.1443 67.0375 34.1749 66.9636C34.2056 66.8898 34.2505 66.8226 34.307 66.7661C34.4203 66.6526 34.5739 66.5885 34.7342 66.5876C34.8946 66.5867 35.0488 66.6492 35.1634 66.7614C35.1943 66.79 36.3154 67.8058 39.0003 67.8058C41.7097 67.8058 42.8264 66.7708 42.8371 66.7614C43.0796 66.5332 43.4637 66.5356 43.6958 66.7733C43.9288 67.0123 43.9288 67.392 43.6934 67.6272C43.6364 67.6843 42.2591 69.0236 39.0003 69.0236ZM53.0062 72.6773C51.9987 72.6773 51.1793 71.8578 51.1793 70.8505C51.1793 70.1416 51.749 67.8058 53.0062 67.8058C54.2633 67.8058 54.8328 70.1416 54.8328 70.8505C54.8328 71.8578 54.0133 72.6773 53.0062 72.6773ZM53.0062 69.0747C52.7443 69.366 52.3971 70.3473 52.3971 70.8503C52.3974 71.0117 52.4617 71.1665 52.5759 71.2806C52.69 71.3947 52.8447 71.459 53.0062 71.4593C53.1675 71.4589 53.3222 71.3947 53.4363 71.2805C53.5504 71.1664 53.6147 71.0117 53.6149 70.8503C53.6149 70.3473 53.2676 69.3661 53.0062 69.0747ZM24.9947 72.6773C23.9874 72.6773 23.168 71.8578 23.168 70.8505C23.168 70.1416 23.7376 67.8058 24.9947 67.8058C26.2519 67.8058 26.8215 70.1416 26.8215 70.8505C26.8215 71.8578 26.002 72.6773 24.9947 72.6773ZM24.9947 69.0747C24.7336 69.366 24.3858 70.3473 24.3858 70.8503C24.386 71.0117 24.4503 71.1665 24.5644 71.2806C24.6786 71.3948 24.8333 71.459 24.9947 71.4593C25.1561 71.459 25.3109 71.3948 25.425 71.2806C25.5392 71.1665 25.6034 71.0117 25.6036 70.8503C25.6036 70.3473 25.2558 69.3661 24.9947 69.0747ZM24.9953 67.8056C24.8824 67.8057 24.7717 67.7744 24.6756 67.7151C24.5795 67.6559 24.5018 67.5711 24.4512 67.4701C24.4151 67.3988 24.3935 67.3211 24.3875 67.2414C24.3815 67.1617 24.3913 67.0816 24.4163 67.0057C24.4413 66.9298 24.4811 66.8596 24.5333 66.7991C24.5855 66.7386 24.6491 66.689 24.7205 66.6531L27.1563 65.4256C27.4554 65.2722 27.8224 65.3935 27.974 65.6956C28.01 65.7669 28.0316 65.8446 28.0376 65.9243C28.0436 66.004 28.0338 66.0841 28.0087 66.16C27.9837 66.2358 27.944 66.3061 27.8918 66.3666C27.8396 66.4271 27.776 66.4767 27.7046 66.5126L25.2688 67.7401C25.1809 67.7843 25.0875 67.8056 24.9953 67.8056ZM53.0062 67.8056C52.9111 67.8054 52.8173 67.783 52.7324 67.7401L50.2967 66.5126C50.2253 66.4767 50.1617 66.4271 50.1095 66.3666C50.0572 66.3061 50.0175 66.2359 49.9924 66.16C49.9673 66.0841 49.9575 66.0041 49.9634 65.9244C49.9693 65.8447 49.9909 65.7669 50.0269 65.6956C50.0625 65.6238 50.1119 65.5599 50.1723 65.5074C50.2327 65.4549 50.303 65.4149 50.379 65.3898C50.455 65.3647 50.5353 65.3549 50.6151 65.3611C50.6949 65.3672 50.7727 65.3891 50.844 65.4256L53.2796 66.6531C53.351 66.6889 53.4147 66.7385 53.4669 66.799C53.5192 66.8595 53.5589 66.9297 53.584 67.0056C53.6091 67.0815 53.6189 67.1616 53.613 67.2413C53.607 67.321 53.5855 67.3988 53.5494 67.4701C53.499 67.571 53.4214 67.6558 53.3255 67.7151C53.2295 67.7743 53.1189 67.8057 53.0062 67.8056Z" fill="#155DDD"/>
</g>
<defs>
<clipPath id="clip0_2406_2471">
<rect width="78" height="78.003" fill="white" transform="translate(0 0.780762)"/>
</clipPath>
</defs>
</svg>
