<svg width="80" height="52" viewBox="0 0 80 52" fill="none" xmlns="http://www.w3.org/2000/svg">
<path d="M42.9608 27.143L38.6274 31.4764C38.1902 31.9137 37.4812 31.9137 37.0439 31.4764C36.6069 31.0393 36.6066 30.3308 37.0433 29.8935L40.5798 26.3513L37.0428 22.8142C36.6062 22.3776 36.6054 21.67 37.0411 21.2324L37.0439 21.2296C37.4809 20.7907 38.1912 20.7899 38.6291 21.2279L42.9608 25.5595C43.3981 25.9968 43.3981 26.7057 42.9608 27.143Z" fill="#EC6E62"/>
<path d="M28.2674 15.0144H5.97656V19.2342H28.2674V15.0144Z" fill="#4E4C4D"/>
<path d="M28.2674 33.4685H5.97656V37.6883H28.2674V33.4685Z" fill="#4E4C4D"/>
<path d="M28.4118 19.2351H5.83116C2.98933 19.2351 0.685547 21.5389 0.685547 24.3807V28.323C0.685547 31.1648 2.98931 33.4686 5.83116 33.4686H28.4118C31.2536 33.4686 33.5574 31.1648 33.5574 28.323V24.3807C33.5574 21.5389 31.2536 19.2351 28.4118 19.2351Z" fill="#719EED"/>
<path d="M28.4118 37.6868H5.83116C2.98933 37.6868 0.685547 39.9905 0.685547 42.8324V46.7746C0.685547 49.6165 2.98931 51.9202 5.83116 51.9202H28.4118C31.2536 51.9202 33.5574 49.6165 33.5574 46.7746V42.8324C33.5574 39.9905 31.2536 37.6868 28.4118 37.6868Z" fill="#719EED"/>
<path d="M28.4118 0.781006H5.83116C2.98933 0.781006 0.685547 3.08477 0.685547 5.92662V9.86887C0.685547 12.7107 2.98931 15.0145 5.83116 15.0145H28.4118C31.2536 15.0145 33.5574 12.7107 33.5574 9.86887V5.92662C33.5574 3.08477 31.2536 0.781006 28.4118 0.781006Z" fill="#719EED"/>
<path d="M8.26649 10.6362C9.77927 10.6362 11.0056 9.40989 11.0056 7.8971C11.0056 6.38432 9.77927 5.15796 8.26649 5.15796C6.7537 5.15796 5.52734 6.38432 5.52734 7.8971C5.52734 9.40989 6.7537 10.6362 8.26649 10.6362Z" fill="#85BD57"/>
<path d="M16.0516 10.6362C17.5644 10.6362 18.7908 9.40989 18.7908 7.8971C18.7908 6.38432 17.5644 5.15796 16.0516 5.15796C14.5389 5.15796 13.3125 6.38432 13.3125 7.8971C13.3125 9.40989 14.5389 10.6362 16.0516 10.6362Z" fill="#FFC966"/>
<path d="M8.26649 29.0903C9.77927 29.0903 11.0056 27.864 11.0056 26.3512C11.0056 24.8384 9.77927 23.6121 8.26649 23.6121C6.7537 23.6121 5.52734 24.8384 5.52734 26.3512C5.52734 27.864 6.7537 29.0903 8.26649 29.0903Z" fill="#85BD57"/>
<path d="M16.0516 29.0903C17.5644 29.0903 18.7908 27.864 18.7908 26.3512C18.7908 24.8384 17.5644 23.6121 16.0516 23.6121C14.5389 23.6121 13.3125 24.8384 13.3125 26.3512C13.3125 27.864 14.5389 29.0903 16.0516 29.0903Z" fill="#FFC966"/>
<path d="M8.26649 47.5445C9.77927 47.5445 11.0056 46.3181 11.0056 44.8053C11.0056 43.2925 9.77927 42.0662 8.26649 42.0662C6.7537 42.0662 5.52734 43.2925 5.52734 44.8053C5.52734 46.3181 6.7537 47.5445 8.26649 47.5445Z" fill="#85BD57"/>
<path d="M16.0516 47.5445C17.5644 47.5445 18.7908 46.3181 18.7908 44.8053C18.7908 43.2925 17.5644 42.0662 16.0516 42.0662C14.5389 42.0662 13.3125 43.2925 13.3125 44.8053C13.3125 46.3181 14.5389 47.5445 16.0516 47.5445Z" fill="#FFC966"/>
<path d="M74.0252 15.0144H51.7344V19.2342H74.0252V15.0144Z" fill="#D2D2D2"/>
<path d="M74.0252 33.4685H51.7344V37.6883H74.0252V33.4685Z" fill="#D2D2D2"/>
<path d="M74.1696 19.2351H51.589C48.7471 19.2351 46.4434 21.5389 46.4434 24.3807V28.323C46.4434 31.1648 48.7471 33.4686 51.589 33.4686H74.1696C77.0114 33.4686 79.3152 31.1648 79.3152 28.323V24.3807C79.3152 21.5389 77.0114 19.2351 74.1696 19.2351Z" fill="#E7E3E6"/>
<path d="M74.1696 37.6868H51.589C48.7471 37.6868 46.4434 39.9905 46.4434 42.8324V46.7746C46.4434 49.6165 48.7471 51.9202 51.589 51.9202H74.1696C77.0114 51.9202 79.3152 49.6165 79.3152 46.7746V42.8324C79.3152 39.9905 77.0114 37.6868 74.1696 37.6868Z" fill="#E7E3E6"/>
<path d="M74.1696 0.781006H51.589C48.7471 0.781006 46.4434 3.08477 46.4434 5.92662V9.86887C46.4434 12.7107 48.7471 15.0145 51.589 15.0145H74.1696C77.0114 15.0145 79.3152 12.7107 79.3152 9.86887V5.92662C79.3152 3.08477 77.0114 0.781006 74.1696 0.781006Z" fill="#E7E3E6"/>
<path d="M54.0243 10.6362C55.5371 10.6362 56.7634 9.40989 56.7634 7.8971C56.7634 6.38432 55.5371 5.15796 54.0243 5.15796C52.5115 5.15796 51.2852 6.38432 51.2852 7.8971C51.2852 9.40989 52.5115 10.6362 54.0243 10.6362Z" fill="#53B1E2"/>
<path d="M61.8095 10.6362C63.3222 10.6362 64.5486 9.40989 64.5486 7.8971C64.5486 6.38432 63.3222 5.15796 61.8095 5.15796C60.2967 5.15796 59.0703 6.38432 59.0703 7.8971C59.0703 9.40989 60.2967 10.6362 61.8095 10.6362Z" fill="#F58634"/>
<path d="M54.0243 29.0903C55.5371 29.0903 56.7634 27.864 56.7634 26.3512C56.7634 24.8384 55.5371 23.6121 54.0243 23.6121C52.5115 23.6121 51.2852 24.8384 51.2852 26.3512C51.2852 27.864 52.5115 29.0903 54.0243 29.0903Z" fill="#53B1E2"/>
<path d="M61.8095 29.0903C63.3222 29.0903 64.5486 27.864 64.5486 26.3512C64.5486 24.8384 63.3222 23.6121 61.8095 23.6121C60.2967 23.6121 59.0703 24.8384 59.0703 26.3512C59.0703 27.864 60.2967 29.0903 61.8095 29.0903Z" fill="#F58634"/>
<path d="M54.0243 47.5445C55.5371 47.5445 56.7634 46.3181 56.7634 44.8053C56.7634 43.2925 55.5371 42.0662 54.0243 42.0662C52.5115 42.0662 51.2852 43.2925 51.2852 44.8053C51.2852 46.3181 52.5115 47.5445 54.0243 47.5445Z" fill="#53B1E2"/>
<path d="M61.8095 47.5445C63.3222 47.5445 64.5486 46.3181 64.5486 44.8053C64.5486 43.2925 63.3222 42.0662 61.8095 42.0662C60.2967 42.0662 59.0703 43.2925 59.0703 44.8053C59.0703 46.3181 60.2967 47.5445 61.8095 47.5445Z" fill="#F58634"/>
</svg>
