<svg width="56" height="57" viewBox="0 0 56 57" fill="none" xmlns="http://www.w3.org/2000/svg">
<g clip-path="url(#clip0_2406_2339)">
<path d="M27.7636 0.905762C13.6209 0.905763 14.5041 7.03888 14.5041 7.03888L14.5198 13.3927H28.0159V15.3005H9.15927C9.15927 15.3005 0.109375 14.2741 0.109375 28.5442C0.109374 42.8143 8.00833 42.3083 8.00833 42.3083H12.7225V35.6864C12.7225 35.6864 12.4684 27.7874 20.4953 27.7874H33.881C33.881 27.7874 41.4015 27.909 41.4015 20.5191V8.30019C41.4015 8.30019 42.5433 0.905762 27.7636 0.905762ZM20.3219 5.17845C21.6646 5.17845 22.7499 6.26372 22.7499 7.60647C22.7499 8.94923 21.6646 10.0345 20.3219 10.0345C18.9791 10.0345 17.8938 8.94923 17.8938 7.60647C17.8938 6.26372 18.9791 5.17845 20.3219 5.17845Z" fill="url(#paint0_linear_2406_2339)"/>
<path d="M28.1662 56.3259C42.3089 56.3259 41.4257 50.1927 41.4257 50.1927L41.4099 43.8389H27.9139V41.9312H46.7705C46.7705 41.9312 55.8204 42.9575 55.8204 28.6874C55.8204 14.4173 47.9214 14.9234 47.9214 14.9234H43.2073V21.5452C43.2073 21.5452 43.4614 29.4442 35.4345 29.4442H22.0488C22.0488 29.4442 14.5283 29.3226 14.5283 36.7125V48.9314C14.5283 48.9314 13.3864 56.3259 28.1662 56.3259ZM35.6079 52.0532C34.2652 52.0532 33.1799 50.9679 33.1799 49.6252C33.1799 48.2824 34.2652 47.1971 35.6079 47.1971C36.9507 47.1971 38.0359 48.2824 38.0359 49.6252C38.0359 50.9679 36.9507 52.0532 35.6079 52.0532Z" fill="url(#paint1_linear_2406_2339)"/>
</g>
<defs>
<linearGradient id="paint0_linear_2406_2339" x1="535.494" y1="499.394" x2="3296.28" y2="3232.64" gradientUnits="userSpaceOnUse">
<stop stop-color="#387EB8"/>
<stop offset="1" stop-color="#366994"/>
</linearGradient>
<linearGradient id="paint1_linear_2406_2339" x1="804.715" y1="866.996" x2="3769.51" y2="3669.71" gradientUnits="userSpaceOnUse">
<stop stop-color="#FFE052"/>
<stop offset="1" stop-color="#FFC331"/>
</linearGradient>
<clipPath id="clip0_2406_2339">
<rect width="55.8445" height="55.8445" fill="white" transform="translate(0.078125 0.780762)"/>
</clipPath>
</defs>
</svg>
