<svg width="60" height="61" viewBox="0 0 60 61" fill="none" xmlns="http://www.w3.org/2000/svg">
<path d="M53.388 32.8553V23.7776C53.388 22.6344 52.5139 21.7603 51.3707 21.7603H48.4793C47.9414 19.743 47.1345 17.7258 46.0586 16.0447L48.0759 14.0275C48.8828 13.2206 48.8828 11.943 48.0759 11.2033L43.0327 6.09289C42.2258 5.28598 40.9482 5.28598 40.1413 6.09289L38.1241 8.11015C36.3085 7.03428 34.4257 6.22737 32.4085 5.68944V2.79802C32.4085 1.65491 31.5343 0.780762 30.3912 0.780762H23.3308C22.1877 0.780762 21.3135 1.65491 21.3135 2.79802V5.68944C19.2963 6.22737 17.279 7.03428 15.5979 8.11015L13.5134 6.02565C12.7065 5.21874 11.4289 5.28598 10.6893 6.02565L5.64611 11.0688C4.83921 11.8757 4.83921 13.1533 5.64611 13.893L7.66337 15.9102C6.5875 17.7258 5.7806 19.6086 5.24266 21.6258H2.35125C1.20813 21.6258 0.333984 22.5 0.333984 23.6431V30.7707C0.333984 31.9139 1.20813 32.788 2.35125 32.788H5.24266C5.7806 34.8053 6.5875 36.8225 7.66337 38.5036L5.57887 40.5881C4.77196 41.395 4.83921 42.6726 5.57887 43.4123L10.622 48.4554C11.4289 49.2623 12.7065 49.2623 13.4462 48.4554L15.4635 46.4382C17.279 47.514 19.1618 48.3209 21.179 48.8589V51.7503C21.179 52.8934 22.0532 53.7675 23.1963 53.7675H30.324C31.4671 53.7675 32.3412 52.8934 32.3412 51.7503V48.8589C34.3585 48.3209 36.3758 47.514 38.0568 46.4382L40.0741 48.4554C40.881 49.2623 42.1586 49.2623 42.8982 48.4554L48.0086 43.4123C48.8155 42.6054 48.8155 41.3278 48.0086 40.5209L45.9914 38.5036C47.0672 36.6881 47.8742 34.8053 48.4121 32.788L53.388 32.8553ZM26.8946 41.664C18.96 41.664 12.572 35.276 12.572 27.3414C12.572 19.4068 18.96 13.0188 26.8946 13.0188C34.8292 13.0188 41.2172 19.4068 41.2172 27.3414C41.2172 35.276 34.7619 41.664 26.8946 41.664Z" fill="#5391FF"/>
<path d="M34.1574 19.6763C30.9298 16.4486 26.1556 15.709 22.1883 17.659L27.9039 23.3746C29.1815 24.6522 29.3832 26.6694 28.2401 28.1488C26.8952 29.8298 24.4073 29.9643 22.9952 28.485L17.1451 22.6349C15.1279 26.8039 16.1365 32.0488 19.9693 35.2764C23.0624 37.8989 27.5004 38.3696 31.1315 36.6213L48.5472 57.8698C50.9007 60.7612 55.2042 60.9629 57.8266 58.3405C60.4491 55.718 60.2473 51.4145 57.3559 49.0611L36.1747 31.6454C38.1247 27.6781 37.385 22.9039 34.1574 19.6763ZM55.8094 56.256C54.5317 57.5336 52.38 57.5336 51.1024 56.256C49.8248 54.9784 49.8248 52.8266 51.1024 51.549C52.38 50.2714 54.5317 50.2714 55.8094 51.549C57.087 52.8266 57.087 54.9111 55.8094 56.256Z" fill="#525167"/>
</svg>
