<svg width="162" height="224" viewBox="0 0 162 224" fill="none" xmlns="http://www.w3.org/2000/svg">
<path d="M147.103 50.1804L147.904 49.5814L147.103 50.1804ZM129.261 136.163L128.735 135.313L129.261 136.163ZM113.985 176.094L113.052 175.733L113.985 176.094ZM62.3099 222.877L73.848 223.329L68.47 213.111L62.3099 222.877ZM0.631152 2.11865C0.754119 3.11106 0.754087 3.11107 0.754062 3.11107C0.754061 3.11107 0.754043 3.11107 0.754036 3.11108C0.754027 3.11108 0.754035 3.11107 0.754053 3.11107C0.754102 3.11107 0.754205 3.11106 0.754381 3.11103C0.754727 3.11099 0.755334 3.11092 0.756202 3.11081C0.757931 3.1106 0.760697 3.11026 0.764492 3.10979C0.772077 3.10887 0.783776 3.10746 0.799554 3.10557C0.831104 3.10179 0.878941 3.09613 0.942741 3.08878C1.07034 3.07406 1.26178 3.05253 1.51442 3.02565C2.01969 2.97188 2.76969 2.89667 3.74324 2.81156L3.56907 0.81916C2.58247 0.905406 1.81997 0.981841 1.30277 1.03688C1.04418 1.0644 0.846899 1.08657 0.713582 1.10195C0.646927 1.10963 0.596259 1.11563 0.56192 1.11973C0.544747 1.12179 0.531656 1.12337 0.522688 1.12447C0.518201 1.12501 0.51475 1.12543 0.512331 1.12573C0.511118 1.12588 0.510172 1.126 0.509481 1.12608C0.509136 1.12612 0.508857 1.12616 0.508639 1.12619C0.50853 1.1262 0.508437 1.12621 0.508362 1.12622C0.508327 1.12623 0.508284 1.12623 0.508261 1.12624C0.508226 1.12624 0.508185 1.12624 0.631152 2.11865ZM9.90014 2.38223C11.7169 2.28407 13.7719 2.19625 16.0353 2.13493L15.9812 0.135662C13.6988 0.197492 11.6259 0.286075 9.79224 0.385143L9.90014 2.38223ZM22.1994 2.04602C24.1507 2.04226 26.2057 2.06122 28.3517 2.10977L28.3969 0.110285C26.2339 0.0613436 24.1625 0.0422347 22.1956 0.0460244L22.1994 2.04602ZM34.5271 2.32576C36.519 2.42014 38.57 2.5414 40.6722 2.69398L40.817 0.699223C38.6975 0.545391 36.6297 0.423146 34.6218 0.328005L34.5271 2.32576ZM46.7975 3.21766C48.8016 3.41525 50.8419 3.64253 52.9121 3.90289L53.1616 1.91852C51.073 1.65585 49.015 1.42659 46.9937 1.22731L46.7975 3.21766ZM59.0068 4.75573C61.0097 5.06493 63.0338 5.4065 65.0739 5.78328L65.4371 3.81655C63.377 3.43606 61.3335 3.09123 59.3119 2.77915L59.0068 4.75573ZM71.1057 6.99361C73.0934 7.42498 75.091 7.89148 77.094 8.39564L77.5821 6.45614C75.5572 5.94643 73.5382 5.47495 71.5299 5.0391L71.1057 6.99361ZM83.0292 9.99905C84.9872 10.5652 86.9458 11.1694 88.9006 11.8141L89.527 9.91474C87.5478 9.26205 85.5656 8.65052 83.5847 8.07775L83.0292 9.99905ZM94.6959 13.8516C96.6066 14.5664 98.5096 15.3226 100.401 16.1222L101.18 14.2802C99.2618 13.4692 97.3328 12.7027 95.3967 11.9784L94.6959 13.8516ZM105.999 18.6369C107.841 19.5146 109.666 20.4368 111.473 21.4057L112.418 19.6432C110.583 18.6588 108.729 17.7223 106.86 16.8315L105.999 18.6369ZM116.802 24.4378C118.547 25.4904 120.269 26.5907 121.964 27.7407L123.087 26.0856C121.361 24.915 119.609 23.7956 117.835 22.7252L116.802 24.4378ZM126.935 31.3183C128.551 32.5517 130.137 33.8355 131.69 35.1717L132.995 33.6556C131.411 32.2934 129.795 30.9851 128.149 29.7286L126.935 31.3183ZM136.205 39.2992C137.658 40.7115 139.076 42.1759 140.456 43.6944L141.936 42.3496C140.528 40.7998 139.081 39.3056 137.599 37.8649L136.205 39.2992ZM144.421 48.3466C145.058 49.144 145.686 49.9548 146.302 50.7794L147.904 49.5814C147.274 48.7397 146.634 47.912 145.984 47.098L144.421 48.3466ZM146.302 50.7794C146.924 51.6101 147.53 52.4556 148.121 53.3149L149.769 52.182C149.163 51.3005 148.541 50.4333 147.904 49.5814L146.302 50.7794ZM151.441 58.5963C152.472 60.3996 153.427 62.249 154.296 64.1369L156.113 63.3012C155.219 61.3578 154.236 59.4561 153.177 57.6037L151.441 58.5963ZM156.627 69.9085C157.311 71.8692 157.895 73.8604 158.368 75.8748L160.315 75.4175C159.825 73.3322 159.221 71.2738 158.516 69.2502L156.627 69.9085ZM159.443 81.9853C159.682 84.0338 159.799 86.0977 159.782 88.1697L161.782 88.1859C161.799 86.0279 161.678 83.8812 161.43 81.7538L159.443 81.9853ZM159.329 94.3392C159.045 96.357 158.626 98.3766 158.059 100.391L159.984 100.933C160.576 98.8302 161.014 96.7226 161.309 94.6173L159.329 94.3392ZM155.991 106.223C155.194 108.073 154.261 109.915 153.185 111.743L154.908 112.758C156.027 110.859 156.997 108.942 157.828 107.014L155.991 106.223ZM149.733 116.893C148.524 118.493 147.194 120.079 145.737 121.646L147.201 123.008C148.704 121.392 150.078 119.754 151.329 118.098L149.733 116.893ZM141.288 126.009C139.789 127.355 138.187 128.684 136.476 129.993L137.692 131.581C139.442 130.241 141.085 128.879 142.624 127.497L141.288 126.009ZM131.388 133.614C130.527 134.185 129.642 134.751 128.735 135.313L129.788 137.014C130.712 136.441 131.614 135.863 132.493 135.281L131.388 133.614ZM128.735 135.313C127.957 135.795 127.166 136.261 126.363 136.711L127.341 138.455C128.169 137.991 128.985 137.511 129.788 137.014L128.735 135.313ZM121.449 139.2C119.78 139.96 118.076 140.655 116.345 141.283L117.026 143.163C118.807 142.517 120.561 141.802 122.278 141.02L121.449 139.2ZM111.091 142.958C109.314 143.448 107.521 143.869 105.722 144.216L106.101 146.18C107.953 145.822 109.796 145.39 111.623 144.886L111.091 142.958ZM100.274 145.042C98.4347 145.245 96.5997 145.369 94.7791 145.412L94.8265 147.411C96.7059 147.367 98.5981 147.239 100.492 147.03L100.274 145.042ZM89.2802 145.29C87.4325 145.162 85.6124 144.944 83.8313 144.633L83.4882 146.604C85.34 146.926 87.2284 147.152 89.1416 147.285L89.2802 145.29ZM78.5016 143.39C76.7332 142.866 75.0211 142.238 73.3779 141.503L72.562 143.329C74.2897 144.101 76.0847 144.759 77.9328 145.308L78.5016 143.39ZM68.5877 138.928C67.0588 137.95 65.6156 136.857 64.2717 135.645L62.9327 137.131C64.3613 138.419 65.8922 139.578 67.5098 140.613L68.5877 138.928ZM60.5774 131.688C60.0247 130.982 59.4984 130.247 59.0001 129.482L57.3244 130.574C57.8544 131.388 58.4143 132.17 59.0025 132.921L60.5774 131.688ZM59.0001 129.482C58.4921 128.703 58.0171 127.895 57.5754 127.063L55.8089 128.001C56.2777 128.884 56.7829 129.743 57.3244 130.574L59.0001 129.482ZM55.3552 121.888C54.7567 120.118 54.2864 118.285 53.9463 116.417L51.9786 116.775C52.3355 118.736 52.8298 120.663 53.4606 122.529L55.3552 121.888ZM53.3215 110.795C53.2422 108.906 53.2922 107.012 53.4727 105.139L51.4819 104.947C51.2925 106.913 51.2401 108.899 51.3233 110.879L53.3215 110.795ZM54.417 99.5706C54.8718 97.7268 55.464 95.9355 56.1939 94.2248L54.3543 93.4399C53.58 95.2547 52.9545 97.1487 52.4752 99.0916L54.417 99.5706ZM58.8476 89.2869C59.8857 87.7275 61.0693 86.2838 62.3991 84.9848L61.0015 83.5542C59.566 84.9564 58.294 86.5094 57.1828 88.1786L58.8476 89.2869ZM66.7885 81.5741C68.3331 80.6364 70.015 79.8535 71.8371 79.2522L71.2103 77.353C69.2444 78.0018 67.4246 78.8483 65.7506 79.8645L66.7885 81.5741ZM77.2879 78.0669C79.0539 77.8633 80.9254 77.8075 82.9039 77.9174L83.0149 75.9205C80.9289 75.8046 78.9436 75.8628 77.0588 76.08L77.2879 78.0669ZM88.5221 78.6331C89.4318 78.8105 90.3605 79.0198 91.3083 79.2623L91.8041 77.3247C90.82 77.0729 89.8536 76.8551 88.9048 76.6701L88.5221 78.6331ZM91.3083 79.2623C92.3138 79.5195 93.2896 79.8095 94.2363 80.1307L94.8788 78.2367C93.8829 77.8988 92.8581 77.5944 91.8041 77.3247L91.3083 79.2623ZM99.8105 82.5485C101.626 83.5264 103.311 84.642 104.871 85.8817L106.115 84.3156C104.463 83.0029 102.679 81.8221 100.759 80.7878L99.8105 82.5485ZM109.272 90.0537C110.611 91.5602 111.829 93.1834 112.933 94.9101L114.618 93.8329C113.461 92.0226 112.179 90.3148 110.767 88.7253L109.272 90.0537ZM115.853 100.271C116.695 102.096 117.437 104.002 118.085 105.978L119.986 105.355C119.315 103.311 118.545 101.333 117.668 99.4334L115.853 100.271ZM119.708 111.91C120.149 113.887 120.51 115.914 120.795 117.981L122.777 117.708C122.484 115.59 122.114 113.508 121.66 111.474L119.708 111.91ZM121.416 124.122C121.55 126.158 121.618 128.221 121.625 130.302L123.625 130.296C123.618 128.175 123.548 126.07 123.411 123.99L121.416 124.122ZM121.468 136.493C121.358 138.547 121.194 140.608 120.977 142.669L122.966 142.878C123.186 140.784 123.354 138.689 123.465 136.6L121.468 136.493ZM120.178 148.817C119.862 150.864 119.497 152.901 119.088 154.92L121.048 155.318C121.463 153.268 121.833 151.2 122.155 149.122L120.178 148.817ZM117.715 160.97C117.207 162.994 116.655 164.99 116.064 166.948L117.978 167.526C118.579 165.538 119.139 163.512 119.655 161.457L117.715 160.97ZM114.129 172.833C113.779 173.813 113.42 174.78 113.052 175.733L114.917 176.454C115.292 175.485 115.657 174.501 116.013 173.505L114.129 172.833ZM113.052 175.733C112.709 176.62 112.328 177.502 111.912 178.379L113.718 179.237C114.155 178.318 114.556 177.39 114.917 176.454L113.052 175.733ZM109.097 183.434C108.072 185.042 106.942 186.624 105.727 188.175L107.302 189.408C108.552 187.812 109.72 186.177 110.784 184.509L109.097 183.434ZM101.946 192.623C100.635 194.054 99.2645 195.45 97.8534 196.808L99.2403 198.249C100.679 196.865 102.079 195.439 103.42 193.974L101.946 192.623ZM93.5201 200.76C92.0273 202.054 90.5126 203.303 88.9953 204.504L90.2364 206.072C91.775 204.854 93.3127 203.586 94.8298 202.272L93.5201 200.76ZM84.3154 208.058C82.6839 209.249 81.0739 210.378 79.5105 211.438L80.6328 213.093C82.2138 212.021 83.8429 210.88 85.4946 209.674L84.3154 208.058ZM74.5756 214.667C72.7643 215.811 71.0725 216.837 69.5516 217.732L70.5661 219.455C72.1035 218.55 73.8132 217.514 75.6438 216.358L74.5756 214.667Z" fill="#5089EC"/>
</svg>
