<svg width="78" height="79" viewBox="0 0 78 79" fill="none" xmlns="http://www.w3.org/2000/svg">
<path d="M63.9672 54.405C61.2794 54.405 59.0938 52.2191 59.0938 49.5314C59.0938 46.8436 61.2796 44.6577 63.9672 44.6577C66.6552 44.6577 68.8407 46.8436 68.8407 49.5314C68.8407 52.2191 66.655 54.405 63.9672 54.405ZM63.9672 45.8761C61.9517 45.8761 60.3122 47.5156 60.3122 49.5312C60.3122 51.5468 61.9517 53.1864 63.9672 53.1864C65.9827 53.1864 67.6224 51.5468 67.6224 49.5312C67.6224 47.5156 65.9827 45.8761 63.9672 45.8761Z" fill="#155DDD"/>
<path d="M71.8859 50.1399C71.8058 50.14 71.7266 50.1242 71.6527 50.0936C71.5787 50.063 71.5116 50.0182 71.455 49.9616C71.3984 49.905 71.3535 49.8378 71.3229 49.7639C71.2923 49.6899 71.2766 49.6107 71.2766 49.5307C71.2766 45.5006 67.9976 42.2213 63.9664 42.2213C63.8864 42.2213 63.8072 42.2056 63.7332 42.175C63.6593 42.1444 63.5921 42.0995 63.5355 42.0429C63.479 41.9863 63.4341 41.9191 63.4035 41.8452C63.3729 41.7713 63.3572 41.692 63.3572 41.612C63.3572 41.532 63.3729 41.4528 63.4035 41.3788C63.4341 41.3049 63.479 41.2377 63.5356 41.1812C63.5921 41.1246 63.6593 41.0797 63.7332 41.0492C63.8072 41.0186 63.8864 41.0028 63.9664 41.0029C68.6687 41.0029 72.4951 44.8283 72.4951 49.5307C72.4951 49.6107 72.4794 49.6899 72.4488 49.7639C72.4182 49.8378 72.3733 49.905 72.3167 49.9616C72.2602 50.0182 72.193 50.063 72.119 50.0936C72.0451 50.1242 71.9659 50.14 71.8859 50.1399ZM63.9664 58.0607C59.2643 58.0607 55.4379 54.2342 55.4379 49.5319C55.4379 49.4519 55.4536 49.3726 55.4842 49.2987C55.5148 49.2248 55.5597 49.1576 55.6163 49.101C55.6728 49.0444 55.74 48.9995 55.8139 48.9689C55.8879 48.9383 55.9671 48.9226 56.0471 48.9227C56.1271 48.9226 56.2064 48.9383 56.2803 48.969C56.3542 48.9996 56.4214 49.0444 56.478 49.101C56.5345 49.1576 56.5794 49.2248 56.61 49.2987C56.6405 49.3727 56.6563 49.4519 56.6562 49.5319C56.6562 53.5632 59.9354 56.8424 63.9664 56.8424C64.0464 56.8424 64.1257 56.8581 64.1996 56.8887C64.2735 56.9193 64.3407 56.9642 64.3973 57.0208C64.4539 57.0773 64.4987 57.1445 64.5293 57.2184C64.56 57.2924 64.5757 57.3716 64.5756 57.4516C64.5757 57.5317 64.56 57.6109 64.5293 57.6848C64.4987 57.7587 64.4539 57.8259 64.3973 57.8825C64.3407 57.939 64.2735 57.9839 64.1996 58.0145C64.1257 58.0451 64.0464 58.0608 63.9664 58.0607ZM64.0033 50.141C63.6666 50.141 63.3881 49.8684 63.3881 49.5317C63.3881 49.1951 63.6547 48.9225 63.9902 48.9225H64.0033C64.3387 48.9225 64.6125 49.1951 64.6125 49.5317C64.6125 49.8684 64.3387 50.141 64.0033 50.141ZM46.946 35.52C46.6093 35.52 46.331 35.2474 46.331 34.9107C46.331 34.5741 46.5974 34.3015 46.9329 34.3015H46.946C47.1075 34.3016 47.2624 34.3659 47.3766 34.4801C47.4908 34.5943 47.5551 34.7492 47.5552 34.9107C47.5551 35.0723 47.4908 35.2272 47.3766 35.3414C47.2624 35.4556 47.1075 35.5199 46.946 35.52ZM63.9664 31.8647C63.8864 31.8647 63.8072 31.849 63.7332 31.8184C63.6593 31.7878 63.5921 31.7429 63.5355 31.6863C63.479 31.6297 63.4341 31.5626 63.4035 31.4886C63.3729 31.4147 63.3572 31.3354 63.3572 31.2554V17.8526C63.3572 17.5159 63.6297 17.2434 63.9664 17.2434C64.3031 17.2434 64.5756 17.5159 64.5756 17.8526V31.2554C64.5757 31.3354 64.56 31.4147 64.5293 31.4886C64.4987 31.5626 64.4539 31.6297 64.3973 31.6863C64.3407 31.7429 64.2735 31.7878 64.1996 31.8184C64.1257 31.849 64.0464 31.8647 63.9664 31.8647ZM3.08376 17.8528C2.74769 17.8528 2.46875 17.5804 2.46875 17.2435C2.46875 16.9067 2.7352 16.6343 3.07203 16.6343H3.08376C3.42059 16.6343 3.69298 16.9067 3.69298 17.2435C3.69298 17.5804 3.42059 17.8528 3.08376 17.8528ZM5.5205 17.8528C5.18443 17.8528 4.90549 17.5804 4.90549 17.2435C4.90549 16.9067 5.17194 16.6343 5.50862 16.6343H5.5205C5.85733 16.6343 6.12972 16.9067 6.12972 17.2435C6.12972 17.5804 5.85733 17.8528 5.5205 17.8528ZM7.95724 17.8528C7.62117 17.8528 7.34223 17.5804 7.34223 17.2435C7.34223 16.9067 7.60868 16.6343 7.94536 16.6343H7.95724C8.29407 16.6343 8.56646 16.9067 8.56646 17.2435C8.56646 17.5804 8.29407 17.8528 7.95724 17.8528Z" fill="#155DDD"/>
<path d="M63.9686 19.073H0.613129C0.533113 19.073 0.453875 19.0573 0.379942 19.0267C0.30601 18.9961 0.238834 18.9512 0.182254 18.8946C0.125675 18.838 0.0808012 18.7708 0.0501991 18.6969C0.019597 18.623 0.00386628 18.5437 0.00390633 18.4637V17.2452C0.00390633 16.2374 0.823668 15.4175 1.83142 15.4175H62.7503C63.7581 15.4175 64.5779 16.2373 64.5779 17.2452V18.4637C64.5779 18.5437 64.5622 18.623 64.5316 18.6969C64.501 18.7708 64.4561 18.838 64.3995 18.8946C64.3429 18.9512 64.2757 18.9961 64.2018 19.0267C64.1279 19.0573 64.0486 19.073 63.9686 19.073ZM1.2222 17.8545H63.3594V17.2452C63.3594 16.9145 63.0811 16.636 62.7503 16.636H1.83142C1.66991 16.6362 1.51507 16.7004 1.40086 16.8146C1.28665 16.9289 1.2224 17.0837 1.2222 17.2452V17.8545Z" fill="#155DDD"/>
<path d="M0.613129 64.1532C0.533113 64.1532 0.453875 64.1375 0.379942 64.1069C0.30601 64.0763 0.238834 64.0314 0.182254 63.9748C0.125675 63.9182 0.0808012 63.851 0.0501991 63.7771C0.019597 63.7032 0.00386628 63.6239 0.00390633 63.5439V18.4623C0.00386628 18.3823 0.019597 18.303 0.0501991 18.2291C0.0808012 18.1551 0.125675 18.088 0.182254 18.0314C0.238834 17.9748 0.30601 17.9299 0.379942 17.8993C0.453875 17.8687 0.533113 17.853 0.613129 17.853C0.693137 17.853 0.772369 17.8687 0.846293 17.8993C0.920217 17.9299 0.987383 17.9748 1.04395 18.0314C1.10052 18.088 1.14538 18.1552 1.17596 18.2291C1.20655 18.303 1.22226 18.3823 1.2222 18.4623V63.5439C1.22226 63.6239 1.20655 63.7032 1.17596 63.7771C1.14538 63.851 1.10052 63.9182 1.04395 63.9748C0.987383 64.0314 0.920217 64.0763 0.846293 64.1069C0.772369 64.1375 0.693137 64.1532 0.613129 64.1532Z" fill="#155DDD"/>
<path d="M57.8748 64.1556H0.611176C0.274344 64.1556 0.00195312 63.8831 0.00195312 63.5464C0.00195312 63.2097 0.274344 62.9371 0.611176 62.9371H57.8749C58.2116 62.9371 58.484 63.2097 58.484 63.5464C58.484 63.8831 58.2114 64.1556 57.8748 64.1556Z" fill="#155DDD"/>
<path d="M3.04672 64.1532C2.96671 64.1532 2.88747 64.1375 2.81354 64.1069C2.7396 64.0763 2.67243 64.0314 2.61585 63.9748C2.55927 63.9182 2.5144 63.851 2.48379 63.7771C2.45319 63.7032 2.43746 63.6239 2.4375 63.5439V18.4623C2.43746 18.3823 2.45319 18.303 2.48379 18.2291C2.5144 18.1551 2.55927 18.088 2.61585 18.0314C2.67243 17.9748 2.7396 17.9299 2.81354 17.8993C2.88747 17.8687 2.96671 17.853 3.04672 17.853C3.12673 17.853 3.20596 17.8687 3.27989 17.8993C3.35381 17.9299 3.42098 17.9748 3.47754 18.0314C3.53411 18.088 3.57897 18.1552 3.60956 18.2291C3.64014 18.303 3.65585 18.3823 3.65579 18.4623V63.5439C3.65585 63.6239 3.64014 63.7032 3.60956 63.7771C3.57897 63.851 3.53411 63.9182 3.47754 63.9748C3.42098 64.0314 3.35381 64.0763 3.27989 64.1069C3.20596 64.1375 3.12673 64.1532 3.04672 64.1532Z" fill="#155DDD"/>
<path d="M1.83142 23.9446H0.613129C0.276297 23.9446 0.00390642 23.672 0.00390642 23.3353C0.00390642 22.9986 0.276297 22.7261 0.613129 22.7261H1.83142C2.1681 22.7261 2.44064 22.9986 2.44064 23.3353C2.44064 23.672 2.1681 23.9446 1.83142 23.9446ZM1.83142 27.5997H0.613129C0.276297 27.5997 0.00390642 27.3273 0.00390642 26.9905C0.00390642 26.6536 0.276297 26.3812 0.613129 26.3812H1.83142C2.1681 26.3812 2.44064 26.6536 2.44064 26.9905C2.44064 27.3273 2.1681 27.5997 1.83142 27.5997ZM1.83142 31.2552H0.613129C0.533113 31.2553 0.453875 31.2395 0.379942 31.2089C0.30601 31.1783 0.238834 31.1334 0.182254 31.0769C0.125675 31.0203 0.0808013 30.9531 0.0501992 30.8792C0.0195971 30.8052 0.00386637 30.726 0.00390642 30.646C0.00386637 30.566 0.0195971 30.4867 0.0501992 30.4128C0.0808013 30.3388 0.125675 30.2717 0.182254 30.2151C0.238834 30.1585 0.30601 30.1136 0.379942 30.083C0.453875 30.0524 0.533113 30.0367 0.613129 30.0367H1.83142C1.91144 30.0367 1.99068 30.0524 2.06461 30.083C2.13854 30.1136 2.20572 30.1585 2.2623 30.2151C2.31888 30.2717 2.36375 30.3388 2.39435 30.4128C2.42495 30.4867 2.44068 30.566 2.44064 30.646C2.44068 30.726 2.42495 30.8052 2.39435 30.8792C2.36375 30.9531 2.31888 31.0203 2.2623 31.0769C2.20572 31.1334 2.13854 31.1783 2.06461 31.2089C1.99068 31.2395 1.91144 31.2553 1.83142 31.2552ZM1.83142 34.9104H0.613129C0.533108 34.9104 0.45386 34.8947 0.379919 34.8641C0.305977 34.8335 0.238793 34.7887 0.18221 34.7321C0.125626 34.6755 0.0807533 34.6083 0.0501583 34.5344C0.0195633 34.4604 0.00384632 34.3812 0.00390642 34.3011C0.00386637 34.2211 0.0195971 34.1419 0.0501992 34.0679C0.0808013 33.994 0.125675 33.9268 0.182254 33.8703C0.238834 33.8137 0.30601 33.7688 0.379942 33.7382C0.453875 33.7076 0.533113 33.6919 0.613129 33.6919H1.83142C1.91144 33.6919 1.99068 33.7076 2.06461 33.7382C2.13854 33.7688 2.20572 33.8137 2.2623 33.8703C2.31888 33.9268 2.36375 33.994 2.39435 34.0679C2.42495 34.1419 2.44068 34.2211 2.44064 34.3011C2.44068 34.3812 2.42495 34.4604 2.39435 34.5343C2.36375 34.6083 2.31888 34.6755 2.2623 34.732C2.20572 34.7886 2.13854 34.8335 2.06461 34.8641C1.99068 34.8947 1.91144 34.9104 1.83142 34.9104ZM1.83142 38.5656H0.613129C0.533113 38.5656 0.453875 38.5499 0.379942 38.5193C0.30601 38.4887 0.238834 38.4438 0.182254 38.3872C0.125675 38.3306 0.0808013 38.2634 0.0501992 38.1895C0.0195971 38.1156 0.00386637 38.0363 0.00390642 37.9563C0.00386637 37.8763 0.0195971 37.7971 0.0501992 37.7231C0.0808013 37.6492 0.125675 37.582 0.182254 37.5254C0.238834 37.4688 0.30601 37.424 0.379942 37.3934C0.453875 37.3628 0.533113 37.347 0.613129 37.3471H1.83142C1.91144 37.347 1.99068 37.3628 2.06461 37.3934C2.13854 37.424 2.20572 37.4688 2.2623 37.5254C2.31888 37.582 2.36375 37.6492 2.39435 37.7231C2.42495 37.7971 2.44068 37.8763 2.44064 37.9563C2.44068 38.0363 2.42495 38.1156 2.39435 38.1895C2.36375 38.2634 2.31888 38.3306 2.2623 38.3872C2.20572 38.4438 2.13854 38.4887 2.06461 38.5193C1.99068 38.5499 1.91144 38.5656 1.83142 38.5656ZM1.83142 42.2209H0.613129C0.533108 42.2209 0.45386 42.2052 0.379919 42.1746C0.305977 42.144 0.238793 42.0992 0.18221 42.0426C0.125626 41.986 0.0807533 41.9188 0.0501583 41.8449C0.0195633 41.7709 0.00384632 41.6917 0.00390642 41.6116C0.00386635 41.5316 0.0195981 41.4524 0.0502021 41.3785C0.0808061 41.3045 0.125682 41.2374 0.182263 41.1808C0.238845 41.1242 0.306022 41.0794 0.379954 41.0488C0.453885 41.0182 0.533121 41.0025 0.613129 41.0025H1.83142C1.91143 41.0025 1.99067 41.0182 2.0646 41.0488C2.13853 41.0794 2.20571 41.1242 2.26229 41.1808C2.31887 41.2374 2.36374 41.3045 2.39435 41.3785C2.42495 41.4524 2.44068 41.5316 2.44064 41.6116C2.44068 41.6917 2.42495 41.7709 2.39435 41.8448C2.36375 41.9188 2.31888 41.986 2.2623 42.0425C2.20572 42.0991 2.13854 42.144 2.06461 42.1746C1.99068 42.2052 1.91144 42.2209 1.83142 42.2209ZM1.83142 45.8762H0.613129C0.276297 45.8762 0.00390642 45.6037 0.00390642 45.267C0.00390642 44.9303 0.276297 44.6577 0.613129 44.6577H1.83142C2.1681 44.6577 2.44064 44.9303 2.44064 45.267C2.44064 45.6037 2.1681 45.8762 1.83142 45.8762ZM1.83142 49.5314H0.613129C0.276297 49.5314 0.00390642 49.2588 0.00390642 48.9221C0.00390642 48.5854 0.276297 48.3129 0.613129 48.3129H1.83142C2.1681 48.3129 2.44064 48.5854 2.44064 48.9221C2.44064 49.2588 2.1681 49.5314 1.83142 49.5314ZM1.83142 53.1867H0.613129C0.533121 53.1868 0.453885 53.1711 0.379954 53.1405C0.306022 53.1099 0.238845 53.065 0.182263 53.0085C0.125682 52.9519 0.0808061 52.8847 0.0502021 52.8108C0.0195981 52.7369 0.00386635 52.6576 0.00390642 52.5776C0.00384632 52.4976 0.0195633 52.4183 0.0501583 52.3444C0.0807533 52.2705 0.125626 52.2033 0.18221 52.1467C0.238793 52.0901 0.305977 52.0452 0.379919 52.0146C0.45386 51.984 0.533108 51.9683 0.613129 51.9684H1.83142C1.91144 51.9683 1.99068 51.9841 2.06461 52.0147C2.13854 52.0453 2.20572 52.0901 2.2623 52.1467C2.31888 52.2033 2.36375 52.2705 2.39435 52.3444C2.42495 52.4184 2.44068 52.4976 2.44064 52.5776C2.44068 52.6576 2.42495 52.7369 2.39435 52.8108C2.36374 52.8847 2.31887 52.9519 2.26229 53.0085C2.20571 53.065 2.13853 53.1099 2.0646 53.1405C1.99067 53.1711 1.91143 53.1868 1.83142 53.1867ZM1.83142 56.842H0.613129C0.533108 56.8421 0.45386 56.8264 0.379919 56.7958C0.305977 56.7652 0.238793 56.7203 0.18221 56.6637C0.125626 56.6071 0.0807533 56.54 0.0501583 56.466C0.0195633 56.3921 0.00384632 56.3128 0.00390642 56.2328C0.00386635 56.1528 0.0195981 56.0735 0.0502021 55.9996C0.0808061 55.9257 0.125682 55.8585 0.182263 55.802C0.238845 55.7454 0.306022 55.7005 0.379954 55.6699C0.453885 55.6394 0.533121 55.6236 0.613129 55.6237H1.83142C1.91143 55.6236 1.99067 55.6394 2.0646 55.6699C2.13853 55.7005 2.20571 55.7454 2.26229 55.802C2.31887 55.8585 2.36374 55.9257 2.39435 55.9996C2.42495 56.0735 2.44068 56.1528 2.44064 56.2328C2.44068 56.3128 2.42495 56.392 2.39435 56.466C2.36375 56.5399 2.31888 56.6071 2.2623 56.6637C2.20572 56.7203 2.13854 56.7651 2.06461 56.7957C1.99068 56.8263 1.91144 56.8421 1.83142 56.842ZM1.83142 60.4972H0.613129C0.533108 60.4973 0.45386 60.4816 0.379919 60.451C0.305977 60.4204 0.238793 60.3755 0.18221 60.3189C0.125626 60.2623 0.0807533 60.1951 0.0501583 60.1212C0.0195633 60.0472 0.00384632 59.968 0.00390642 59.888C0.00386635 59.808 0.0195981 59.7287 0.0502021 59.6548C0.0808061 59.5809 0.125682 59.5137 0.182263 59.4571C0.238845 59.4006 0.306022 59.3557 0.379954 59.3251C0.453885 59.2945 0.533121 59.2788 0.613129 59.2789H1.83142C1.91143 59.2788 1.99067 59.2945 2.0646 59.3251C2.13853 59.3557 2.20571 59.4006 2.26229 59.4571C2.31887 59.5137 2.36374 59.5809 2.39435 59.6548C2.42495 59.7287 2.44068 59.808 2.44064 59.888C2.44068 59.968 2.42495 60.0472 2.39435 60.1212C2.36375 60.1951 2.31888 60.2623 2.2623 60.3189C2.20572 60.3754 2.13854 60.4203 2.06461 60.4509C1.99068 60.4815 1.91144 60.4972 1.83142 60.4972ZM11.5784 23.9446H6.7049C6.36822 23.9446 6.09567 23.672 6.09567 23.3353C6.09567 22.9986 6.36822 22.7261 6.7049 22.7261H11.5784C11.9151 22.7261 12.1876 22.9986 12.1876 23.3353C12.1876 23.672 11.9151 23.9446 11.5784 23.9446ZM37.1642 27.5997H16.4519C16.1152 27.5997 15.8426 27.3273 15.8426 26.9905C15.8426 26.6536 16.1152 26.3812 16.4519 26.3812H37.1642C37.501 26.3812 37.7734 26.6536 37.7734 26.9905C37.7734 27.3273 37.501 27.5997 37.1642 27.5997ZM14.0151 27.5997H7.92334C7.58651 27.5997 7.31412 27.3273 7.31412 26.9905C7.31412 26.6536 7.58651 26.3812 7.92334 26.3812H14.0151C14.3518 26.3812 14.6243 26.6536 14.6243 26.9905C14.6243 27.3273 14.3518 27.5997 14.0151 27.5997ZM34.7275 31.2552H31.0724C30.9924 31.2553 30.9132 31.2395 30.8392 31.2089C30.7653 31.1783 30.6981 31.1334 30.6416 31.0769C30.585 31.0203 30.5401 30.9531 30.5095 30.8792C30.4789 30.8052 30.4632 30.726 30.4632 30.646C30.4632 30.566 30.4789 30.4867 30.5095 30.4128C30.5401 30.3388 30.585 30.2717 30.6416 30.2151C30.6981 30.1585 30.7653 30.1136 30.8392 30.083C30.9132 30.0524 30.9924 30.0367 31.0724 30.0367H34.7275C34.8075 30.0367 34.8867 30.0524 34.9606 30.083C35.0346 30.1136 35.1018 30.1585 35.1583 30.2151C35.2149 30.2717 35.2598 30.3388 35.2904 30.4128C35.321 30.4867 35.3367 30.566 35.3367 30.646C35.3367 30.726 35.321 30.8052 35.2904 30.8792C35.2598 30.9531 35.2149 31.0203 35.1583 31.0769C35.1018 31.1334 35.0346 31.1783 34.9606 31.2089C34.8867 31.2395 34.8075 31.2553 34.7275 31.2552ZM28.6357 31.2552H9.14164C9.06162 31.2553 8.98238 31.2395 8.90845 31.2089C8.83452 31.1783 8.76734 31.1334 8.71076 31.0769C8.65418 31.0203 8.60931 30.9531 8.57871 30.8792C8.5481 30.8052 8.53237 30.726 8.53241 30.646C8.53237 30.566 8.5481 30.4867 8.57871 30.4128C8.60931 30.3388 8.65418 30.2717 8.71076 30.2151C8.76734 30.1585 8.83452 30.1136 8.90845 30.083C8.98238 30.0524 9.06162 30.0367 9.14164 30.0367H28.6357C28.7157 30.0367 28.7949 30.0524 28.8689 30.083C28.9428 30.1136 29.01 30.1585 29.0666 30.2151C29.1231 30.2717 29.168 30.3388 29.1986 30.4128C29.2292 30.4867 29.245 30.566 29.2449 30.646C29.245 30.726 29.2292 30.8052 29.1986 30.8792C29.168 30.9531 29.1231 31.0203 29.0666 31.0769C29.01 31.1334 28.9428 31.1783 28.8689 31.2089C28.7949 31.2395 28.7157 31.2553 28.6357 31.2552ZM12.7967 38.5656H9.14164C9.06162 38.5656 8.98238 38.5499 8.90845 38.5193C8.83452 38.4887 8.76734 38.4438 8.71076 38.3872C8.65418 38.3306 8.60931 38.2634 8.57871 38.1895C8.5481 38.1156 8.53237 38.0363 8.53241 37.9563C8.53237 37.8763 8.5481 37.7971 8.57871 37.7231C8.60931 37.6492 8.65418 37.582 8.71076 37.5254C8.76734 37.4688 8.83452 37.424 8.90845 37.3934C8.98238 37.3628 9.06162 37.347 9.14164 37.3471H12.7967C12.8767 37.347 12.9559 37.3628 13.0299 37.3934C13.1038 37.424 13.171 37.4688 13.2275 37.5254C13.2841 37.582 13.329 37.6492 13.3596 37.7231C13.3902 37.7971 13.4059 37.8763 13.4059 37.9563C13.4059 38.0363 13.3902 38.1156 13.3596 38.1895C13.329 38.2635 13.2842 38.3307 13.2276 38.3873C13.171 38.4438 13.1038 38.4887 13.0299 38.5193C12.9559 38.5499 12.8767 38.5656 12.7967 38.5656ZM33.3187 38.5656H15.2334C15.1534 38.5656 15.0742 38.5499 15.0002 38.5193C14.9263 38.4887 14.8592 38.4438 14.8026 38.3872C14.746 38.3306 14.7012 38.2634 14.6706 38.1895C14.64 38.1156 14.6243 38.0363 14.6243 37.9563C14.6243 37.8763 14.64 37.7971 14.6706 37.7231C14.7012 37.6492 14.746 37.582 14.8026 37.5254C14.8592 37.4689 14.9263 37.424 15.0002 37.3934C15.0742 37.3628 15.1534 37.347 15.2334 37.3471H33.3187C33.3988 37.347 33.478 37.3628 33.5519 37.3934C33.6259 37.424 33.693 37.4688 33.7496 37.5254C33.8062 37.582 33.8511 37.6492 33.8817 37.7231C33.9123 37.7971 33.928 37.8763 33.928 37.9563C33.928 38.0363 33.9123 38.1156 33.8817 38.1895C33.8511 38.2634 33.8062 38.3306 33.7496 38.3872C33.693 38.4438 33.6259 38.4887 33.5519 38.5193C33.478 38.5499 33.3988 38.5656 33.3187 38.5656ZM12.7967 53.1867H9.14164C9.06163 53.1868 8.98239 53.1711 8.90846 53.1405C8.83453 53.1099 8.76735 53.065 8.71077 53.0085C8.65419 52.9519 8.60931 52.8847 8.57871 52.8108C8.54811 52.7369 8.53237 52.6576 8.53241 52.5776C8.53237 52.4976 8.5481 52.4184 8.57871 52.3444C8.60931 52.2705 8.65418 52.2033 8.71076 52.1467C8.76734 52.0901 8.83452 52.0453 8.90845 52.0147C8.98238 51.9841 9.06162 51.9683 9.14164 51.9684H12.7967C12.8767 51.9683 12.9559 51.984 13.0299 52.0146C13.1038 52.0452 13.171 52.0901 13.2276 52.1467C13.2842 52.2033 13.329 52.2705 13.3596 52.3444C13.3902 52.4183 13.4059 52.4976 13.4059 52.5776C13.4059 52.6576 13.3902 52.7369 13.3596 52.8108C13.329 52.8847 13.2841 52.9519 13.2275 53.0085C13.171 53.065 13.1038 53.1099 13.0298 53.1405C12.9559 53.1711 12.8767 53.1868 12.7967 53.1867ZM32.1004 53.1867H15.2334C15.1534 53.1868 15.0742 53.1711 15.0003 53.1405C14.9263 53.1099 14.8592 53.065 14.8026 53.0084C14.746 52.9519 14.7012 52.8847 14.6706 52.8108C14.64 52.7369 14.6243 52.6576 14.6243 52.5776C14.6243 52.4976 14.64 52.4184 14.6706 52.3444C14.7012 52.2705 14.746 52.2033 14.8026 52.1467C14.8592 52.0902 14.9263 52.0453 15.0002 52.0147C15.0742 51.9841 15.1534 51.9683 15.2334 51.9684H32.1004C32.1805 51.9683 32.2597 51.9841 32.3336 52.0147C32.4075 52.0453 32.4747 52.0902 32.5313 52.1467C32.5878 52.2033 32.6327 52.2705 32.6633 52.3444C32.6939 52.4184 32.7096 52.4976 32.7095 52.5776C32.7096 52.6576 32.6939 52.7369 32.6633 52.8108C32.6327 52.8847 32.5878 52.9519 32.5313 53.0084C32.4747 53.065 32.4075 53.1099 32.3336 53.1405C32.2597 53.1711 32.1804 53.1868 32.1004 53.1867ZM26.199 34.9104H10.3599C10.2799 34.9104 10.2007 34.8947 10.1268 34.8641C10.0528 34.8335 9.98567 34.7886 9.92911 34.732C9.87254 34.6754 9.82768 34.6083 9.7971 34.5343C9.76651 34.4604 9.7508 34.3812 9.75086 34.3011C9.7508 34.2211 9.76651 34.1419 9.7971 34.068C9.82768 33.994 9.87254 33.9268 9.92911 33.8703C9.98567 33.8137 10.0528 33.7688 10.1268 33.7382C10.2007 33.7076 10.2799 33.6919 10.3599 33.6919H26.199C26.279 33.6919 26.3582 33.7076 26.4321 33.7382C26.5061 33.7688 26.5732 33.8137 26.6298 33.8703C26.6864 33.9268 26.7313 33.994 26.7619 34.0679C26.7925 34.1419 26.8082 34.2211 26.8082 34.3011C26.8082 34.3812 26.7925 34.4604 26.7619 34.5343C26.7313 34.6083 26.6864 34.6755 26.6298 34.732C26.5732 34.7886 26.5061 34.8335 26.4321 34.8641C26.3582 34.8947 26.279 34.9104 26.199 34.9104ZM37.1642 42.2209H24.9804C24.9003 42.2209 24.8211 42.2052 24.7472 42.1746C24.6733 42.144 24.6061 42.0991 24.5495 42.0425C24.493 41.9859 24.4481 41.9188 24.4175 41.8448C24.3869 41.7709 24.3712 41.6917 24.3713 41.6116C24.3712 41.5316 24.3869 41.4524 24.4175 41.3785C24.4481 41.3046 24.493 41.2374 24.5495 41.1808C24.6061 41.1242 24.6733 41.0794 24.7472 41.0488C24.8211 41.0182 24.9004 41.0025 24.9804 41.0025H37.1642C37.2442 41.0025 37.3234 41.0182 37.3974 41.0488C37.4713 41.0794 37.5385 41.1242 37.5951 41.1808C37.6516 41.2374 37.6965 41.3045 37.7271 41.3785C37.7577 41.4524 37.7735 41.5316 37.7734 41.6116C37.7735 41.6917 37.7578 41.7709 37.7272 41.8449C37.6966 41.9188 37.6517 41.986 37.5951 42.0426C37.5385 42.0992 37.4714 42.144 37.3974 42.1746C37.3235 42.2052 37.2442 42.2209 37.1642 42.2209ZM27.4172 45.8762H7.92334C7.58651 45.8762 7.31412 45.6037 7.31412 45.267C7.31412 44.9303 7.58651 44.6577 7.92334 44.6577H27.4172C27.7541 44.6577 28.0265 44.9303 28.0265 45.267C28.0265 45.6037 27.7541 45.8762 27.4172 45.8762ZM21.3255 56.842H7.92334C7.84332 56.8421 7.76407 56.8264 7.69013 56.7958C7.61619 56.7652 7.54901 56.7203 7.49242 56.6637C7.43584 56.6071 7.39097 56.54 7.36037 56.466C7.32978 56.3921 7.31406 56.3128 7.31412 56.2328C7.31408 56.1528 7.32981 56.0735 7.36042 55.9996C7.39102 55.9257 7.4359 55.8585 7.49248 55.802C7.54906 55.7454 7.61624 55.7005 7.69017 55.6699C7.7641 55.6394 7.84333 55.6236 7.92334 55.6237H21.3255C21.4055 55.6236 21.4847 55.6394 21.5587 55.6699C21.6326 55.7005 21.6998 55.7454 21.7563 55.802C21.8129 55.8585 21.8578 55.9257 21.8884 55.9996C21.919 56.0735 21.9347 56.1528 21.9347 56.2328C21.9347 56.3128 21.919 56.392 21.8884 56.466C21.8578 56.5399 21.8129 56.6071 21.7564 56.6637C21.6998 56.7203 21.6326 56.7651 21.5587 56.7957C21.4847 56.8263 21.4055 56.8421 21.3255 56.842ZM42.0378 49.5314H23.7622C23.4255 49.5314 23.153 49.2588 23.153 48.9221C23.153 48.5854 23.4255 48.3129 23.7622 48.3129H42.0378C42.3747 48.3129 42.647 48.5854 42.647 48.9221C42.647 49.2588 42.3747 49.5314 42.0378 49.5314ZM21.3255 49.5314H9.14164C8.80496 49.5314 8.53241 49.2588 8.53241 48.9221C8.53241 48.5854 8.80496 48.3129 9.14164 48.3129H21.3255C21.6622 48.3129 21.9347 48.5854 21.9347 48.9221C21.9347 49.2588 21.6622 49.5314 21.3255 49.5314ZM11.5784 60.4972H6.7049C6.62488 60.4972 6.54564 60.4815 6.47171 60.4509C6.39778 60.4203 6.3306 60.3754 6.27402 60.3189C6.21744 60.2623 6.17257 60.1951 6.14197 60.1212C6.11137 60.0472 6.09563 59.968 6.09567 59.888C6.09563 59.808 6.11137 59.7287 6.14197 59.6548C6.17257 59.5809 6.21745 59.5137 6.27403 59.4571C6.33061 59.4006 6.39779 59.3557 6.47172 59.3251C6.54565 59.2945 6.62489 59.2788 6.7049 59.2789H11.5784C11.6584 59.2788 11.7376 59.2945 11.8115 59.3251C11.8855 59.3557 11.9527 59.4006 12.0092 59.4571C12.0658 59.5137 12.1107 59.5809 12.1413 59.6548C12.1719 59.7287 12.1876 59.808 12.1876 59.888C12.1876 59.968 12.1719 60.0472 12.1413 60.1212C12.1107 60.1951 12.0658 60.2623 12.0092 60.3189C11.9527 60.3754 11.8855 60.4203 11.8116 60.4509C11.7376 60.4815 11.6584 60.4972 11.5784 60.4972ZM39.6011 45.8762H29.8541C29.5175 45.8762 29.2451 45.6037 29.2451 45.267C29.2451 44.9303 29.5175 44.6577 29.8541 44.6577H39.6011C39.9379 44.6577 40.2103 44.9303 40.2103 45.267C40.2103 45.6037 39.9378 45.8762 39.6011 45.8762ZM22.5438 42.2209H9.14164C9.06162 42.2209 8.98238 42.2052 8.90845 42.1746C8.83452 42.144 8.76734 42.0991 8.71076 42.0425C8.65418 41.986 8.60931 41.9188 8.57871 41.8448C8.5481 41.7709 8.53237 41.6917 8.53241 41.6116C8.53237 41.5316 8.54811 41.4524 8.57871 41.3785C8.60931 41.3045 8.65419 41.2374 8.71077 41.1808C8.76735 41.1242 8.83453 41.0794 8.90846 41.0488C8.98239 41.0182 9.06163 41.0025 9.14164 41.0025H22.5438C22.6238 41.0025 22.703 41.0182 22.7769 41.0488C22.8509 41.0794 22.9181 41.1242 22.9746 41.1808C23.0312 41.2374 23.0761 41.3045 23.1067 41.3785C23.1373 41.4524 23.153 41.5316 23.153 41.6116C23.1531 41.6917 23.1373 41.7709 23.1067 41.8449C23.0761 41.9188 23.0313 41.986 22.9747 42.0426C22.9181 42.0992 22.8509 42.144 22.777 42.1746C22.703 42.2052 22.6238 42.2209 22.5438 42.2209Z" fill="#155DDD"/>
<path d="M66.4045 64.152H61.531C61.451 64.152 61.3717 64.1363 61.2978 64.1057C61.2239 64.0751 61.1567 64.0302 61.1001 63.9736C61.0435 63.917 60.9987 63.8499 60.9681 63.7759C60.9375 63.702 60.9217 63.6227 60.9218 63.5427V60.6918C58.999 60.1682 57.2549 59.1592 55.8318 57.7469L53.2892 59.214C52.9965 59.3819 52.6241 59.283 52.4576 58.9914L50.0208 54.7698C49.9807 54.7006 49.9546 54.6242 49.944 54.5449C49.9335 54.4656 49.9387 54.385 49.9594 54.3077C49.9801 54.2305 50.0158 54.1581 50.0645 54.0946C50.1133 54.0312 50.174 53.978 50.2434 53.9381L52.7729 52.477C52.2673 50.5463 52.2669 48.518 52.7717 46.5871L50.2422 45.1259C50.1728 45.0861 50.112 45.0329 50.0633 44.9694C50.0146 44.906 49.9788 44.8336 49.9582 44.7563C49.9375 44.679 49.9323 44.5985 49.9428 44.5192C49.9533 44.4399 49.9794 44.3634 50.0196 44.2943L52.4576 40.0702C52.4973 40.0008 52.5503 39.94 52.6136 39.8912C52.6769 39.8424 52.7492 39.8065 52.8264 39.7858C52.9847 39.7452 53.1489 39.7655 53.2892 39.8476L55.8307 41.3148C57.255 39.9023 58.9992 38.8933 60.9219 38.3698V35.5189C60.9219 35.4389 60.9376 35.3597 60.9682 35.2857C60.9988 35.2118 61.0437 35.1446 61.1003 35.088C61.1568 35.0314 61.224 34.9866 61.298 34.956C61.3719 34.9254 61.4511 34.9096 61.5311 34.9097H66.4046C66.4846 34.9096 66.5639 34.9254 66.6378 34.956C66.7117 34.9866 66.7789 35.0314 66.8355 35.088C66.8921 35.1446 66.9369 35.2118 66.9675 35.2857C66.9982 35.3597 67.0139 35.4389 67.0138 35.5189V38.3698C68.9366 38.8935 70.6808 39.9025 72.105 41.3148L74.6466 39.8476C74.7159 39.8074 74.7924 39.7812 74.8718 39.7706C74.9512 39.76 75.032 39.7652 75.1094 39.7858C75.1866 39.8066 75.2589 39.8424 75.3222 39.8912C75.3855 39.94 75.4385 40.0008 75.4782 40.0702L77.9149 44.2918C77.9551 44.361 77.9812 44.4374 77.9918 44.5167C78.0023 44.596 77.9971 44.6766 77.9765 44.7538C77.9558 44.8311 77.9201 44.9035 77.8713 44.967C77.8226 45.0304 77.7619 45.0836 77.6925 45.1235L75.163 46.5847C75.4153 47.5449 75.5425 48.5337 75.5425 49.5308C75.5425 50.5279 75.4153 51.5167 75.163 52.4757L77.6937 53.9381C77.7631 53.9781 77.8239 54.0314 77.8727 54.0949C77.9215 54.1584 77.9573 54.2309 77.978 54.3082C78.0194 54.4642 77.9972 54.6302 77.9162 54.7698L75.4782 58.9914C75.4385 59.0609 75.3854 59.1219 75.322 59.1707C75.2586 59.2196 75.1861 59.2554 75.1088 59.2761C75.0315 59.2968 74.9508 59.302 74.8715 59.2913C74.7921 59.2807 74.7157 59.2544 74.6466 59.214L72.104 57.7469C70.6809 59.1593 68.9367 60.1683 67.014 60.6918V63.5427C67.014 63.6227 66.9982 63.702 66.9675 63.7759C66.9369 63.8498 66.892 63.917 66.8354 63.9736C66.7788 64.0302 66.7116 64.075 66.6377 64.1056C66.5637 64.1362 66.4845 64.152 66.4045 64.152ZM62.1402 62.9335H65.7952V60.2159C65.7952 60.0779 65.842 59.944 65.928 59.8361C66.014 59.7282 66.1342 59.6528 66.2687 59.6222C68.2973 59.1605 70.1238 58.1038 71.5505 56.5679C71.6437 56.4658 71.7692 56.3989 71.9058 56.3783C72.0425 56.3577 72.1821 56.3848 72.3012 56.4548L74.7285 57.8552L76.5573 54.6877L74.142 53.2932C74.0224 53.2244 73.9298 53.117 73.8794 52.9885C73.8291 52.86 73.8239 52.7183 73.8649 52.5865C74.1694 51.5977 74.3242 50.5697 74.3242 49.5308C74.3242 48.4919 74.1694 47.464 73.8649 46.4741C73.8239 46.3423 73.8291 46.2005 73.8794 46.0721C73.9298 45.9436 74.0224 45.8361 74.142 45.7673L76.5562 44.3739L74.7287 41.2066L72.3026 42.607C72.1834 42.6768 72.0439 42.7036 71.9073 42.683C71.7707 42.6625 71.6452 42.5957 71.5519 42.4939C70.1239 40.9579 68.2976 39.9013 66.2689 39.4396C66.1344 39.409 66.0142 39.3336 65.9282 39.2257C65.8422 39.1178 65.7953 38.9839 65.7954 38.8459V36.1283H62.1404V38.8459C62.1405 38.9839 62.0936 39.1178 62.0076 39.2257C61.9216 39.3336 61.8014 39.409 61.6669 39.4396C59.6383 39.9013 57.8118 40.9579 56.3841 42.4939C56.2907 42.5958 56.1652 42.6625 56.0286 42.6831C55.8919 42.7037 55.7524 42.6768 55.6332 42.607L53.2071 41.2066L51.3783 44.3764L53.7925 45.7698C53.9121 45.8383 54.0047 45.9455 54.0551 46.0738C54.1055 46.2021 54.1107 46.3437 54.0698 46.4753C53.7661 47.4654 53.6116 48.4953 53.6116 49.531C53.6113 50.5671 53.7662 51.5974 54.071 52.5877C54.1119 52.7195 54.1068 52.8613 54.0564 52.9897C54.006 53.1182 53.9134 53.2257 53.7938 53.2945L51.3796 54.6879L53.2071 57.8554L55.6344 56.455C55.8795 56.3098 56.1924 56.3585 56.3853 56.568C57.8118 58.104 59.6383 59.1607 61.6669 59.6223C61.8014 59.6529 61.9216 59.7283 62.0076 59.8362C62.0936 59.9441 62.1405 60.078 62.1404 60.216V62.9335H62.1402Z" fill="#155DDD"/>
<path d="M46.8797 42.4696C46.7739 42.4696 46.6692 42.4421 46.5752 42.3876C46.5059 42.3479 46.4451 42.2948 46.3963 42.2315C46.3475 42.1682 46.3117 42.0959 46.2909 42.0188L45.9957 40.9133C45.5531 40.8475 45.1193 40.7321 44.7024 40.5693L43.8956 41.3762C43.8391 41.4327 43.7719 41.4776 43.6981 41.5082C43.6242 41.5389 43.545 41.5546 43.465 41.5546C43.385 41.5546 43.3058 41.5389 43.2319 41.5082C43.158 41.4776 43.0908 41.4327 43.0343 41.3762L40.4489 38.7917C40.3922 38.7352 40.3473 38.668 40.3167 38.5941C40.286 38.5202 40.2703 38.441 40.2703 38.361C40.2703 38.281 40.286 38.2018 40.3167 38.1279C40.3473 38.054 40.3922 37.9868 40.4489 37.9303L41.2567 37.1224C41.094 36.7054 40.9782 36.2716 40.9115 35.8289L39.8069 35.5338C39.6508 35.4917 39.5178 35.3893 39.437 35.2493C39.3563 35.1092 39.3344 34.9428 39.3762 34.7866L40.3215 31.2563C40.4096 30.9338 40.7403 30.7447 41.0674 30.8255L42.155 31.1171C42.2934 30.9385 42.4424 30.7685 42.6012 30.6078C42.7582 30.4519 42.9272 30.3031 43.1127 30.158L42.8225 29.0728C42.8015 28.9955 42.7961 28.9148 42.8065 28.8354C42.8169 28.7559 42.8429 28.6793 42.883 28.61C42.9637 28.4703 43.0963 28.3681 43.252 28.3257L46.7821 27.3786C46.9416 27.3393 47.1046 27.3583 47.2451 27.4404C47.3145 27.4803 47.3754 27.5335 47.4242 27.597C47.473 27.6605 47.5087 27.7331 47.5293 27.8105L47.8255 28.9158C48.268 28.9824 48.7017 29.0978 49.1189 29.2596L49.9256 28.4529C50.1541 28.2244 50.5585 28.2244 50.7869 28.4529L53.3713 31.0372C53.4279 31.0938 53.4728 31.1609 53.5034 31.2348C53.5341 31.3087 53.5498 31.3879 53.5498 31.4679C53.5498 31.5479 53.5341 31.6272 53.5034 31.7011C53.4728 31.775 53.4279 31.8421 53.3713 31.8986L52.5645 32.7067C52.7261 33.1235 52.8415 33.5568 52.9084 33.9988L54.0126 34.2939C54.1687 34.3361 54.3016 34.4385 54.3824 34.5785C54.4631 34.7186 54.485 34.8849 54.4433 35.0411L53.4974 38.5703C53.4766 38.6475 53.4408 38.7198 53.392 38.7831C53.3432 38.8464 53.2823 38.8994 53.213 38.9392C53.073 39.0202 52.9065 39.0425 52.7502 39.001L51.6675 38.7094C51.5286 38.8897 51.3784 39.061 51.2177 39.2222C51.057 39.3822 50.8865 39.5319 50.7072 39.6707L50.9988 40.7547C51.0406 40.9109 51.0188 41.0773 50.938 41.2174C50.8573 41.3574 50.7242 41.4598 50.5681 41.5018L47.0379 42.449C46.9862 42.4624 46.9331 42.4693 46.8797 42.4696ZM44.5632 39.2379C44.6513 39.2379 44.7405 39.257 44.8249 39.2963C45.3587 39.5501 45.9347 39.7033 46.524 39.7484C46.6495 39.7582 46.7689 39.8065 46.8659 39.8868C46.9628 39.9671 47.0325 40.0755 47.0655 40.197L47.3106 41.1143L49.6638 40.4826L49.4224 39.5842C49.39 39.4628 49.3958 39.3344 49.439 39.2165C49.4823 39.0985 49.5607 38.9968 49.6638 38.925C49.9483 38.7286 50.1684 38.549 50.3564 38.361C50.5468 38.1706 50.7252 37.9506 50.9216 37.6674C51.068 37.4544 51.3297 37.3616 51.5808 37.4247L52.4779 37.6661L53.1086 35.3137L52.1923 35.0687C52.0709 35.0359 51.9627 34.9664 51.8824 34.8697C51.8021 34.773 51.7537 34.6538 51.7438 34.5285C51.6979 33.9391 51.5443 33.3632 51.2904 32.8293C51.2369 32.7156 51.2197 32.588 51.2412 32.4641C51.2627 32.3402 51.3218 32.226 51.4106 32.1369L52.0794 31.4681L50.3564 29.7452L49.6876 30.4138C49.5057 30.5959 49.2274 30.6459 48.9952 30.5328C48.4656 30.2807 47.8934 30.1283 47.295 30.0806C47.1695 30.0708 47.0501 30.0223 46.9533 29.9417C46.8565 29.8612 46.7871 29.7526 46.7547 29.6309L46.5097 28.7136L44.1563 29.3454L44.3979 30.2462C44.431 30.3683 44.4252 30.4976 44.3812 30.6162C44.3373 30.7348 44.2574 30.8367 44.1528 30.9077C43.8838 31.091 43.6578 31.2755 43.4627 31.4695C43.2724 31.6611 43.0939 31.8799 42.9022 32.1584C42.756 32.3702 42.4929 32.4654 42.2432 32.4023L41.3413 32.1608L40.7106 34.5143L41.6278 34.7595C41.7492 34.7922 41.8574 34.8617 41.9377 34.9584C42.018 35.0551 42.0664 35.1742 42.0763 35.2995C42.122 35.8893 42.2757 36.4657 42.5297 36.9999C42.5833 37.1137 42.6005 37.2412 42.579 37.3651C42.5575 37.489 42.4984 37.6032 42.4097 37.6923L41.7409 38.361L43.4648 40.0841L44.1324 39.4165C44.1889 39.3599 44.2561 39.315 44.33 39.2843C44.4039 39.2537 44.4832 39.2379 44.5632 39.2379Z" fill="#155DDD"/>
<path d="M46.9092 37.9549C45.2293 37.9549 43.8633 36.589 43.8633 34.9089C43.8633 33.2288 45.2293 31.8628 46.9092 31.8628C48.5893 31.8628 49.9552 33.2288 49.9552 34.9089C49.9552 36.589 48.5893 37.9549 46.9092 37.9549ZM46.9092 33.0813C45.9015 33.0813 45.0817 33.9011 45.0817 34.9089C45.0817 35.9167 45.9015 36.7365 46.9092 36.7365C47.917 36.7365 48.7368 35.9167 48.7368 34.9089C48.7368 33.9011 47.917 33.0813 46.9092 33.0813Z" fill="#155DDD"/>
</svg>
