<svg width="336" height="232" viewBox="0 0 336 232" fill="none" xmlns="http://www.w3.org/2000/svg">
<path d="M180.488 115.35C169.51 107.653 168.412 106.653 162.873 96.3062L157.584 107.103C180.189 113.501 199.7 134.894 216.715 151.139C234.131 167.734 266.366 192.226 271.057 215.269C277.344 199.374 286.975 201.424 298.302 188.628C260.827 178.231 207.833 134.494 180.488 115.35Z" fill="#EBEBEB"/>
<path d="M232.982 231.715C235.677 224.317 245.008 220.819 252.194 224.068C252.144 222.968 252.094 221.818 252.044 220.719C252.743 215.77 255.487 211.122 259.479 208.122C263.521 205.123 268.761 203.874 273.701 204.624C274.15 199.075 279.888 194.577 285.377 195.526C284.479 191.578 286.026 187.179 289.22 184.73C292.413 182.28 297.054 181.881 300.597 183.78C306.286 180.181 314.17 180.581 319.459 184.63C324.798 188.728 327.194 196.226 325.248 202.674C333.88 209.272 336.974 222.168 332.333 231.965" fill="#EBEBEB"/>
<path d="M150.848 103.904L165.967 93.6067C171.406 92.9069 174.301 98.2553 174.051 102.154C176.347 100.954 179.39 101.404 181.237 103.254C183.083 105.103 183.582 108.152 182.384 110.451C185.478 110.601 188.073 113.8 187.574 116.849C187.075 119.899 183.582 122.098 180.638 121.248C178.692 120.698 177.045 119.049 175.049 118.849C173.153 118.649 171.357 119.699 169.51 120.298C164.969 121.748 159.78 120.098 156.387 116.8C152.943 113.451 151.147 108.702 150.848 103.904Z" fill="#EBEBEB"/>
<path d="M160.528 97.4527C162.275 97.9525 163.971 98.8023 165.368 99.9019C166.316 100.652 165.768 102.151 164.57 102.101H164.52C166.366 103.401 168.113 104.8 169.76 106.3C170.807 107.25 170.109 109.049 168.662 108.949C163.073 108.699 157.534 106.4 153.492 102.501L160.528 97.4527Z" fill="#E0E0E0"/>
<path d="M133.531 98.7047C133.531 98.7047 133.531 98.7546 133.531 98.8046C133.781 105.802 137.174 112.3 142.813 116.499L146.306 119.148L146.655 108.552L133.531 98.7047Z" fill="#E0E0E0"/>
<path d="M148.402 78.7631C148.402 78.7631 148.452 78.7631 148.502 78.7132C155.189 76.9637 162.275 78.4133 167.813 82.512L171.257 85.1112L161.326 88.4102L148.402 78.7631Z" fill="#E0E0E0"/>
<path d="M106.585 63.0176C107.783 61.4181 114.02 61.5681 122.853 63.9673C131.535 66.3166 137.523 70.5653 137.523 70.5653L166.864 92.5085L161.076 100.256L157.733 104.755L151.944 112.502L125.348 92.6084C122.753 90.659 120.308 88.5097 118.162 86.0605C116.266 84.0111 114.07 81.3619 112.174 78.3629C107.134 70.6652 105.388 64.5671 106.585 63.0176Z" fill="#F5F5F5"/>
<path d="M147.303 108.698C147.353 108.698 150.696 104.349 154.788 98.9006C158.88 93.4523 162.173 89.0536 162.173 89.0037C162.123 89.0037 158.78 93.3523 154.688 98.8006C150.596 104.249 147.303 108.648 147.303 108.698Z" fill="#E0E0E0"/>
<path d="M148.252 109.25C148.302 109.25 151.645 104.901 155.737 99.4531C159.829 94.0048 163.122 89.6062 163.122 89.5562C163.072 89.5562 159.729 93.9049 155.637 99.3532C151.545 104.801 148.252 109.25 148.252 109.25Z" fill="#E0E0E0"/>
<path d="M149.2 110.002C149.25 110.002 152.593 105.654 156.685 100.205C160.777 94.757 164.07 90.3584 164.07 90.3084C164.02 90.3084 160.677 94.6571 156.585 100.105C152.443 105.554 149.15 109.952 149.2 110.002Z" fill="#E0E0E0"/>
<path d="M150.098 110.699C150.148 110.699 153.491 106.35 157.583 100.902C161.674 95.4538 164.968 91.0552 164.968 91.0052C164.918 91.0052 161.575 95.3538 157.483 100.802C153.391 106.25 150.098 110.699 150.098 110.699Z" fill="#E0E0E0"/>
<path d="M151.047 111.401C151.097 111.401 154.441 107.052 158.532 101.604C162.624 96.1552 165.918 91.7566 165.918 91.7066C165.868 91.7066 162.524 96.0553 158.433 101.504C154.341 106.952 150.998 111.401 151.047 111.401Z" fill="#E0E0E0"/>
<path d="M140.967 88.8083C140.967 88.8083 141.017 88.8583 141.067 88.9083C141.166 89.0083 141.266 89.1083 141.466 89.2082C141.815 89.4581 142.314 89.858 142.913 90.3079C144.16 91.2576 145.857 92.5072 147.753 93.9068C149.649 95.3063 151.396 96.5559 152.643 97.4557C153.242 97.9055 153.791 98.2554 154.14 98.5053C153.791 98.2554 153.292 97.8555 152.693 97.4057C151.446 96.506 149.749 95.2064 147.853 93.8568C145.957 92.4572 144.26 91.2076 143.013 90.3079C142.414 89.858 141.915 89.5081 141.566 89.2082C141.416 89.0583 141.266 88.9583 141.166 88.9083C141.017 88.8083 140.967 88.8083 140.967 88.8083Z" fill="#E0E0E0"/>
<path d="M133.531 98.6997C133.581 98.6997 136.875 94.301 140.966 88.8527C145.058 83.4044 148.302 78.9558 148.302 78.9058C148.252 78.9058 144.958 83.3045 140.867 88.7528C136.825 94.2511 133.531 98.6997 133.531 98.6997Z" fill="#E0E0E0"/>
<path d="M149.45 97.6044C149.45 97.6044 149.4 97.6044 149.251 97.6544C149.151 97.7044 149.001 97.8544 148.901 98.0543C148.802 98.2542 148.802 98.5541 149.001 98.8041C149.201 99.054 149.5 99.2039 149.85 99.104C150.199 99.004 150.398 98.7041 150.448 98.4042C150.498 98.1043 150.299 97.8543 150.149 97.7044C149.949 97.5544 149.8 97.5544 149.65 97.5544C149.55 97.5544 149.45 97.6044 149.45 97.6044C149.45 97.6044 149.5 97.6044 149.65 97.6044C149.75 97.6044 149.949 97.6544 150.099 97.8044C150.249 97.9043 150.398 98.1543 150.349 98.4042C150.299 98.6541 150.149 98.904 149.85 99.004C149.55 99.104 149.251 98.954 149.101 98.7541C148.951 98.5541 148.951 98.3042 149.001 98.1043C149.051 97.9043 149.201 97.8044 149.301 97.7044C149.4 97.6544 149.45 97.6044 149.45 97.6044Z" fill="#E0E0E0"/>
<path d="M143.712 93.5046C143.712 93.5046 143.662 93.5046 143.513 93.5546C143.413 93.6046 143.263 93.7546 143.163 93.9545C143.063 94.1544 143.063 94.4543 143.263 94.7043C143.463 94.9542 143.762 95.1041 144.111 95.0042C144.461 94.9042 144.66 94.6043 144.71 94.3044C144.76 94.0045 144.56 93.7546 144.411 93.6046C144.211 93.4547 144.061 93.4547 143.912 93.4547C143.812 93.4547 143.712 93.5046 143.712 93.5046C143.712 93.5046 143.762 93.5046 143.912 93.5046C144.012 93.5046 144.211 93.5546 144.361 93.7046C144.511 93.8045 144.66 94.0545 144.61 94.3044C144.56 94.5543 144.411 94.8042 144.111 94.9042C143.812 95.0042 143.513 94.8542 143.363 94.6543C143.213 94.4543 143.213 94.2044 143.263 94.0045C143.313 93.8045 143.463 93.7046 143.562 93.6046C143.662 93.5046 143.712 93.5046 143.712 93.5046Z" fill="#E0E0E0"/>
<path d="M170.906 112C171.555 111.751 172.354 112.1 172.603 112.75C172.853 113.4 172.503 114.2 171.904 114.45C171.256 114.7 170.457 114.4 170.158 113.75C169.859 113.1 170.208 112.3 170.807 112" fill="#E0E0E0"/>
<path d="M120.16 80.2102C121.407 83.7091 125.249 85.5086 128.742 84.259C132.235 83.0094 134.032 79.1606 132.784 75.6616C131.537 72.1627 127.694 70.3633 124.201 71.6129C120.708 72.8625 118.912 76.7113 120.16 80.2102Z" fill="white"/>
<path d="M120.16 80.2092C120.21 80.2092 119.96 79.6593 119.86 78.6097C119.761 77.56 119.91 75.9605 120.958 74.361C121.457 73.5612 122.206 72.8115 123.154 72.2616C124.102 71.7118 125.25 71.3619 126.497 71.3619C127.096 71.3619 127.745 71.4619 128.343 71.6618C128.942 71.8618 129.591 72.1117 130.14 72.5116C131.288 73.2613 132.136 74.411 132.635 75.7606C133.084 77.1101 133.134 78.5597 132.735 79.8593C132.535 80.5091 132.286 81.1089 131.886 81.6587C131.537 82.2086 131.088 82.6584 130.639 83.0583C129.691 83.858 128.543 84.3079 127.495 84.5078C126.397 84.7078 125.349 84.5578 124.451 84.3079C122.655 83.7581 121.507 82.5584 120.908 81.7087C120.359 80.759 120.16 80.1592 120.16 80.2092C120.16 80.2092 120.21 80.3591 120.31 80.609C120.359 80.759 120.409 80.909 120.509 81.1089C120.609 81.3088 120.709 81.5088 120.858 81.7087C121.407 82.6084 122.555 83.8081 124.401 84.4579C125.3 84.7578 126.397 84.9077 127.545 84.7078C128.643 84.5078 129.84 84.058 130.838 83.2082C131.337 82.8084 131.787 82.3085 132.186 81.7587C132.585 81.2089 132.884 80.5591 133.084 79.9093C133.483 78.5597 133.483 77.0601 132.984 75.6106C132.485 74.211 131.537 73.0114 130.339 72.2616C129.741 71.8618 129.142 71.5619 128.493 71.3619C127.844 71.162 127.196 71.062 126.547 71.062C125.25 71.062 124.052 71.4619 123.054 72.0117C122.056 72.6115 121.308 73.4113 120.809 74.211C119.761 75.8605 119.661 77.51 119.761 78.5597C119.761 78.8096 119.86 79.0595 119.86 79.2595C119.91 79.4594 119.96 79.6094 120.01 79.7593C120.11 80.0592 120.16 80.2092 120.16 80.2092Z" fill="#E0E0E0"/>
<path d="M106.586 63.0156C107.783 61.4161 114.021 61.566 122.853 63.9653L112.124 78.3608C107.134 70.6632 105.388 64.5651 106.586 63.0156Z" fill="#E0E0E0"/>
<path d="M106.387 63.3078C106.288 63.5078 106.238 63.8577 106.188 64.3075C106.138 65.2072 106.387 66.5568 106.936 68.2063C108.034 71.4553 110.23 76.0039 113.872 81.0523C115.719 83.5516 117.914 86.2007 120.609 88.75C121.956 89.9996 123.403 91.2492 125 92.4488C126.597 93.6484 128.194 94.8481 129.89 96.0977C136.577 101.096 144.012 106.644 151.896 112.543L151.996 112.643L152.096 112.543C154.491 109.344 156.986 105.995 159.531 102.546C162.076 99.1467 164.571 95.7478 166.966 92.5488L167.066 92.4488L166.966 92.3488C159.082 86.4507 151.647 80.9024 144.96 75.9039C143.264 74.6543 141.667 73.4547 140.07 72.2551C139.272 71.6552 138.523 71.1054 137.725 70.5056C136.926 69.9558 136.128 69.4559 135.329 69.0061C132.136 67.1566 128.992 65.8071 126.048 64.8074C123.104 63.8077 120.359 63.1579 117.964 62.708C115.569 62.2582 113.473 61.9583 111.727 61.9083C110.03 61.8583 108.683 61.9583 107.785 62.2582C107.585 62.3581 107.385 62.4081 107.236 62.5081C107.086 62.6081 106.936 62.658 106.886 62.758C106.637 62.908 106.587 63.0079 106.587 63.0079C106.587 63.0079 106.687 62.908 106.837 62.758C106.936 62.708 107.036 62.6081 107.186 62.5581C107.336 62.4581 107.535 62.4081 107.735 62.3581C108.583 62.1082 109.93 62.0082 111.627 62.0582C113.324 62.1082 115.419 62.4081 117.815 62.908C120.21 63.4078 122.954 64.0576 125.898 65.0573C128.842 66.107 131.986 67.4566 135.13 69.306C135.928 69.7558 136.727 70.2557 137.475 70.8055C138.224 71.3553 139.022 71.9552 139.82 72.555C141.417 73.7546 143.014 74.9542 144.711 76.2038C151.397 81.2023 158.832 86.7506 166.717 92.6487L166.667 92.4488C164.271 95.6478 161.776 98.9968 159.232 102.446C156.687 105.845 154.192 109.244 151.796 112.443L151.996 112.393C144.112 106.494 136.677 100.946 129.99 95.9477C128.294 94.6981 126.697 93.4985 125.1 92.2989C123.553 91.0992 122.056 89.8996 120.759 88.6C118.114 86.0508 115.868 83.4516 114.022 80.9524C110.379 75.9539 108.084 71.4053 106.986 68.1563C106.437 66.5068 106.188 65.2072 106.238 64.3075C106.238 63.8577 106.338 63.5078 106.387 63.3078Z" fill="#E0E0E0"/>
<path d="M127.046 82.9569C127.096 82.9569 127.046 82.457 126.946 81.6073C126.846 80.7575 126.647 79.6579 126.397 78.4083C126.148 77.2086 125.948 76.159 125.749 75.2093C125.599 74.4095 125.449 73.9097 125.449 73.9097C125.399 73.9097 125.449 74.4095 125.549 75.2592C125.649 76.109 125.848 77.2086 126.098 78.4583C126.347 79.6579 126.547 80.7076 126.747 81.6573C126.896 82.457 126.996 82.9569 127.046 82.9569Z" fill="#E0E0E0"/>
<path d="M128.194 81.3594C128.294 81.3594 128.144 80.0098 127.844 78.4103C127.595 76.8108 127.296 75.5112 127.246 75.5112C127.146 75.5112 127.296 76.8608 127.595 78.4603C127.844 80.0598 128.144 81.3594 128.194 81.3594Z" fill="#E0E0E0"/>
<path d="M292.164 170.026L277.992 163.128C276.994 162.628 276.595 161.479 277.094 160.479L286.675 140.835C287.174 139.835 288.321 139.436 289.319 139.935L298.301 144.334L301.744 154.931L294.808 169.176C294.309 170.076 293.162 170.476 292.164 170.026Z" fill="#EBEBEB"/>
<path d="M298.249 144.291L295.555 149.839C295.105 150.739 295.505 151.838 296.403 152.288L301.692 154.887L298.249 144.291Z" fill="#E0E0E0"/>
<path d="M294.507 148.983C294.457 149.033 292.96 148.383 291.164 147.533C289.367 146.633 287.92 145.884 287.97 145.784C288.02 145.734 289.517 146.383 291.313 147.233C293.11 148.183 294.507 148.933 294.507 148.983Z" fill="white"/>
<path d="M297.201 154.183C297.151 154.233 294.706 153.133 291.762 151.684C288.768 150.234 286.373 148.985 286.423 148.935C286.473 148.885 288.918 149.984 291.862 151.434C294.856 152.884 297.251 154.133 297.201 154.183Z" fill="white"/>
<path d="M296.903 157.294C296.853 157.344 294.209 156.145 290.965 154.545C287.722 152.946 285.127 151.596 285.127 151.546C285.177 151.496 287.822 152.696 291.065 154.295C294.358 155.895 296.953 157.244 296.903 157.294Z" fill="white"/>
<path d="M295.706 159.745C295.656 159.795 293.011 158.596 289.768 156.996C286.524 155.397 283.93 154.047 283.93 153.997C283.98 153.947 286.624 155.147 289.868 156.746C293.161 158.346 295.756 159.695 295.706 159.745Z" fill="white"/>
<path d="M294.511 162.226C294.461 162.276 291.816 161.076 288.573 159.477C285.329 157.877 282.734 156.528 282.734 156.478C282.784 156.428 285.429 157.627 288.672 159.227C291.966 160.776 294.561 162.126 294.511 162.226Z" fill="white"/>
<path d="M293.312 164.687C293.262 164.737 290.617 163.537 287.373 161.938C284.13 160.338 281.535 158.989 281.535 158.939C281.585 158.889 284.23 160.088 287.473 161.688C290.767 163.287 293.361 164.637 293.312 164.687Z" fill="white"/>
<path d="M97.554 99.3601C96.9053 108.807 88.6718 115.955 79.2407 115.255C69.7597 114.605 62.624 106.408 63.3226 96.9108C63.9713 87.4638 72.2048 80.316 81.6359 81.0157C91.067 81.7155 98.2027 89.913 97.554 99.3601Z" fill="#F5F5F5"/>
<path d="M93.4635 99.1098C92.9645 106.308 86.727 111.756 79.4915 111.256C72.3059 110.756 66.8668 104.508 67.3658 97.3104C67.8648 90.1126 74.1023 84.6643 81.3378 85.1641C88.5233 85.614 93.9625 91.8621 93.4635 99.1098Z" fill="#EBEBEB"/>
<path d="M93.462 98.6601C93.3622 98.6601 93.3622 98.0603 93.2125 97.0606C93.0628 96.0609 92.7634 94.5613 91.965 92.9618C91.5658 92.1621 91.0668 91.3124 90.4181 90.4626C89.7694 89.6629 88.971 88.8131 88.0229 88.1133C87.5239 87.7635 87.0249 87.4136 86.476 87.1137C85.9271 86.8138 85.3782 86.5638 84.7295 86.3139C84.1307 86.114 83.482 85.914 82.8333 85.7641C82.1846 85.6141 81.486 85.5641 80.8373 85.5142C80.1387 85.5142 79.49 85.5142 78.8413 85.6141C78.1926 85.6641 77.5439 85.8141 76.8952 86.014C76.2964 86.164 75.6976 86.4139 75.0988 86.6638C74.5499 86.9137 74.001 87.2136 73.502 87.5135C72.504 88.1633 71.6557 88.9131 70.9072 89.6629C70.2086 90.4626 69.6098 91.2624 69.1607 92.0121C68.2625 93.5617 67.8633 95.0112 67.6138 96.0109C67.4142 97.0106 67.3144 97.6104 67.2645 97.5604C67.2146 97.5604 67.1148 96.9606 67.2146 95.9109C67.3144 94.8613 67.6138 93.3117 68.512 91.6123C68.9611 90.7625 69.51 89.8628 70.2585 89.0131C71.007 88.1633 71.9052 87.3636 72.9531 86.6638C73.502 86.3139 74.0509 85.964 74.6497 85.7141C75.2485 85.4142 75.8972 85.1643 76.5459 85.0143C77.1946 84.8144 77.8932 84.6644 78.6417 84.5645C79.3403 84.4645 80.0888 84.4645 80.8373 84.4645C81.5858 84.5145 82.2844 84.5644 82.983 84.7144C83.6816 84.8644 84.3802 85.0643 85.0289 85.3142C85.6776 85.5641 86.2764 85.864 86.8752 86.164C87.474 86.4639 88.0229 86.8637 88.5219 87.2636C89.5199 88.0634 90.3682 88.9131 91.0169 89.8128C91.6656 90.7125 92.2145 91.6622 92.5638 92.512C93.3123 94.2614 93.5119 95.811 93.5119 96.8606C93.6616 98.1102 93.5618 98.6601 93.462 98.6601Z" fill="#E0E0E0"/>
<path d="M81.3358 106.057L81.1861 108.356L79.1402 108.256L79.24 106.057C77.244 105.807 75.3478 105.107 74.25 104.157L75.4975 101.758C76.4955 102.558 77.8927 103.208 79.3398 103.407L79.5394 100.009C77.2939 99.3587 74.8488 98.459 74.9985 95.5099C75.0983 93.3606 76.7949 91.6111 80.0384 91.4112L80.1881 89.1619L82.234 89.2618L82.1342 91.4611C83.6312 91.6611 85.1282 92.1609 86.1761 92.9107L85.0284 95.3599C84.0304 94.7101 82.9825 94.3103 81.9845 94.1103L81.7849 97.5593C84.0304 98.2091 86.4256 99.1088 86.2759 101.958C86.1761 104.107 84.5294 105.857 81.3358 106.057ZM79.7889 96.9594L79.9386 94.0603C78.8408 94.2603 78.3917 94.8101 78.3418 95.4599C78.3418 96.2097 78.9406 96.6096 79.7889 96.9594ZM83.0324 102.058C83.0823 101.358 82.4835 100.908 81.6352 100.558L81.4855 103.357C82.5334 103.208 82.9825 102.708 83.0324 102.058Z" fill="#E0E0E0"/>
<path d="M320.059 47.4198C319.56 54.6676 313.273 60.0659 306.037 59.5661C298.802 59.0662 293.363 52.7682 293.862 45.5704C294.361 38.3227 300.648 32.9243 307.884 33.4242C315.119 33.924 320.608 40.2221 320.059 47.4198Z" fill="#F5F5F5"/>
<path d="M316.965 47.2236C316.566 52.7219 311.825 56.8706 306.286 56.4708C300.797 56.0709 296.606 51.3224 297.005 45.8241C297.404 40.3258 302.145 36.1771 307.683 36.5769C313.172 36.9268 317.364 41.7253 316.965 47.2236Z" fill="#EBEBEB"/>
<path d="M316.966 46.9223C316.916 46.9223 316.916 46.4725 316.766 45.7227C316.667 44.9729 316.417 43.8233 315.818 42.5737C315.519 41.9739 315.12 41.3241 314.621 40.6743C314.122 40.0245 313.523 39.4247 312.774 38.8748C312.425 38.6249 312.026 38.325 311.627 38.1251C311.227 37.8751 310.778 37.6752 310.329 37.5253C309.88 37.3753 309.381 37.2253 308.882 37.1254C308.383 37.0254 307.884 36.9754 307.335 36.9254C306.836 36.9254 306.287 36.9254 305.788 36.9754C305.289 37.0254 304.79 37.1254 304.341 37.2753C303.842 37.4253 303.393 37.5752 302.994 37.7752C302.545 37.9751 302.146 38.1751 301.746 38.425C300.998 38.9248 300.299 39.4746 299.75 40.0745C299.202 40.6743 298.752 41.2741 298.403 41.8739C297.705 43.0735 297.405 44.1732 297.206 44.923C297.056 45.6727 297.006 46.1226 296.956 46.1226C296.906 46.1226 296.856 45.6727 296.956 44.873C297.056 44.0732 297.255 42.9236 297.954 41.624C298.303 40.9742 298.752 40.3244 299.301 39.6246C299.85 38.9748 300.549 38.325 301.347 37.8252C301.746 37.5752 302.196 37.3253 302.645 37.0754C303.094 36.8755 303.593 36.6755 304.092 36.5256C304.591 36.3756 305.14 36.2756 305.689 36.1757C306.237 36.1257 306.786 36.0757 307.335 36.1257C307.884 36.1757 308.433 36.2257 308.982 36.3256C309.531 36.4256 310.03 36.5755 310.529 36.7755C311.028 36.9754 311.477 37.1754 311.926 37.4253C312.375 37.6752 312.774 37.9751 313.174 38.275C313.922 38.8748 314.571 39.5246 315.12 40.2244C315.619 40.9242 316.018 41.624 316.317 42.2738C316.866 43.6234 317.016 44.823 317.066 45.6227C317.116 46.4725 317.016 46.9223 316.966 46.9223Z" fill="#E0E0E0"/>
<path d="M307.683 52.5697L307.583 54.3192L306.036 54.2192L306.136 52.5197C304.589 52.3198 303.142 51.7699 302.344 51.0702L303.292 49.2207C304.04 49.8206 305.138 50.3204 306.236 50.4704L306.386 47.8712C304.689 47.3713 302.793 46.6715 302.893 44.4722C302.992 42.8227 304.24 41.4731 306.735 41.3232L306.835 39.5737L308.382 39.6737L308.282 41.3732C309.43 41.5231 310.577 41.923 311.376 42.4728L310.477 44.3223C309.729 43.8224 308.931 43.5225 308.132 43.3726L307.982 46.0217C309.679 46.5216 311.525 47.2214 311.426 49.3707C311.426 51.0702 310.178 52.3698 307.683 52.5697ZM306.535 45.5719L306.635 43.3726C305.787 43.5225 305.438 43.9224 305.438 44.4722C305.388 45.022 305.837 45.3219 306.535 45.5719ZM308.98 49.4707C309.03 48.9208 308.581 48.6209 307.933 48.321L307.833 50.4704C308.581 50.3704 308.98 49.9705 308.98 49.4707Z" fill="#E0E0E0"/>
<path d="M170.211 143.438C170.959 148.636 167.366 153.435 162.177 154.184C156.987 154.934 152.197 151.335 151.448 146.187C150.7 140.988 154.293 136.19 159.482 135.44C164.672 134.69 169.462 138.289 170.211 143.438Z" fill="#F5F5F5"/>
<path d="M167.964 143.789C168.513 147.738 165.819 151.387 161.827 151.987C157.885 152.586 154.192 149.837 153.643 145.889C153.094 141.94 155.789 138.291 159.781 137.691C163.723 137.091 167.416 139.84 167.964 143.789Z" fill="#EBEBEB"/>
<path d="M167.964 143.544C167.914 143.544 167.864 143.244 167.664 142.694C167.465 142.145 167.116 141.395 166.517 140.595C166.217 140.195 165.818 139.795 165.369 139.445C164.92 139.095 164.371 138.746 163.772 138.446C163.473 138.296 163.173 138.196 162.824 138.096C162.475 137.996 162.175 137.946 161.776 137.896C161.427 137.846 161.078 137.846 160.678 137.846C160.329 137.846 159.93 137.896 159.581 137.946C159.231 137.996 158.832 138.096 158.483 138.246C158.134 138.346 157.784 138.496 157.485 138.696C157.185 138.846 156.886 139.045 156.587 139.245C156.287 139.445 156.038 139.645 155.838 139.895C155.389 140.345 154.99 140.845 154.69 141.345C154.391 141.845 154.191 142.344 154.042 142.844C153.742 143.794 153.692 144.644 153.692 145.194C153.692 145.743 153.742 146.093 153.692 146.093C153.643 146.093 153.543 145.793 153.493 145.194C153.443 144.594 153.443 143.744 153.692 142.744C153.842 142.244 154.042 141.695 154.341 141.145C154.641 140.595 155.04 140.045 155.539 139.545C155.788 139.295 156.038 139.045 156.337 138.846C156.637 138.646 156.936 138.396 157.285 138.246C157.635 138.046 157.984 137.896 158.333 137.796C158.732 137.646 159.082 137.546 159.481 137.496C159.88 137.446 160.279 137.396 160.678 137.396C161.078 137.396 161.477 137.396 161.826 137.496C162.225 137.546 162.575 137.646 162.924 137.746C163.273 137.846 163.623 137.996 163.922 138.146C164.571 138.446 165.12 138.846 165.569 139.245C166.018 139.645 166.417 140.095 166.716 140.545C167.315 141.395 167.615 142.245 167.764 142.794C167.964 143.244 167.964 143.544 167.964 143.544Z" fill="#E0E0E0"/>
<path d="M162.276 148.99L162.476 150.239L161.378 150.439L161.178 149.24C160.081 149.34 158.983 149.19 158.284 148.79L158.683 147.34C159.282 147.64 160.131 147.84 160.979 147.79L160.679 145.941C159.382 145.841 157.935 145.641 157.685 144.041C157.486 142.842 158.184 141.692 159.931 141.242L159.731 139.992L160.829 139.792L161.029 140.992C161.877 140.942 162.725 141.042 163.374 141.292L163.025 142.742C162.426 142.492 161.777 142.392 161.228 142.442L161.528 144.341C162.825 144.441 164.222 144.641 164.472 146.19C164.671 147.34 163.973 148.49 162.276 148.99ZM160.38 144.241L160.131 142.642C159.582 142.892 159.382 143.241 159.432 143.591C159.482 143.991 159.831 144.141 160.38 144.241ZM162.675 146.64C162.626 146.24 162.276 146.091 161.777 145.991L162.027 147.54C162.576 147.29 162.775 146.99 162.675 146.64Z" fill="#E0E0E0"/>
<path d="M5.64034 172.038V182.485C5.64034 182.785 5.39084 182.985 5.14134 182.985H4.24314C3.94374 182.985 3.74414 183.235 3.74414 183.485V183.685C3.74414 183.984 3.99364 184.184 4.24314 184.184H5.14134C5.44074 184.184 5.64034 184.434 5.64034 184.684V191.332C5.64034 191.632 5.88984 191.832 6.13934 191.832H40.8697C41.1691 191.832 41.3687 191.582 41.3687 191.332V185.384C41.3687 185.084 41.1192 184.884 40.8697 184.884H39.2729C38.9735 184.884 38.7739 184.634 38.7739 184.384V183.884C38.7739 183.585 39.0234 183.385 39.2729 183.385H40.8697C41.1691 183.385 41.3687 183.135 41.3687 182.885V181.635C41.3687 181.335 41.6182 181.135 41.8677 181.135H42.0174C42.3168 181.135 42.5164 180.885 42.5164 180.635C42.5164 180.336 42.2669 180.136 42.0174 180.136H41.6681C41.3687 180.136 41.1691 179.886 41.1691 179.636V172.088C41.1691 171.788 40.9196 171.588 40.6701 171.588H6.13934C5.83994 171.488 5.64034 171.738 5.64034 172.038Z" fill="#F5F5F5"/>
<path d="M31.8887 172.036V191.23C31.8887 191.53 32.1382 191.73 32.3877 191.73H40.8707C41.1701 191.73 41.3697 191.48 41.3697 191.23V185.282C41.3697 184.982 41.1202 184.782 40.8707 184.782H39.2739C38.9745 184.782 38.7749 184.532 38.7749 184.282V183.933C38.7749 183.633 39.0244 183.433 39.3238 183.433L40.9206 183.483C41.22 183.483 41.4695 183.233 41.4695 182.983V181.733C41.4695 181.433 41.719 181.233 41.9685 181.233H42.1182C42.4176 181.233 42.6671 180.983 42.6172 180.684V180.534C42.6172 180.234 42.3677 180.034 42.1182 180.034H41.719C41.4196 180.034 41.22 179.784 41.22 179.534V172.136C41.22 171.836 40.9705 171.636 40.721 171.636L32.4875 171.686C32.1382 171.536 31.8887 171.786 31.8887 172.036Z" fill="#E0E0E0"/>
<path d="M32.5865 184.079C32.5865 184.129 26.0995 184.229 18.1155 184.229C10.1315 184.229 3.64453 184.179 3.64453 184.079C3.64453 184.029 10.1315 183.929 18.1155 183.929C26.0995 183.929 32.5865 183.979 32.5865 184.079Z" fill="#E0E0E0"/>
<path d="M32.5885 182.886C32.5885 182.936 26.1015 183.036 18.1175 183.036C10.1335 183.036 3.64648 182.986 3.64648 182.886C3.64648 182.836 10.1335 182.736 18.1175 182.736C26.1015 182.786 32.5885 182.836 32.5885 182.886Z" fill="#E0E0E0"/>
<path d="M34.4342 179.733C34.4342 179.783 27.9472 179.883 19.9632 179.883C11.9792 179.883 5.49219 179.833 5.49219 179.733C5.49219 179.683 11.9792 179.583 19.9632 179.583C27.9472 179.633 34.4342 179.683 34.4342 179.733Z" fill="#E0E0E0"/>
<path d="M34.5826 188.331C34.5826 188.381 28.0956 188.481 20.1116 188.481C12.1276 188.481 5.64062 188.431 5.64062 188.331C5.64062 188.281 12.1276 188.181 20.1116 188.181C28.1455 188.181 34.5826 188.231 34.5826 188.331Z" fill="#E0E0E0"/>
<path d="M8.3337 191.882V202.328C8.3337 202.628 8.0842 202.828 7.8347 202.828H6.9365C6.6371 202.828 6.4375 203.078 6.4375 203.328V203.528C6.4375 203.828 6.687 204.028 6.9365 204.028H7.8347C8.1341 204.028 8.3337 204.278 8.3337 204.528V211.226C8.3337 211.526 8.5832 211.726 8.8327 211.726H43.5631C43.8625 211.726 44.0621 211.476 44.0621 211.226V205.278C44.0621 204.978 43.8126 204.778 43.5631 204.778H41.9663C41.6669 204.778 41.4673 204.528 41.4673 204.278V203.778C41.4673 203.478 41.7168 203.278 41.9663 203.278H43.5631C43.8625 203.278 44.0621 203.028 44.0621 202.778V201.529C44.0621 201.229 44.3116 201.029 44.5611 201.029H44.7108C45.0102 201.029 45.2098 200.779 45.2098 200.529C45.2098 200.229 44.9603 200.029 44.7108 200.029H44.3615C44.0621 200.029 43.8625 199.779 43.8625 199.529V191.982C43.8625 191.682 43.613 191.482 43.3635 191.482H8.8327C8.5333 191.332 8.3337 191.582 8.3337 191.882Z" fill="#F5F5F5"/>
<path d="M34.5801 191.881V211.075C34.5801 211.375 34.8296 211.575 35.0791 211.575H43.5621C43.8615 211.575 44.0611 211.325 44.0611 211.075V205.127C44.0611 204.827 43.8116 204.627 43.5621 204.627H41.9653C41.6659 204.627 41.4663 204.377 41.4663 204.127V203.777C41.4663 203.477 41.7158 203.277 42.0152 203.277L43.612 203.327C43.9114 203.327 44.1609 203.077 44.1609 202.827V201.578C44.1609 201.278 44.4104 201.078 44.6599 201.078H44.8096C45.109 201.078 45.3585 200.828 45.3086 200.528V200.378C45.3086 200.078 45.0591 199.878 44.8096 199.878H44.4104C44.111 199.878 43.9114 199.628 43.9114 199.379V191.981C43.9114 191.681 43.6619 191.481 43.4124 191.481L35.1789 191.531C34.8296 191.381 34.5801 191.581 34.5801 191.881Z" fill="#E0E0E0"/>
<path d="M35.2799 203.882C35.2799 203.932 28.7929 204.032 20.8089 204.032C12.8249 204.032 6.33789 203.982 6.33789 203.882C6.33789 203.832 12.8249 203.732 20.8089 203.732C28.7929 203.782 35.2799 203.832 35.2799 203.882Z" fill="#E0E0E0"/>
<path d="M35.2799 202.73C35.2799 202.78 28.7929 202.879 20.8089 202.879C12.8249 202.879 6.33789 202.83 6.33789 202.73C6.33789 202.68 12.8249 202.58 20.8089 202.58C28.7929 202.63 35.2799 202.68 35.2799 202.73Z" fill="#E0E0E0"/>
<path d="M37.1256 199.577C37.1256 199.627 30.6386 199.727 22.6546 199.727C14.6706 199.727 8.18359 199.677 8.18359 199.577C8.18359 199.527 14.6706 199.427 22.6546 199.427C30.6386 199.477 37.1256 199.527 37.1256 199.577Z" fill="#E0E0E0"/>
<path d="M37.276 208.122C37.276 208.172 30.789 208.272 22.805 208.272C14.821 208.272 8.33398 208.222 8.33398 208.122C8.33398 208.072 14.821 207.972 22.805 207.972C30.8389 208.022 37.276 208.072 37.276 208.122Z" fill="#E0E0E0"/>
<path d="M5.19112 211.422V221.869C5.19112 222.169 4.94162 222.368 4.69212 222.368H3.79392C3.49452 222.368 3.29492 222.618 3.29492 222.868V223.068C3.29492 223.368 3.54442 223.568 3.79392 223.568H4.69212C4.99152 223.568 5.19112 223.818 5.19112 224.068V230.716C5.19112 231.016 5.44062 231.216 5.69012 231.216H40.4205C40.7199 231.216 40.9195 230.966 40.9195 230.716V224.768C40.9195 224.468 40.67 224.268 40.4205 224.268H38.8237C38.5243 224.268 38.3247 224.018 38.3247 223.768V223.268C38.3247 222.968 38.5742 222.768 38.8237 222.768H40.4205C40.7199 222.768 40.9195 222.518 40.9195 222.269V221.019C40.9195 220.719 41.169 220.519 41.4185 220.519H41.5682C41.8676 220.519 42.0672 220.269 42.0672 220.019C42.0672 219.719 41.8177 219.519 41.5682 219.519H41.2189C40.9195 219.519 40.7199 219.269 40.7199 219.02V211.472C40.7199 211.172 40.4704 210.972 40.2209 210.972H5.69012C5.39072 210.922 5.19112 211.122 5.19112 211.422Z" fill="#F5F5F5"/>
<path d="M31.4375 211.474V230.668C31.4375 230.968 31.687 231.168 31.9365 231.168H40.4195C40.7189 231.168 40.9185 230.918 40.9185 230.668V224.72C40.9185 224.42 40.669 224.22 40.4195 224.22H38.8227C38.5233 224.22 38.3237 223.97 38.3237 223.72V223.37C38.3237 223.07 38.5732 222.87 38.8726 222.87L40.4694 222.92C40.7688 222.92 41.0183 222.671 41.0183 222.421V221.171C41.0183 220.871 41.2678 220.671 41.5173 220.671H41.667C41.9664 220.671 42.2159 220.421 42.166 220.121V219.971C42.166 219.671 41.9165 219.472 41.667 219.472H41.2678C40.9684 219.472 40.7688 219.222 40.7688 218.972V211.574C40.7688 211.274 40.5193 211.074 40.2698 211.074L32.0363 211.124C31.687 210.924 31.4375 211.174 31.4375 211.474Z" fill="#E0E0E0"/>
<path d="M32.1373 223.478C32.1373 223.528 25.6503 223.628 17.6663 223.628C9.68231 223.628 3.19531 223.578 3.19531 223.478C3.19531 223.428 9.68231 223.328 17.6663 223.328C25.6503 223.328 32.1373 223.428 32.1373 223.478Z" fill="#E0E0E0"/>
<path d="M32.1373 222.319C32.1373 222.369 25.6503 222.469 17.6663 222.469C9.68231 222.469 3.19531 222.419 3.19531 222.319C3.19531 222.269 9.68231 222.169 17.6663 222.169C25.6503 222.169 32.1373 222.219 32.1373 222.319Z" fill="#E0E0E0"/>
<path d="M33.983 219.165C33.983 219.215 27.496 219.315 19.512 219.315C11.528 219.315 5.04102 219.265 5.04102 219.165C5.04102 219.115 11.528 219.015 19.512 219.015C27.496 219.015 33.983 219.115 33.983 219.165Z" fill="#E0E0E0"/>
<path d="M34.1842 227.72C34.1842 227.77 27.6972 227.87 19.7132 227.87C11.7292 227.87 5.24219 227.82 5.24219 227.72C5.24219 227.67 11.7292 227.57 19.7132 227.57C27.6972 227.57 34.1842 227.67 34.1842 227.72Z" fill="#E0E0E0"/>
<path d="M8.78487 112.946V123.393C8.78487 123.693 8.53537 123.893 8.28587 123.893H7.38767C7.08827 123.893 6.88867 124.143 6.88867 124.393V124.593C6.88867 124.893 7.13817 125.093 7.38767 125.093H8.28587C8.58527 125.093 8.78487 125.343 8.78487 125.592V132.24C8.78487 132.54 9.03437 132.74 9.28387 132.74H44.0143C44.3137 132.74 44.5133 132.49 44.5133 132.24V126.292C44.5133 125.992 44.2638 125.792 44.0143 125.792H42.4175C42.1181 125.792 41.9185 125.542 41.9185 125.293V124.793C41.9185 124.493 42.168 124.293 42.4175 124.293H44.0143C44.3137 124.293 44.5133 124.043 44.5133 123.793V122.543C44.5133 122.243 44.7628 122.044 45.0123 122.044H45.162C45.4614 122.044 45.661 121.794 45.661 121.544C45.661 121.244 45.4115 121.044 45.162 121.044H44.8127C44.5133 121.044 44.3137 120.794 44.3137 120.544V112.996C44.3137 112.696 44.0642 112.497 43.8147 112.497H9.33377C9.03437 112.397 8.78487 112.646 8.78487 112.946Z" fill="#F5F5F5"/>
<path d="M35.082 112.952V132.146C35.082 132.446 35.3315 132.646 35.581 132.646H44.064C44.3634 132.646 44.563 132.396 44.563 132.146V126.248C44.563 125.948 44.3135 125.748 44.064 125.748H42.4173C42.1179 125.748 41.9183 125.498 41.9183 125.248V124.898C41.9183 124.598 42.1678 124.398 42.4672 124.398L44.064 124.448C44.3634 124.448 44.6129 124.198 44.6129 123.948V122.699C44.6129 122.399 44.8624 122.199 45.1119 122.199H45.2616C45.561 122.199 45.8105 121.949 45.7606 121.649V121.499C45.7606 121.199 45.5111 120.999 45.2616 120.999H44.8624C44.563 120.999 44.3634 120.749 44.3634 120.5V113.102C44.3634 112.802 44.1139 112.602 43.8644 112.602L35.6309 112.652C35.2816 112.452 35.082 112.702 35.082 112.952Z" fill="#E0E0E0"/>
<path d="M35.7311 124.995C35.7311 125.045 29.2441 125.145 21.2601 125.145C13.2761 125.145 6.78906 125.095 6.78906 124.995C6.78906 124.945 13.2761 124.845 21.2601 124.845C29.294 124.845 35.7311 124.895 35.7311 124.995Z" fill="#E0E0E0"/>
<path d="M35.7311 123.802C35.7311 123.852 29.2441 123.952 21.2601 123.952C13.2761 123.952 6.78906 123.902 6.78906 123.802C6.78906 123.752 13.2761 123.652 21.2601 123.652C29.294 123.702 35.7311 123.752 35.7311 123.802Z" fill="#E0E0E0"/>
<path d="M37.6256 120.694C37.6256 120.744 31.1386 120.844 23.1546 120.844C15.1706 120.844 8.68359 120.794 8.68359 120.694C8.68359 120.644 15.1706 120.544 23.1546 120.544C31.1386 120.544 37.6256 120.594 37.6256 120.694Z" fill="#E0E0E0"/>
<path d="M37.7779 129.247C37.7779 129.297 31.2909 129.397 23.3069 129.397C15.3229 129.397 8.83594 129.347 8.83594 129.247C8.83594 129.197 15.3229 129.097 23.3069 129.097C31.2909 129.097 37.7779 129.147 37.7779 129.247Z" fill="#E0E0E0"/>
<path d="M11.4763 132.792V143.239C11.4763 143.539 11.2268 143.739 10.9773 143.739H10.0791C9.77968 143.739 9.58008 143.989 9.58008 144.239V144.438C9.58008 144.738 9.82958 144.938 10.0791 144.938H10.9773C11.2767 144.938 11.4763 145.188 11.4763 145.438V152.086C11.4763 152.386 11.7258 152.586 11.9753 152.586H46.7057C47.0051 152.586 47.2047 152.336 47.2047 152.086V146.138C47.2047 145.838 46.9552 145.638 46.7057 145.638H45.1089C44.8095 145.638 44.6099 145.388 44.6099 145.138V144.638C44.6099 144.338 44.8594 144.139 45.1089 144.139H46.7057C47.0051 144.139 47.2047 143.889 47.2047 143.639V142.389C47.2047 142.089 47.4542 141.889 47.7037 141.889H47.9033C48.2027 141.889 48.4023 141.639 48.4023 141.389C48.4023 141.089 48.1528 140.89 47.9033 140.89H47.554C47.2546 140.89 47.055 140.64 47.055 140.39V132.842C47.055 132.542 46.8055 132.342 46.556 132.342H12.0252C11.7258 132.242 11.4763 132.492 11.4763 132.792Z" fill="#F5F5F5"/>
<path d="M37.7754 132.8V151.994C37.7754 152.294 38.0249 152.494 38.2744 152.494H46.7574C47.0568 152.494 47.2564 152.244 47.2564 151.994V146.046C47.2564 145.746 47.0069 145.546 46.7574 145.546H45.1606C44.8612 145.546 44.6616 145.296 44.6616 145.046V144.696C44.6616 144.396 44.9111 144.196 45.2105 144.196L46.8073 144.246C47.1067 144.246 47.3562 143.996 47.3562 143.746V142.497C47.3562 142.197 47.6057 141.997 47.8552 141.997H48.0049C48.3043 141.997 48.5538 141.747 48.5039 141.447V141.297C48.5039 140.997 48.2544 140.797 48.0049 140.797H47.6057C47.3063 140.797 47.1067 140.547 47.1067 140.297V132.9C47.1067 132.6 46.8572 132.4 46.6077 132.4L38.3742 132.45C37.975 132.3 37.7754 132.55 37.7754 132.8Z" fill="#E0E0E0"/>
<path d="M38.4225 144.843C38.4225 144.893 31.9355 144.993 23.9515 144.993C15.9675 144.993 9.48047 144.943 9.48047 144.843C9.48047 144.743 15.9675 144.693 23.9515 144.693C31.9854 144.693 38.4225 144.743 38.4225 144.843Z" fill="#E0E0E0"/>
<path d="M38.4225 143.64C38.4225 143.69 31.9355 143.79 23.9515 143.79C15.9675 143.79 9.48047 143.74 9.48047 143.64C9.48047 143.59 15.9675 143.49 23.9515 143.49C31.9854 143.54 38.4225 143.59 38.4225 143.64Z" fill="#E0E0E0"/>
<path d="M40.319 140.54C40.319 140.59 33.8319 140.69 25.848 140.69C17.864 140.69 11.377 140.64 11.377 140.54C11.377 140.49 17.864 140.39 25.848 140.39C33.8319 140.39 40.319 140.44 40.319 140.54Z" fill="#E0E0E0"/>
<path d="M40.4693 149.083C40.4693 149.133 33.9823 149.233 25.9983 149.233C18.0143 149.233 11.5273 149.183 11.5273 149.083C11.5273 149.033 18.0143 148.933 25.9983 148.933C34.0322 148.933 40.4693 148.983 40.4693 149.083Z" fill="#E0E0E0"/>
<path d="M8.38253 152.34V162.787C8.38253 163.087 8.13303 163.287 7.88353 163.287H6.98533C6.68593 163.287 6.48633 163.537 6.48633 163.786V163.986C6.48633 164.286 6.73583 164.486 6.98533 164.486H7.88353C8.18293 164.486 8.38253 164.736 8.38253 164.986V171.734C8.38253 172.034 8.63203 172.234 8.88153 172.234H43.6119C43.9113 172.234 44.1109 171.984 44.1109 171.734V165.786C44.1109 165.486 43.8614 165.286 43.6119 165.286H42.0151C41.7157 165.286 41.5161 165.036 41.5161 164.786V164.286C41.5161 163.986 41.7656 163.786 42.0151 163.786H43.6119C43.9113 163.786 44.1109 163.537 44.1109 163.287V162.037C44.1109 161.737 44.3604 161.537 44.6099 161.537H44.7596C45.059 161.537 45.2586 161.287 45.2586 161.037C45.2586 160.737 45.0091 160.537 44.7596 160.537H44.4103C44.1109 160.537 43.9113 160.288 43.9113 160.038V152.49C43.9113 152.19 43.6618 151.99 43.4123 151.99H8.88153C8.58213 151.84 8.38253 152.09 8.38253 152.34Z" fill="#F5F5F5"/>
<path d="M34.6309 152.387V171.581C34.6309 171.881 34.8804 172.081 35.1299 172.081H43.6129C43.9123 172.081 44.1119 171.831 44.1119 171.581V165.633C44.1119 165.333 43.8624 165.133 43.6129 165.133H42.0161C41.7167 165.133 41.5171 164.883 41.5171 164.633V164.233C41.5171 163.933 41.7666 163.733 42.066 163.733L43.6628 163.783C43.9622 163.783 44.2117 163.533 44.2117 163.284V162.034C44.2117 161.734 44.4612 161.534 44.7107 161.534H44.8604C45.1598 161.534 45.4093 161.284 45.3594 160.984V160.834C45.3594 160.534 45.1099 160.334 44.8604 160.334H44.4612C44.1618 160.334 43.9622 160.084 43.9622 159.835V152.437C43.9622 152.137 43.7127 151.937 43.4632 151.937L35.2297 151.987C34.8804 151.887 34.6309 152.087 34.6309 152.387Z" fill="#E0E0E0"/>
<path d="M35.3307 164.39C35.3307 164.44 28.8437 164.54 20.8597 164.54C12.8757 164.54 6.38867 164.49 6.38867 164.39C6.38867 164.34 12.8757 164.24 20.8597 164.24C28.8437 164.29 35.3307 164.34 35.3307 164.39Z" fill="#E0E0E0"/>
<path d="M35.3287 163.239C35.3287 163.289 28.8417 163.389 20.8577 163.389C12.8737 163.389 6.38672 163.339 6.38672 163.239C6.38672 163.189 12.8737 163.089 20.8577 163.089C28.8417 163.089 35.3287 163.139 35.3287 163.239Z" fill="#E0E0E0"/>
<path d="M37.1764 160.095C37.1764 160.145 30.6894 160.245 22.7054 160.245C14.7214 160.245 8.23438 160.195 8.23438 160.095C8.23438 160.045 14.7214 159.945 22.7054 159.945C30.6894 159.995 37.1764 160.045 37.1764 160.095Z" fill="#E0E0E0"/>
<path d="M37.3248 168.64C37.3248 168.69 30.8378 168.79 22.8538 168.79C14.8698 168.79 8.38281 168.74 8.38281 168.64C8.38281 168.59 14.8698 168.49 22.8538 168.49C30.8877 168.54 37.3248 168.59 37.3248 168.64Z" fill="#E0E0E0"/>
<path d="M179.841 22.7788H171.258V49.6705H179.841V22.7788Z" fill="#F5F5F5"/>
<path d="M192.665 28.9272H184.082V49.6708H192.665V28.9272Z" fill="#F5F5F5"/>
<path d="M204.591 37.3745H196.008V49.7207H204.591V37.3745Z" fill="#F5F5F5"/>
<path d="M335.777 231.716C335.777 231.766 260.628 231.866 167.913 231.866C75.1494 231.816 0 231.766 0 231.716C0 231.666 75.1494 231.566 167.913 231.566C260.628 231.566 335.777 231.616 335.777 231.716Z" fill="#263238"/>
<path d="M279.291 105.505C279.141 95.2582 287.275 86.8108 297.455 86.6109C307.634 86.461 316.067 94.6584 316.217 104.905C316.367 115.152 308.233 123.599 298.053 123.799C287.874 123.949 279.441 115.752 279.291 105.505ZM306.586 105.055C306.487 100.157 302.495 96.2579 297.604 96.3079C292.714 96.4079 288.822 100.457 288.922 105.355C289.022 110.254 293.014 114.152 297.904 114.102C302.744 114.002 306.636 109.954 306.586 105.055Z" fill="#455A64"/>
<path d="M279.291 105.503C279.141 95.2562 287.275 86.8088 297.455 86.6089L297.604 96.3059C292.714 96.4059 288.822 100.455 288.922 105.353C289.022 110.252 293.014 114.15 297.904 114.1L298.053 123.797C287.874 123.947 279.441 115.75 279.291 105.503Z" fill="#4A83E7"/>
<path d="M295.809 85.1609C307.735 84.961 317.216 94.2081 317.415 106.204L306.138 106.404C306.038 100.656 301.697 97.0572 296.008 97.1572L295.809 85.1609Z" fill="#263238"/>
<path d="M127.295 108.445C128.543 112.944 125.898 117.592 121.407 118.842C116.916 120.092 112.275 117.442 111.028 112.944C109.78 108.445 112.425 103.797 116.916 102.547C121.407 101.297 126.048 103.947 127.295 108.445Z" fill="#4A83E7"/>
<g opacity="0.1">
<path d="M116.916 102.546C112.425 103.796 109.83 108.444 111.028 112.943C111.028 112.943 116.816 111.593 117.515 108.944C118.263 106.245 116.916 102.546 116.916 102.546Z" fill="white"/>
</g>
<path d="M125.149 108.899C126.097 112.298 124.101 115.847 120.708 116.797C117.315 117.746 113.772 115.747 112.824 112.348C111.876 108.949 113.872 105.4 117.265 104.451C120.708 103.501 124.201 105.5 125.149 108.899Z" fill="#4A83E7"/>
<g opacity="0.2">
<path d="M125.149 108.899C126.097 112.298 124.101 115.847 120.708 116.797C117.315 117.746 113.772 115.747 112.824 112.348C111.876 108.949 113.872 105.4 117.265 104.451C120.708 103.501 124.201 105.5 125.149 108.899Z" fill="black"/>
</g>
<path d="M125.398 109.095C126.346 112.444 124.35 115.943 121.007 116.893C117.664 117.843 114.171 115.843 113.222 112.494C112.274 109.145 114.27 105.647 117.614 104.697C121.007 103.747 124.45 105.746 125.398 109.095Z" fill="#4A83E7"/>
<g opacity="0.2">
<path d="M125.398 109.095C126.346 112.444 124.35 115.943 121.007 116.893C117.664 117.843 114.171 115.843 113.222 112.494C112.274 109.145 114.27 105.647 117.614 104.697C121.007 103.747 124.45 105.746 125.398 109.095Z" fill="white"/>
</g>
<path d="M119.411 110.204L118.962 108.654C119.261 108.604 119.56 108.604 119.86 108.654C120.109 108.704 120.309 108.804 120.309 108.804V108.754L120.409 108.104V107.954L120.059 107.754L119.96 107.854C119.56 107.754 119.161 107.754 118.762 107.854L118.513 107.005L118.163 106.855L118.213 107.055L117.864 107.155L118.113 108.004C116.966 108.454 116.566 109.304 116.766 110.104C117.065 111.153 118.063 111.203 118.962 111.153L119.411 112.703C118.812 112.803 118.163 112.753 117.714 112.553L117.564 113.453C118.063 113.703 118.862 113.753 119.61 113.553L119.81 114.202L119.511 114.302L119.86 114.402L120.509 114.202L120.259 113.353C121.457 112.903 121.806 112.053 121.606 111.253C121.357 110.204 120.309 110.154 119.411 110.204ZM118.762 110.204C118.263 110.204 117.914 110.104 117.814 109.754C117.714 109.404 117.864 109.054 118.413 108.854L118.762 110.204ZM120.059 112.503L119.66 111.153C120.159 111.153 120.558 111.253 120.658 111.603C120.758 111.953 120.608 112.253 120.059 112.503Z" fill="#4A83E7"/>
<g opacity="0.3">
<path d="M119.411 110.204L118.962 108.654C119.261 108.604 119.56 108.604 119.86 108.654C120.109 108.704 120.309 108.804 120.309 108.804V108.754L120.409 108.104V107.954L120.059 107.754L119.96 107.854C119.56 107.754 119.161 107.754 118.762 107.854L118.513 107.005L118.163 106.855L118.213 107.055L117.864 107.155L118.113 108.004C116.966 108.454 116.566 109.304 116.766 110.104C117.065 111.153 118.063 111.203 118.962 111.153L119.411 112.703C118.812 112.803 118.163 112.753 117.714 112.553L117.564 113.453C118.063 113.703 118.862 113.753 119.61 113.553L119.81 114.202L119.511 114.302L119.86 114.402L120.509 114.202L120.259 113.353C121.457 112.903 121.806 112.053 121.606 111.253C121.357 110.204 120.309 110.154 119.411 110.204ZM118.762 110.204C118.263 110.204 117.914 110.104 117.814 109.754C117.714 109.404 117.864 109.054 118.413 108.854L118.762 110.204ZM120.059 112.503L119.66 111.153C120.159 111.153 120.558 111.253 120.658 111.603C120.758 111.953 120.608 112.253 120.059 112.503Z" fill="black"/>
</g>
<path d="M119.96 113.202L120.209 114.052L119.561 114.252L119.311 113.402C118.563 113.552 117.764 113.502 117.265 113.302L117.415 112.402C117.864 112.602 118.513 112.652 119.112 112.552L118.662 111.003C117.764 111.053 116.766 111.003 116.467 109.953C116.267 109.153 116.617 108.303 117.814 107.854L117.565 107.004L118.213 106.804L118.463 107.654C119.062 107.504 119.66 107.554 120.159 107.704L120.06 108.553C119.561 108.403 119.112 108.403 118.712 108.503L119.161 110.053C120.06 110.003 121.108 110.053 121.357 111.103C121.557 111.902 121.157 112.752 119.96 113.202ZM118.413 110.053L118.014 108.653C117.465 108.903 117.315 109.253 117.415 109.553C117.565 110.003 117.914 110.053 118.413 110.053ZM120.359 111.452C120.259 111.053 119.86 111.003 119.361 111.003L119.76 112.352C120.259 112.102 120.459 111.802 120.359 111.452Z" fill="#4A83E7"/>
<path d="M113.322 116.446C113.322 116.446 113.322 116.446 113.272 116.396C113.222 116.346 113.172 116.296 113.122 116.246C113.072 116.196 112.972 116.096 112.873 115.996C112.773 115.896 112.673 115.796 112.573 115.646C112.523 115.596 112.473 115.496 112.423 115.446C112.374 115.346 112.324 115.296 112.274 115.196C112.174 115.046 112.074 114.846 111.974 114.646C111.775 114.246 111.575 113.797 111.425 113.297C111.276 112.797 111.176 112.297 111.126 111.897C111.076 111.697 111.076 111.447 111.076 111.247C111.076 111.147 111.076 111.047 111.076 110.947C111.076 110.848 111.076 110.748 111.076 110.698C111.076 110.548 111.076 110.398 111.076 110.248C111.076 110.098 111.076 109.998 111.126 109.898C111.126 109.798 111.126 109.748 111.176 109.698C111.176 109.648 111.176 109.648 111.176 109.648C111.176 109.648 111.176 109.698 111.176 109.748C111.176 109.798 111.176 109.898 111.176 109.948C111.176 110.048 111.176 110.148 111.176 110.298C111.176 110.448 111.176 110.598 111.176 110.748C111.176 110.848 111.176 110.897 111.176 110.997C111.176 111.097 111.176 111.197 111.176 111.297C111.176 111.497 111.226 111.697 111.226 111.947C111.276 112.397 111.376 112.847 111.525 113.347C111.675 113.847 111.875 114.296 112.074 114.696C112.174 114.896 112.274 115.096 112.374 115.246C112.423 115.346 112.473 115.396 112.523 115.496C112.573 115.596 112.623 115.646 112.673 115.696C112.773 115.846 112.873 115.946 112.922 116.046C113.022 116.146 113.072 116.246 113.122 116.296C113.172 116.346 113.222 116.396 113.272 116.446C113.272 116.396 113.322 116.446 113.322 116.446Z" fill="white"/>
<path d="M117.164 110.443C117.164 110.443 117.065 110.443 116.915 110.293C116.765 110.194 116.615 109.994 116.566 109.744C116.516 109.494 116.566 109.244 116.615 109.094C116.665 108.944 116.765 108.894 116.765 108.894C116.765 108.894 116.715 108.994 116.665 109.144C116.615 109.294 116.566 109.494 116.615 109.744C116.665 109.994 116.815 110.144 116.915 110.244C117.114 110.393 117.164 110.443 117.164 110.443Z" fill="white"/>
<path d="M117.913 107.706C117.913 107.706 117.863 107.606 117.814 107.456C117.764 107.306 117.764 107.206 117.764 107.206C117.764 107.206 117.814 107.306 117.863 107.456C117.913 107.556 117.913 107.706 117.913 107.706Z" fill="white"/>
<path d="M117.815 104.107C117.815 104.107 117.765 104.107 117.615 104.157C117.565 104.157 117.466 104.207 117.366 104.207C117.266 104.207 117.166 104.257 117.066 104.307C116.967 104.357 116.817 104.357 116.717 104.407C116.567 104.457 116.468 104.507 116.318 104.557C116.018 104.707 115.719 104.857 115.42 105.007C115.12 105.206 114.821 105.406 114.621 105.606C114.521 105.706 114.372 105.806 114.272 105.906C114.172 106.006 114.072 106.106 114.022 106.206C113.923 106.306 113.873 106.356 113.823 106.456C113.773 106.506 113.723 106.606 113.673 106.656C113.573 106.756 113.523 106.806 113.523 106.806C113.523 106.806 113.573 106.756 113.623 106.656C113.673 106.606 113.723 106.556 113.773 106.456C113.823 106.406 113.873 106.306 113.973 106.206C114.072 106.106 114.122 106.006 114.222 105.906C114.322 105.806 114.422 105.706 114.521 105.606C114.771 105.406 115.02 105.206 115.32 105.007C115.619 104.807 115.919 104.657 116.218 104.557C116.368 104.507 116.517 104.457 116.617 104.407C116.767 104.357 116.867 104.307 116.967 104.307C117.066 104.257 117.166 104.257 117.266 104.257C117.366 104.257 117.416 104.207 117.515 104.207C117.715 104.107 117.815 104.107 117.815 104.107Z" fill="white"/>
<path d="M122.254 118.148C122.254 118.148 122.205 118.198 122.105 118.248C122.005 118.298 121.905 118.348 121.706 118.448C121.356 118.598 120.907 118.748 120.358 118.848C119.809 118.948 119.31 118.948 118.961 118.898C118.761 118.898 118.662 118.848 118.562 118.848C118.462 118.848 118.412 118.798 118.412 118.798C118.412 118.798 118.462 118.798 118.562 118.798C118.662 118.798 118.811 118.798 118.961 118.798C119.31 118.798 119.809 118.798 120.358 118.698C120.907 118.598 121.356 118.448 121.706 118.348C121.855 118.298 122.005 118.248 122.105 118.198C122.205 118.148 122.254 118.148 122.254 118.148Z" fill="white"/>
<path d="M204.092 96.8191C204.94 99.8682 203.144 103.017 200.1 103.867C197.056 104.717 193.912 102.917 193.064 99.8682C192.215 96.8191 194.012 93.6701 197.056 92.8204C200.1 92.0206 203.243 93.8201 204.092 96.8191Z" fill="#4A83E7"/>
<g opacity="0.1">
<path d="M197.056 92.8667C194.012 93.7164 192.215 96.8655 193.064 99.9145C193.064 99.9145 196.956 99.0148 197.455 97.2154C198.004 95.3659 197.056 92.8667 197.056 92.8667Z" fill="white"/>
</g>
<path d="M202.644 97.1667C203.292 99.466 201.945 101.865 199.6 102.515C197.304 103.165 194.909 101.815 194.26 99.466C193.612 97.1667 194.959 94.7675 197.304 94.1177C199.6 93.4679 201.995 94.8175 202.644 97.1667Z" fill="#4A83E7"/>
<g opacity="0.2">
<path d="M202.644 97.1667C203.292 99.466 201.945 101.865 199.6 102.515C197.304 103.165 194.909 101.815 194.26 99.466C193.612 97.1667 194.959 94.7675 197.304 94.1177C199.6 93.4679 201.995 94.8175 202.644 97.1667Z" fill="black"/>
</g>
<path d="M199.995 102.508C202.252 101.784 203.496 99.3646 202.773 97.1038C202.05 94.8429 199.635 93.5971 197.378 94.3212C195.121 95.0453 193.877 97.4651 194.6 99.7259C195.323 101.987 197.738 103.233 199.995 102.508Z" fill="#4A83E7"/>
<g opacity="0.2">
<path d="M199.995 102.508C202.252 101.784 203.496 99.3646 202.773 97.1038C202.05 94.8429 199.635 93.5971 197.378 94.3212C195.121 95.0453 193.877 97.4651 194.6 99.7259C195.323 101.987 197.738 103.233 199.995 102.508Z" fill="white"/>
</g>
<path d="M198.751 98.0089L198.451 96.9593C198.651 96.9093 198.851 96.9093 199.05 96.9593C199.25 97.0092 199.35 97.0592 199.35 97.0592V97.0092L199.399 96.5594V96.4594L199.15 96.3095L199.05 96.3594C198.801 96.3095 198.501 96.3095 198.202 96.3594L198.052 95.7596L197.853 95.6597L197.902 95.8096L197.653 95.8596L197.803 96.4594C197.004 96.7593 196.755 97.3591 196.904 97.859C197.104 98.6088 197.803 98.6088 198.401 98.5588L198.701 99.6084C198.302 99.6584 197.853 99.6584 197.553 99.5085L197.453 100.108C197.803 100.258 198.352 100.308 198.851 100.208L198.95 100.658L198.751 100.708L199 100.808L199.449 100.708L199.3 100.108C200.098 99.8084 200.348 99.2086 200.198 98.7087C200.048 98.0089 199.35 98.0089 198.751 98.0089ZM198.302 98.0089C197.952 98.0089 197.703 97.959 197.653 97.709C197.603 97.4591 197.703 97.2592 198.052 97.1092L198.302 98.0089ZM199.2 99.5585L198.95 98.6088C199.3 98.6088 199.549 98.6587 199.599 98.9087C199.649 99.2086 199.549 99.4085 199.2 99.5585Z" fill="#4A83E7"/>
<g opacity="0.3">
<path d="M198.751 98.0089L198.451 96.9593C198.651 96.9093 198.851 96.9093 199.05 96.9593C199.25 97.0092 199.35 97.0592 199.35 97.0592V97.0092L199.399 96.5594V96.4594L199.15 96.3095L199.05 96.3594C198.801 96.3095 198.501 96.3095 198.202 96.3594L198.052 95.7596L197.853 95.6597L197.902 95.8096L197.653 95.8596L197.803 96.4594C197.004 96.7593 196.755 97.3591 196.904 97.859C197.104 98.6088 197.803 98.6088 198.401 98.5588L198.701 99.6084C198.302 99.6584 197.853 99.6584 197.553 99.5085L197.453 100.108C197.803 100.258 198.352 100.308 198.851 100.208L198.95 100.658L198.751 100.708L199 100.808L199.449 100.708L199.3 100.108C200.098 99.8084 200.348 99.2086 200.198 98.7087C200.048 98.0089 199.35 98.0089 198.751 98.0089ZM198.302 98.0089C197.952 98.0089 197.703 97.959 197.653 97.709C197.603 97.4591 197.703 97.2592 198.052 97.1092L198.302 98.0089ZM199.2 99.5585L198.95 98.6088C199.3 98.6088 199.549 98.6587 199.599 98.9087C199.649 99.2086 199.549 99.4085 199.2 99.5585Z" fill="black"/>
</g>
<path d="M199.1 100.061L199.25 100.661L198.801 100.761L198.651 100.161C198.152 100.261 197.603 100.261 197.254 100.061L197.354 99.4612C197.653 99.6112 198.102 99.6612 198.502 99.5612L198.202 98.5115C197.603 98.5115 196.905 98.5115 196.705 97.8118C196.556 97.2619 196.805 96.7121 197.603 96.4122L197.454 95.8124L197.903 95.7124L198.053 96.3122C198.452 96.2123 198.851 96.2123 199.2 96.3122L199.15 96.912C198.851 96.8121 198.502 96.8121 198.202 96.862L198.502 97.9117C199.1 97.9117 199.799 97.9117 199.999 98.6115C200.198 99.1613 199.899 99.7612 199.1 100.061ZM198.053 97.9117L197.803 96.962C197.454 97.112 197.354 97.3619 197.404 97.5618C197.504 97.8617 197.753 97.9117 198.053 97.9117ZM199.4 98.8614C199.35 98.6115 199.051 98.5615 198.751 98.5615L199.001 99.5112C199.35 99.3113 199.45 99.1114 199.4 98.8614Z" fill="#4A83E7"/>
<path d="M194.611 102.257C194.561 102.207 194.512 102.157 194.462 102.107C194.412 102.057 194.362 102.007 194.312 101.907C194.262 101.857 194.162 101.757 194.112 101.657C194.062 101.607 194.062 101.557 194.013 101.507C193.963 101.457 193.963 101.407 193.913 101.357C193.813 101.257 193.763 101.107 193.713 101.007C193.563 100.757 193.464 100.407 193.314 100.107C193.214 99.7574 193.164 99.4575 193.114 99.1576C193.114 99.0077 193.064 98.8577 193.064 98.7077C193.064 98.6578 193.064 98.5578 193.064 98.5078C193.064 98.4578 193.064 98.4078 193.064 98.3079C193.064 98.2079 193.064 98.1079 193.064 98.008C193.064 97.908 193.064 97.858 193.064 97.758C193.064 97.808 193.064 97.908 193.064 98.008C193.064 98.1079 193.064 98.2079 193.064 98.3079C193.064 98.3579 193.064 98.4078 193.064 98.5078C193.064 98.5578 193.064 98.6578 193.064 98.7077C193.064 98.8577 193.114 99.0077 193.114 99.1576C193.164 99.4575 193.214 99.7574 193.314 100.107C193.414 100.457 193.563 100.757 193.713 101.007C193.763 101.157 193.863 101.257 193.913 101.357C193.963 101.407 193.963 101.457 194.013 101.507C194.062 101.557 194.062 101.607 194.112 101.657C194.162 101.757 194.262 101.857 194.312 101.907C194.362 101.957 194.412 102.057 194.462 102.107C194.512 102.157 194.561 102.157 194.611 102.257Z" fill="white"/>
<path d="M197.256 98.1586C197.256 98.1586 197.206 98.1586 197.106 98.0586C197.006 98.0086 196.907 97.8587 196.857 97.7087C196.807 97.5587 196.857 97.3588 196.907 97.2588C196.956 97.1589 197.006 97.1089 197.006 97.1089C197.006 97.1089 196.956 97.1589 196.956 97.2588C196.907 97.3588 196.907 97.5088 196.907 97.6587C196.956 97.8087 197.056 97.9586 197.106 98.0086C197.156 98.1586 197.256 98.1586 197.256 98.1586Z" fill="white"/>
<path d="M197.703 96.3121C197.703 96.3121 197.653 96.2621 197.653 96.1622C197.604 96.0622 197.604 96.0122 197.604 95.9622C197.604 95.9122 197.653 96.0122 197.653 96.1122C197.703 96.2621 197.753 96.3121 197.703 96.3121Z" fill="white"/>
<path d="M197.503 93.9617C197.453 93.9617 197.404 93.9617 197.354 94.0117C197.304 94.0117 197.204 94.0617 197.154 94.0617C197.054 94.0617 197.004 94.1117 196.905 94.1617C196.805 94.2117 196.705 94.2116 196.605 94.2616C196.406 94.3616 196.206 94.4616 196.006 94.5615C195.807 94.7115 195.607 94.8115 195.457 94.9614C195.358 95.0114 195.308 95.1114 195.258 95.1614C195.208 95.2113 195.108 95.3113 195.058 95.3613C195.008 95.4113 194.958 95.4613 194.909 95.5112C194.859 95.5612 194.809 95.6112 194.809 95.6612C194.759 95.7112 194.709 95.7612 194.709 95.7612C194.709 95.7612 194.709 95.7112 194.809 95.6612C194.809 95.6112 194.859 95.5612 194.909 95.5112C194.958 95.4613 195.008 95.4113 195.058 95.3613C195.108 95.3113 195.158 95.2113 195.258 95.1614C195.308 95.1114 195.408 95.0114 195.457 94.9614C195.607 94.8115 195.807 94.6615 196.006 94.5615C196.206 94.4116 196.406 94.3116 196.605 94.2616C196.705 94.2116 196.805 94.1617 196.905 94.1617C197.004 94.1117 197.054 94.1117 197.154 94.0617C197.254 94.0617 197.304 94.0117 197.354 94.0117C197.404 94.0117 197.453 94.0117 197.503 93.9617Z" fill="white"/>
<path d="M200.698 103.406C200.698 103.406 200.648 103.406 200.599 103.456C200.549 103.506 200.449 103.556 200.349 103.556C200.149 103.656 199.8 103.756 199.451 103.806C199.102 103.856 198.752 103.856 198.503 103.856C198.403 103.856 198.303 103.856 198.203 103.806C198.253 103.806 198.353 103.806 198.503 103.806C198.752 103.806 199.102 103.806 199.451 103.756C199.8 103.706 200.149 103.606 200.349 103.506C200.449 103.456 200.549 103.406 200.599 103.406C200.648 103.406 200.698 103.406 200.698 103.406Z" fill="white"/>
<path d="M179.341 160.589H146.457V231.467H179.341V160.589Z" fill="#4A83E7"/>
<g opacity="0.3">
<path d="M179.291 160.589H169.111V231.467H179.291V160.589Z" fill="black"/>
</g>
<path d="M169.113 231.466C169.013 231.466 168.963 215.771 168.963 196.427C168.963 177.083 169.013 161.388 169.113 161.388C169.212 161.388 169.262 177.083 169.262 196.427C169.262 215.771 169.212 231.466 169.113 231.466Z" fill="#263238"/>
<path d="M139.22 135.597H106.336V231.467H139.22V135.597Z" fill="#4A83E7"/>
<g opacity="0.3">
<path d="M139.221 135.597H129.041V231.467H139.221V135.597Z" fill="black"/>
</g>
<path d="M129.04 231.467C128.941 231.467 128.891 210.224 128.891 184.082C128.891 157.89 128.941 136.697 129.04 136.697C129.14 136.697 129.19 157.89 129.19 184.082C129.14 210.224 129.09 231.467 129.04 231.467Z" fill="#263238"/>
<path d="M219.859 181.181H186.975V231.416H219.859V181.181Z" fill="#4A83E7"/>
<g opacity="0.3">
<path d="M219.859 181.181H209.68V231.416H219.859V181.181Z" fill="black"/>
</g>
<path d="M209.679 231.467C209.579 231.467 209.529 220.321 209.529 206.625C209.529 192.879 209.579 181.783 209.679 181.783C209.779 181.783 209.829 192.879 209.829 206.625C209.829 220.321 209.729 231.467 209.679 231.467Z" fill="#263238"/>
<path d="M259.529 204.027H226.645V231.468H259.529V204.027Z" fill="#4A83E7"/>
<g opacity="0.3">
<path d="M259.529 204.027H249.35V231.468H259.529V204.027Z" fill="black"/>
</g>
<path d="M249.349 231.47C249.249 231.47 249.199 225.422 249.199 217.924C249.199 210.427 249.249 204.378 249.349 204.378C249.449 204.378 249.499 210.427 249.499 217.924C249.499 225.372 249.399 231.47 249.349 231.47Z" fill="#263238"/>
<path d="M299.65 213.521H266.766V231.465H299.65V213.521Z" fill="#4A83E7"/>
<g opacity="0.3">
<path d="M299.65 213.521H289.471V231.465H299.65V213.521Z" fill="black"/>
</g>
<path d="M289.47 231.462C289.37 231.462 289.32 227.513 289.32 222.614C289.32 217.716 289.37 213.767 289.47 213.767C289.57 213.767 289.62 217.716 289.62 222.614C289.57 227.463 289.52 231.462 289.47 231.462Z" fill="#263238"/>
<path d="M99.1029 104.054H66.2188V231.415H99.1029V104.054Z" fill="#4A83E7"/>
<g opacity="0.3">
<path d="M99.1034 104.054H88.9238V231.415H99.1034V104.054Z" fill="black"/>
</g>
<path d="M88.9231 231.966C88.8233 231.966 88.7734 203.675 88.7734 168.736C88.7734 133.797 88.8233 105.505 88.9231 105.505C89.0229 105.505 89.0728 133.797 89.0728 168.736C89.0728 203.625 88.973 231.966 88.9231 231.966Z" fill="#263238"/>
<path d="M59.0325 78.2124H26.1484V231.965H59.0325V78.2124Z" fill="#4A83E7"/>
<g opacity="0.3">
<path d="M58.9823 78.2124H48.8027V231.965H58.9823V78.2124Z" fill="black"/>
</g>
<path d="M48.802 231.963C48.7022 231.963 48.6523 197.924 48.6523 155.987C48.6523 114 48.7022 79.9606 48.802 79.9606C48.9018 79.9606 48.9517 114 48.9517 155.987C48.9517 197.924 48.9018 231.963 48.802 231.963Z" fill="#263238"/>
<path d="M52.2288 64.5585C61.7911 58.0742 64.2951 45.0527 57.8217 35.4743C51.3484 25.8958 38.3489 23.3875 28.7866 29.8719C19.2244 36.3562 16.7204 49.3777 23.1937 58.9561C29.6671 68.5346 42.6666 71.0428 52.2288 64.5585Z" fill="#4A83E7"/>
<path opacity="0.3" d="M52.2288 64.5585C61.7911 58.0742 64.2951 45.0527 57.8217 35.4743C51.3484 25.8958 38.3489 23.3875 28.7866 29.8719C19.2244 36.3562 16.7204 49.3777 23.1937 58.9561C29.6671 68.5346 42.6666 71.0428 52.2288 64.5585Z" fill="black"/>
<path d="M52.2366 62.2577C61.7989 55.7734 64.3029 42.7519 57.8295 33.1735C51.3562 23.595 38.3567 21.0867 28.7945 27.5711C19.2322 34.0554 16.7282 47.0769 23.2015 56.6553C29.6749 66.2338 42.6744 68.7421 52.2366 62.2577Z" fill="#4A83E7"/>
<path d="M40.5189 58.9186C48.2354 58.9186 54.4909 52.6525 54.4909 44.9229C54.4909 37.1933 48.2354 30.9272 40.5189 30.9272C32.8024 30.9272 26.5469 37.1933 26.5469 44.9229C26.5469 52.6525 32.8024 58.9186 40.5189 58.9186Z" fill="white"/>
<path d="M45.3456 49.7499C48.0153 47.0756 48.0153 42.7398 45.3456 40.0656C42.6759 37.3913 38.3474 37.3913 35.6777 40.0656C33.008 42.7398 33.008 47.0756 35.6777 49.7499C38.3474 52.4241 42.6759 52.4241 45.3456 49.7499Z" fill="#4A83E7"/>
<path d="M57.2872 27.2294L56.7383 22.7308L61.2792 17.8823L61.5786 22.6808L57.2872 27.2294Z" fill="#455A64"/>
<path d="M67.0175 23.6787L62.4267 23.2788L57.8359 27.7274L62.4267 28.2273L67.0175 23.6787Z" fill="#455A64"/>
<path opacity="0.3" d="M41.418 44.8247L57.386 32.6284C56.8371 31.8287 56.1385 30.979 55.39 30.1792L41.418 43.725V44.8247Z" fill="black"/>
<path d="M61.9772 21.4808C59.5321 23.98 57.087 26.4292 54.6419 28.9284C50.7497 32.8772 46.9074 36.776 43.0152 40.7248C42.117 41.6245 41.2188 42.5242 40.3206 43.424C39.4723 44.2737 40.8196 45.6233 41.6679 44.7735C44.113 42.2743 46.5581 39.8251 49.0032 37.3258C52.8954 33.3771 56.7377 29.4783 60.6299 25.5295C61.5281 24.6298 62.4263 23.7301 63.3245 22.8303C64.1728 21.9806 62.8255 20.631 61.9772 21.4808Z" fill="#263238"/>
<path d="M40.5188 18.683C40.4689 18.683 40.3691 14.6843 40.3691 9.7358C40.3691 4.78733 40.419 0.788574 40.5188 0.788574C40.5687 0.788574 40.6685 4.78733 40.6685 9.7358C40.6186 14.6843 40.5687 18.683 40.5188 18.683Z" fill="#263238"/>
<path d="M53.9924 9.33425C54.0423 9.38424 52.6451 11.3836 50.7988 13.8329C49.0024 16.2821 47.4555 18.1815 47.4056 18.1815C47.3557 18.1315 48.7529 16.1321 50.5992 13.6829C52.3956 11.2337 53.9425 9.28427 53.9924 9.33425Z" fill="#263238"/>
<path d="M26.8473 8.93591C26.8972 8.88593 28.1447 11.0353 29.5918 13.6844C31.0389 16.3336 32.1866 18.5329 32.1367 18.5829C32.0868 18.6329 30.8393 16.4836 29.3922 13.8344C27.8952 11.1352 26.7974 8.9859 26.8473 8.93591Z" fill="#263238"/>
<path d="M249.799 63.7623L253.791 63.3125C255.388 64.962 257.483 66.1616 259.829 66.7614C266.665 68.4609 273.601 64.2622 275.298 57.3643C276.994 50.5165 272.803 43.5686 265.917 41.8691C259.08 40.1697 252.144 44.3684 250.448 51.2662C249.749 54.1153 250.048 57.0144 251.196 59.5137L249.799 63.7623Z" fill="white"/>
<path d="M249.799 63.7628C249.799 63.7628 249.799 63.6628 249.899 63.5129C249.949 63.3129 250.048 63.063 250.148 62.7131C250.398 61.9633 250.697 60.9137 251.146 59.5141L251.196 59.4141L251.246 59.5141L251.146 59.5641C250.448 58.0146 249.849 55.8652 250.048 53.266C250.148 51.9664 250.448 50.6169 251.046 49.2673C251.595 47.9177 252.444 46.5681 253.591 45.3685C254.739 44.1689 256.136 43.1692 257.783 42.4694C259.43 41.7696 261.276 41.3697 263.172 41.4197C266.964 41.4697 271.006 43.4191 273.402 46.868C274.599 48.6175 275.447 50.6169 275.697 52.6662C275.946 54.7156 275.747 56.765 275.098 58.6144C274.449 60.4638 273.402 62.0633 272.154 63.3629C270.907 64.6625 269.41 65.6122 267.863 66.262C264.769 67.5616 261.625 67.4616 259.18 66.6619C256.685 65.9121 254.939 64.5625 253.791 63.3629H253.841C252.543 63.5129 251.545 63.6128 250.847 63.6628C250.547 63.7128 250.248 63.7128 250.098 63.7628C249.849 63.7628 249.799 63.7628 249.799 63.7628C249.799 63.7628 249.899 63.7628 250.048 63.7128C250.248 63.7128 250.497 63.6628 250.797 63.6128C251.495 63.5129 252.444 63.4129 253.741 63.213H253.791C254.939 64.3626 256.735 65.7122 259.18 66.412C261.575 67.1617 264.719 67.2117 267.763 65.9621C269.26 65.3123 270.707 64.3626 271.954 63.113C273.202 61.8134 274.25 60.2639 274.849 58.4144C275.447 56.615 275.697 54.6156 275.447 52.6162C275.198 50.6169 274.4 48.6675 273.202 46.918C270.857 43.5191 266.915 41.6197 263.172 41.5697C261.326 41.5197 259.479 41.9196 257.883 42.6193C256.286 43.3191 254.889 44.3188 253.741 45.4685C252.643 46.6181 251.795 47.9677 251.196 49.2673C250.647 50.6169 250.298 51.9664 250.198 53.2161C249.998 55.7653 250.547 57.9146 251.246 59.4141L251.396 59.814L251.146 59.4641H251.246C250.797 60.8137 250.448 61.9134 250.198 62.6131C250.098 62.963 249.998 63.213 249.899 63.4129C249.849 63.6628 249.799 63.7628 249.799 63.7628Z" fill="#263238"/>
<path d="M256.588 54.7671L258.185 53.0676L261.428 55.7667L267.366 49.6187L268.963 51.2182L261.278 58.9658L256.588 54.7671Z" fill="#4A83E7"/>
<path d="M192.913 72.5662C192.015 71.5666 190.767 70.6169 190.468 70.4169C189.919 70.067 189.02 69.8671 189.02 69.8671C189.02 69.8671 181.585 67.8177 180.038 67.6678C178.492 67.5178 178.641 68.8174 180.088 69.0673C181.536 69.3173 184.629 70.5669 184.629 70.5669C184.629 70.5669 183.981 70.6668 183.931 71.3166C183.881 71.9664 184.33 72.1164 184.33 72.1164C184.33 72.1164 183.931 72.6662 183.931 73.0161C183.931 73.366 184.28 73.8658 184.28 73.8658C184.28 73.8658 183.731 74.3157 183.931 74.8156C184.08 75.3154 184.879 76.0152 184.879 76.0152C184.879 76.0152 188.072 78.0146 188.721 78.0645C189.42 78.1145 190.218 78.2645 190.218 78.2645L191.316 79.0642L194.31 74.3657C194.31 74.3657 193.861 73.6659 192.913 72.5662Z" fill="#FFBF9D"/>
<path d="M184.629 70.519C184.629 70.519 184.928 70.619 185.278 70.6689C185.627 70.7189 185.926 70.7689 185.926 70.7689C185.926 70.7689 185.627 70.6689 185.278 70.6189C184.928 70.569 184.629 70.519 184.629 70.519Z" fill="#FF9A6C"/>
<path d="M184.33 72.1169C184.33 72.1169 184.629 72.2169 184.929 72.3168C185.278 72.4168 185.578 72.5168 185.578 72.4668C185.578 72.4668 185.328 72.3168 184.979 72.2168C184.629 72.1169 184.33 72.1169 184.33 72.1169Z" fill="#FF9A6C"/>
<path d="M184.131 73.6187C184.131 73.6187 184.43 73.7686 184.78 73.9186C185.129 74.0685 185.428 74.2185 185.478 74.1685C185.478 74.1685 185.229 73.9685 184.829 73.8186C184.48 73.6686 184.131 73.6187 184.131 73.6187Z" fill="#FF9A6C"/>
<path d="M247.953 145.845C247.953 145.845 246.655 133.698 243.811 132.349C240.967 130.999 237.025 130.099 235.977 131.949C234.879 133.748 233.781 136.497 233.382 139.396C232.933 142.296 233.182 146.744 233.182 146.744L236.426 146.394C236.426 146.394 236.276 134.298 237.274 132.499C238.272 130.699 243.262 132.149 243.761 134.298C244.31 136.447 245.508 146.144 245.508 146.144L247.953 145.845Z" fill="#455A64"/>
<path d="M259.231 162.94C259.081 157.941 258.582 146.895 258.382 142.046C258.333 140.746 257.235 139.697 255.887 139.697L226.147 139.897C224.8 139.897 223.752 140.946 223.702 142.296L223.103 162.84C223.053 164.239 224.151 165.389 225.548 165.389L256.686 165.539C258.133 165.489 259.281 164.339 259.231 162.94Z" fill="#455A64"/>
<path d="M225.797 147.445C225.797 147.445 225.797 147.495 225.797 147.645C225.797 147.794 225.797 148.044 225.797 148.294C225.797 148.894 225.797 149.744 225.797 150.844C225.797 153.093 225.847 156.342 225.847 160.341C225.847 160.591 225.847 160.84 225.847 161.09C225.847 161.34 225.897 161.64 225.996 161.89C226.146 162.14 226.346 162.34 226.595 162.44C226.845 162.59 227.144 162.59 227.444 162.54C228.541 162.54 229.689 162.54 230.837 162.54C233.182 162.54 235.677 162.54 238.322 162.54C240.966 162.54 243.711 162.54 246.605 162.54C248.052 162.54 249.499 162.54 250.996 162.54C251.745 162.54 252.493 162.54 253.242 162.54H253.791C253.99 162.54 254.19 162.54 254.39 162.49C254.789 162.39 255.138 162.09 255.338 161.74C255.437 161.59 255.437 161.39 255.487 161.24C255.487 161.04 255.487 160.89 255.487 160.74C255.487 160.391 255.487 160.091 255.487 159.741C255.487 159.091 255.437 158.441 255.437 157.791C255.388 156.492 255.388 155.242 255.338 153.993C255.288 151.493 255.238 149.094 255.188 146.795V146.695H255.088C246.555 147.195 239.22 147.345 234.03 147.395C231.436 147.395 229.39 147.395 227.992 147.395C227.294 147.395 226.745 147.395 226.346 147.395C226.146 147.395 226.046 147.395 225.947 147.395C225.847 147.445 225.797 147.445 225.797 147.445C225.797 147.445 225.847 147.445 225.947 147.445C226.046 147.445 226.196 147.445 226.346 147.445C226.695 147.445 227.244 147.495 227.943 147.495C229.34 147.545 231.436 147.545 233.98 147.545C239.17 147.545 246.505 147.445 255.038 146.945L254.938 146.845C254.988 149.144 255.038 151.543 255.088 154.043C255.138 155.292 255.138 156.542 255.188 157.841C255.188 158.491 255.238 159.141 255.238 159.791C255.238 160.091 255.238 160.441 255.238 160.79C255.238 161.14 255.288 161.44 255.138 161.69C254.988 161.99 254.689 162.24 254.34 162.34C254.19 162.39 253.99 162.39 253.791 162.39H253.242C252.493 162.39 251.745 162.39 250.996 162.39C249.499 162.39 248.052 162.39 246.605 162.39C243.711 162.39 240.966 162.39 238.322 162.44C235.677 162.44 233.182 162.44 230.837 162.49C229.639 162.49 228.541 162.49 227.444 162.49C227.144 162.49 226.895 162.49 226.695 162.39C226.446 162.29 226.296 162.09 226.146 161.89C226.046 161.69 225.996 161.44 225.996 161.19C225.996 160.94 225.996 160.69 225.996 160.441C225.947 156.442 225.897 153.243 225.847 150.993C225.847 149.894 225.797 148.994 225.797 148.394C225.797 148.094 225.797 147.894 225.797 147.695C225.797 147.495 225.797 147.445 225.797 147.445Z" fill="#263238"/>
<path d="M234.332 160.639C234.332 160.639 234.132 160.639 233.833 160.589C233.483 160.489 232.984 160.339 232.535 159.889C232.086 159.439 231.737 158.64 231.787 157.74C231.787 156.79 231.787 155.741 231.787 154.591C231.787 153.991 231.787 153.391 231.787 152.741C231.737 152.092 231.887 151.442 232.336 150.942C232.735 150.392 233.384 150.042 234.082 149.992C234.781 149.992 235.579 149.992 236.328 149.992C239.422 149.942 242.865 149.942 246.408 149.892C247.256 149.892 248.104 150.342 248.503 151.092C248.703 151.442 248.853 151.842 248.853 152.292C248.853 152.741 248.853 153.141 248.853 153.591C248.853 154.441 248.853 155.291 248.903 156.09C248.903 156.49 248.903 156.89 248.903 157.29C248.903 157.69 248.952 158.09 248.903 158.44C248.803 159.189 248.354 159.839 247.755 160.189C247.455 160.389 247.106 160.489 246.757 160.539C246.408 160.589 246.058 160.539 245.709 160.589C244.312 160.589 243.064 160.639 241.867 160.639C239.521 160.689 237.625 160.689 236.328 160.739C235.679 160.739 235.18 160.789 234.831 160.789C234.681 160.789 234.531 160.789 234.432 160.789C234.382 160.639 234.332 160.639 234.332 160.639C234.332 160.639 234.382 160.639 234.481 160.639C234.581 160.639 234.731 160.639 234.881 160.639C235.23 160.639 235.729 160.639 236.378 160.639C237.725 160.639 239.621 160.639 241.917 160.639C243.114 160.639 244.362 160.639 245.759 160.639C246.108 160.639 246.457 160.639 246.807 160.589C247.156 160.539 247.555 160.439 247.855 160.239C248.503 159.839 249.002 159.14 249.102 158.34C249.152 157.94 249.102 157.54 249.102 157.14C249.102 156.74 249.102 156.34 249.102 155.94C249.102 155.141 249.102 154.291 249.102 153.441C249.102 153.041 249.102 152.592 249.102 152.142C249.102 151.692 248.952 151.242 248.703 150.842C248.254 150.042 247.306 149.542 246.408 149.542C242.815 149.592 239.422 149.592 236.328 149.642C235.529 149.642 234.781 149.642 234.032 149.692C233.284 149.742 232.585 150.142 232.136 150.692C231.687 151.242 231.537 151.992 231.587 152.642C231.587 153.291 231.587 153.891 231.587 154.491C231.587 155.641 231.637 156.74 231.637 157.64C231.637 157.89 231.637 158.09 231.687 158.34C231.737 158.54 231.787 158.79 231.837 158.94C231.986 159.339 232.186 159.639 232.436 159.889C232.935 160.339 233.434 160.539 233.783 160.589C234.182 160.639 234.332 160.639 234.332 160.639Z" fill="#263238"/>
<g opacity="0.3">
<path d="M254.59 162.441C245.808 165.14 236.177 165.14 227.395 162.491L254.59 162.441Z" fill="black"/>
</g>
<path d="M237.625 152.992L241.317 152.942C241.816 152.942 242.216 152.542 242.216 152.043V151.843C242.216 151.343 241.816 150.943 241.317 150.943L237.625 150.993C237.126 150.993 236.727 151.393 236.727 151.893V152.093C236.727 152.592 237.126 152.992 237.625 152.992Z" fill="#E0E0E0"/>
<path d="M237.874 127.3C237.874 127.3 236.876 128.2 236.526 128.8C236.177 129.4 235.578 132.099 235.578 132.099C235.578 132.099 236.077 132.549 236.975 131.149C237.874 129.75 238.123 129.05 238.123 129.05L237.874 127.3Z" fill="#FFBF9D"/>
<path d="M242.265 122.001L241.067 124.101L237.824 127.4L236.576 132.298C236.427 132.798 236.477 133.348 236.726 133.848C236.826 133.998 236.926 134.148 237.075 134.198C237.425 134.348 238.473 133.798 238.473 133.798C238.473 133.798 239.221 134.748 240.019 134.198C240.019 134.198 241.167 134.797 241.816 134.198C241.816 134.198 242.564 134.797 243.113 134.398C243.662 134.048 245.209 131.748 245.209 131.748L247.305 124.201L242.265 122.001Z" fill="#FFBF9D"/>
<path d="M249.899 80.814C249.899 80.814 251.945 82.1635 252.094 84.9127C252.194 86.9621 253.691 100.858 253.591 104.607C253.442 108.355 247.104 126.05 247.104 126.05L240.068 123.951L246.156 104.157L245.557 91.7106L249.899 80.814Z" fill="#EBEBEB"/>
<path d="M237.623 50.2231C237.274 49.5233 236.425 49.0734 235.627 49.1734C234.729 48.4236 233.282 48.3736 232.384 49.1234C231.685 48.6735 230.787 48.6236 230.088 49.0234C229.39 49.3733 228.841 50.1231 228.791 50.9229C227.992 50.7729 227.094 51.1728 226.695 51.8726C226.296 52.5723 226.396 53.522 226.944 54.1219C226.046 54.3718 225.447 55.3715 225.597 56.2712C225.747 57.1709 226.695 57.8707 227.593 57.8207L237.174 52.4224C237.773 51.8726 237.972 50.9728 237.623 50.2231Z" fill="#263238"/>
<path d="M226.396 68.2148C226.446 66.1655 226.895 61.9168 227.344 58.068C227.843 53.9693 231.386 50.8702 235.578 51.0202H235.977C240.418 51.42 242.564 55.4188 242.015 59.8174L240.767 73.7631L232.135 81.5607L230.239 76.0624L230.538 73.2633C230.588 73.2633 226.296 72.4635 226.396 68.2148Z" fill="#FFBF9D"/>
<path d="M230.535 73.2614C230.535 73.2614 233.28 73.5113 236.224 71.8118C236.224 71.8118 234.777 74.8109 230.535 74.3111V73.2614Z" fill="#FF9A6C"/>
<path d="M228.443 61.7581C228.443 62.058 228.693 62.358 228.992 62.4079C229.342 62.4579 229.641 62.208 229.641 61.8581C229.641 61.5582 229.391 61.2583 229.092 61.2083C228.743 61.2083 228.443 61.4582 228.443 61.7581Z" fill="#263238"/>
<path d="M228.193 60.23C228.243 60.33 228.742 59.9801 229.391 60.0301C230.039 60.0301 230.538 60.38 230.588 60.33C230.638 60.28 230.538 60.13 230.339 59.9801C230.139 59.8301 229.79 59.6802 229.391 59.6302C228.992 59.6302 228.642 59.7801 228.443 59.8801C228.193 60.0301 228.143 60.18 228.193 60.23Z" fill="#263238"/>
<path d="M234.381 62.1156C234.381 62.4155 234.63 62.7154 234.93 62.7654C235.279 62.8153 235.578 62.5654 235.578 62.2155C235.578 61.9156 235.329 61.6157 235.03 61.5657C234.73 61.5657 234.431 61.7657 234.381 62.1156Z" fill="#263238"/>
<path d="M234.678 60.568C234.727 60.668 235.226 60.3181 235.875 60.3681C236.524 60.3681 237.023 60.718 237.073 60.668C237.123 60.618 237.023 60.468 236.823 60.3181C236.624 60.1681 236.274 60.0182 235.875 59.9682C235.476 59.9682 235.127 60.1182 234.927 60.2181C234.678 60.3681 234.628 60.518 234.678 60.568Z" fill="#263238"/>
<path d="M232.086 65.327C232.086 65.277 231.687 65.227 231.038 65.0771C230.889 65.0771 230.689 65.0271 230.689 64.8771C230.639 64.7772 230.739 64.5772 230.839 64.3773C230.989 63.9774 231.188 63.5775 231.388 63.1277C232.136 61.3282 232.685 59.8787 232.635 59.8287C232.585 59.7787 231.887 61.2283 231.138 63.0277C230.939 63.4776 230.789 63.8775 230.639 64.2773C230.589 64.4773 230.44 64.6772 230.539 64.9271C230.589 65.0771 230.689 65.1271 230.789 65.1771C230.889 65.227 230.989 65.227 231.088 65.227C231.687 65.327 232.086 65.377 232.086 65.327Z" fill="#263238"/>
<path d="M234.03 65.8585C233.931 65.8585 233.881 66.5583 233.282 67.0581C232.633 67.558 231.885 67.458 231.885 67.558C231.885 67.608 232.034 67.7079 232.384 67.7079C232.683 67.7079 233.182 67.6579 233.531 67.358C233.931 67.0581 234.08 66.6582 234.13 66.3583C234.13 66.0084 234.08 65.8085 234.03 65.8585Z" fill="#263238"/>
<path d="M234.58 57.967C234.63 58.1669 235.279 58.0669 236.077 58.2169C236.875 58.3169 237.474 58.5668 237.574 58.4168C237.624 58.3169 237.524 58.1669 237.275 57.967C237.025 57.767 236.626 57.6171 236.177 57.5171C235.728 57.4671 235.279 57.5171 234.979 57.6171C234.68 57.767 234.58 57.867 234.58 57.967Z" fill="#263238"/>
<path d="M228.491 58.3159C228.59 58.4659 229.04 58.3159 229.588 58.3659C230.137 58.3659 230.586 58.5159 230.686 58.3659C230.736 58.3159 230.686 58.116 230.487 58.016C230.287 57.8661 229.988 57.7661 229.588 57.7161C229.189 57.7161 228.89 57.8161 228.69 57.966C228.491 58.066 228.441 58.216 228.491 58.3159Z" fill="#263238"/>
<path d="M227.793 56.12C227.793 56.12 229.041 53.4708 230.338 52.921C231.935 52.2212 232.534 53.9707 234.081 53.5708C235.578 53.2209 237.125 52.5211 238.622 53.7207C240.268 55.0203 239.42 55.8701 239.47 57.7695C239.62 65.4671 240.967 67.6664 241.466 64.0675C241.516 63.6677 242.664 63.4177 242.863 61.7183C243.163 59.5689 243.312 56.9197 242.913 55.3702C242.564 54.0706 241.815 53.1209 240.518 52.1212C238.472 50.4717 235.578 50.3718 233.582 50.4717C231.636 50.6717 227.744 52.771 227.793 56.12Z" fill="#263238"/>
<path d="M241.216 64.0208C241.266 63.371 241.865 62.8711 242.514 62.9711C243.312 63.0711 244.21 63.5709 244.061 65.2204C243.861 68.1195 240.967 67.3197 240.967 67.2697C240.967 67.1198 241.116 65.2204 241.216 64.0208Z" fill="#FFBF9D"/>
<path d="M241.664 66.1676C241.664 66.1676 241.714 66.2176 241.814 66.2675C241.914 66.3175 242.063 66.3675 242.213 66.3175C242.512 66.2176 242.812 65.7677 242.862 65.2179C242.912 64.9679 242.862 64.718 242.762 64.4681C242.662 64.2682 242.562 64.0682 242.413 64.0682C242.263 64.0182 242.163 64.1182 242.113 64.1682C242.063 64.2682 242.063 64.3182 242.063 64.3182C242.063 64.3182 242.013 64.2682 242.013 64.1682C242.013 64.1182 242.063 64.0682 242.163 64.0182C242.213 63.9683 242.363 63.9683 242.462 63.9683C242.712 64.0182 242.862 64.2182 242.961 64.4681C243.061 64.718 243.111 65.0179 243.061 65.2679C243.011 65.8677 242.662 66.3675 242.213 66.4675C242.013 66.5175 241.814 66.4175 241.764 66.3675C241.664 66.2176 241.664 66.1676 241.664 66.1676Z" fill="#FF9A6C"/>
<path d="M241.318 58.3628C240.919 58.6127 240.52 58.8626 240.071 58.9126C239.622 58.9626 239.073 58.6627 239.023 58.2128C238.973 58.0129 239.073 57.763 238.923 57.613C238.773 57.4131 238.474 57.4631 238.224 57.4631C237.376 57.5131 236.528 56.9132 236.328 56.0635C236.079 56.3634 235.58 56.3634 235.28 56.1135C234.981 55.9135 234.781 55.5137 234.532 55.2138C234.282 54.9139 233.933 54.6139 233.534 54.6639C233.334 54.6639 233.085 54.8139 232.885 54.7639C232.486 54.7139 232.336 54.2641 232.286 53.8642C232.236 53.4643 232.236 53.0144 231.887 52.8145C231.588 52.6146 231.189 52.7145 230.839 52.7645C230.49 52.8145 230.041 52.7145 229.941 52.3646C229.891 52.1647 229.991 52.0148 230.091 51.8648C230.59 51.165 231.588 50.8651 232.336 51.215C232.636 50.2653 233.584 49.5655 234.582 49.4655C235.58 49.4156 236.628 49.9654 237.077 50.8651C237.725 50.3153 238.624 50.1153 239.422 50.3153C240.22 50.5152 240.919 51.165 241.218 51.9148C241.917 51.7648 242.765 52.0647 243.165 52.6646C243.614 53.2644 243.614 54.1141 243.264 54.7639C243.763 55.0638 244.212 55.6136 244.212 56.2135C244.212 56.8133 243.614 57.4131 243.015 57.2131C243.214 57.713 243.015 58.3128 242.566 58.5627C242.117 58.8126 241.468 58.6127 241.169 58.1629" fill="#263238"/>
<path d="M243.262 57.269C243.262 57.269 243.312 57.519 243.063 57.8189C242.963 57.9688 242.713 58.1188 242.464 58.1688C242.214 58.2188 241.865 58.1188 241.615 57.9188H241.765C241.615 58.1688 241.416 58.4187 241.166 58.6186C241.017 58.7686 240.817 58.8685 240.617 58.9185C240.418 58.9685 240.218 58.9685 240.019 58.9685C239.669 58.9185 239.32 58.7186 239.17 58.4687C239.021 58.2187 238.971 58.0188 238.971 57.8689C238.971 57.7189 238.971 57.6189 238.971 57.6189C238.971 57.6189 239.021 57.7189 239.071 57.8189C239.12 57.9688 239.17 58.1688 239.32 58.3687C239.57 58.8186 240.468 59.0185 241.067 58.4687C241.316 58.2687 241.516 58.0188 241.665 57.8189L241.715 57.7189L241.765 57.7689C241.965 57.9688 242.214 58.0188 242.464 58.0188C242.713 58.0188 242.863 57.8689 243.013 57.7689C243.212 57.519 243.212 57.269 243.262 57.269Z" fill="#455A64"/>
<path d="M235.028 66.3139C234.978 66.3139 234.978 66.014 234.729 65.7641C234.479 65.5142 234.18 65.4642 234.18 65.4142C234.18 65.4142 234.279 65.3642 234.379 65.4142C234.529 65.4642 234.679 65.5142 234.828 65.6641C234.978 65.8141 235.028 66.014 235.028 66.114C235.078 66.2139 235.028 66.3139 235.028 66.3139Z" fill="#FF9A6C"/>
<path d="M235.329 65.5212C235.279 65.5212 235.18 65.4212 235.03 65.3712C234.88 65.2713 234.73 65.2713 234.73 65.2213C234.73 65.1713 234.93 65.1213 235.13 65.2213C235.279 65.3213 235.329 65.4712 235.329 65.5212Z" fill="#FF9A6C"/>
<path d="M229.938 49.0753C229.938 49.0253 229.638 49.2253 229.389 49.7251C229.289 49.975 229.139 50.2749 229.139 50.6248C229.09 50.9747 229.189 51.4246 229.439 51.7245C229.688 52.0744 230.038 52.2743 230.337 52.4243C230.636 52.5742 230.936 52.6742 231.185 52.7742C231.684 52.9241 231.984 53.0241 231.984 52.9741C231.984 52.9241 231.684 52.8242 231.235 52.6242C230.986 52.5242 230.686 52.4243 230.387 52.2743C230.088 52.1244 229.788 51.9244 229.539 51.6245C229.339 51.3246 229.239 50.9747 229.239 50.6248C229.239 50.2749 229.339 50.025 229.439 49.7751C229.688 49.3252 229.938 49.1253 229.938 49.0753Z" fill="#E0E0E0"/>
<path d="M228.042 51.0171C228.042 51.0171 227.992 51.217 228.092 51.467C228.191 51.7669 228.391 52.1168 228.69 52.4167C229.04 52.7166 229.439 52.8665 229.688 52.9665C229.988 53.0165 230.187 52.9665 230.138 52.9665C230.138 52.9165 229.988 52.9165 229.688 52.8165C229.439 52.7166 229.09 52.5666 228.79 52.2667C228.491 51.9668 228.291 51.6669 228.191 51.417C228.142 51.167 228.092 51.0171 228.042 51.0171Z" fill="#E0E0E0"/>
<path d="M224.998 78.9665L220.756 112.756C220.557 114.406 222.054 117.405 223.65 117.804L245.008 120.154C246.305 120.354 247.353 119.404 247.503 118.054C248.052 113.456 248.401 103.859 249.05 97.5607C249.798 90.6629 251.095 81.8656 249.499 80.616C246.155 78.0168 241.315 75.6175 241.315 75.6175L240.966 72.4685C240.966 72.4685 231.435 73.5682 229.838 74.9677L229.09 78.0168L224.998 78.9665Z" fill="#EBEBEB"/>
<path d="M228.391 78.3666L208.83 80.2161L193.611 72.7184L190.367 79.4163L192.712 80.6159C196.455 83.0152 203.291 88.0636 206.185 89.3132C210.177 91.0627 230.237 88.8134 230.237 88.8134L228.391 78.3666Z" fill="#EBEBEB"/>
<path d="M222.803 89.6616C222.803 89.6117 223.252 89.6616 224.1 89.4617C224.899 89.2618 226.096 88.8119 227.144 87.7622C228.192 86.7126 229.09 85.0631 229.19 83.0637C229.24 82.064 229.041 81.0643 228.542 80.1146C228.292 79.6647 227.993 79.2149 227.494 78.965C226.995 78.765 226.446 78.715 225.897 78.765C221.306 79.1149 217.164 79.5148 214.17 79.7647C212.673 79.9147 211.476 80.0146 210.627 80.0646C210.228 80.1146 209.929 80.1146 209.679 80.1146C209.48 80.1146 209.33 80.1146 209.33 80.1146C209.33 80.1146 209.43 80.0646 209.679 80.0646C209.929 80.0146 210.228 80.0146 210.627 79.9646C211.476 79.8647 212.723 79.7147 214.17 79.5648C217.164 79.2649 221.306 78.815 225.947 78.4651C226.546 78.4151 227.144 78.4651 227.693 78.6651C228.242 78.915 228.591 79.4148 228.841 79.9147C229.34 80.9144 229.54 82.014 229.49 83.0137C229.34 85.0631 228.442 86.7625 227.344 87.8122C226.246 88.9119 225.049 89.3617 224.2 89.5117C223.801 89.6117 223.452 89.6117 223.252 89.6117C222.953 89.7116 222.803 89.7116 222.803 89.6616Z" fill="#263238"/>
<path d="M241.314 75.6154C241.314 75.6654 240.616 75.7653 239.518 75.9653C238.42 76.1652 236.873 76.5151 235.227 76.915C233.53 77.3148 232.033 77.6647 230.885 77.8147C230.336 77.9147 229.887 77.9646 229.538 77.9646C229.239 78.0146 229.039 78.0146 229.039 77.9646C229.039 77.9147 229.738 77.8147 230.835 77.6147C231.933 77.4148 233.48 77.0649 235.127 76.665C236.823 76.2652 238.32 75.9153 239.468 75.7653C240.017 75.6654 240.466 75.6154 240.815 75.6154C241.165 75.5654 241.314 75.5654 241.314 75.6154Z" fill="#263238"/>
<path d="M250.098 84.113C250.098 84.113 250.098 84.263 250.098 84.4629C250.048 84.7128 250.048 85.0627 249.998 85.5126C249.898 86.4623 249.749 87.8119 249.599 89.4114C249.25 92.7104 248.9 97.259 248.601 102.307C248.451 104.857 248.351 107.256 248.302 109.455C248.252 110.555 248.252 111.605 248.202 112.554C248.202 113.504 248.202 114.454 248.102 115.253C248.052 116.103 247.952 116.853 247.753 117.453C247.553 118.102 247.304 118.602 247.004 119.002C246.755 119.402 246.455 119.602 246.256 119.752C246.056 119.902 245.956 119.952 245.956 119.952C245.906 119.902 246.455 119.702 246.954 118.952C247.204 118.552 247.453 118.053 247.653 117.453C247.852 116.803 247.902 116.103 247.952 115.253C248.002 114.454 248.002 113.504 248.002 112.554C248.002 111.555 248.052 110.555 248.052 109.455C248.102 107.256 248.202 104.857 248.352 102.307C248.651 97.259 249.05 92.7104 249.449 89.4114C249.649 87.7619 249.799 86.4123 249.948 85.5126C249.998 85.0627 250.048 84.7128 250.098 84.4629C250.098 84.213 250.098 84.113 250.098 84.113Z" fill="#263238"/>
<path d="M206.59 167.159L210.432 175.706C210.432 175.706 200.353 179.655 200.303 181.505L219.864 181.155V179.505L215.522 165.41L206.59 167.159Z" fill="#455A64"/>
<path d="M216.169 174.17C216.568 174.27 216.817 174.67 216.718 175.07C216.618 175.469 216.219 175.719 215.819 175.619C215.42 175.519 215.121 175.02 215.221 174.67C215.32 174.32 215.869 174.02 216.219 174.17" fill="#E0E0E0"/>
<path d="M219.86 181.168V179.519L201.048 180.519C201.048 180.519 200.199 180.918 200.299 181.518L219.86 181.168Z" fill="#263238"/>
<path d="M210.128 175.648C210.128 175.748 210.627 175.798 211.076 176.098C211.575 176.398 211.825 176.798 211.874 176.748C211.974 176.748 211.825 176.148 211.226 175.798C210.677 175.448 210.078 175.548 210.128 175.648Z" fill="#263238"/>
<path d="M208.086 176.509C208.086 176.609 208.485 176.759 208.834 177.159C209.184 177.559 209.284 178.009 209.383 177.959C209.483 177.959 209.533 177.409 209.084 176.909C208.635 176.459 208.086 176.409 208.086 176.509Z" fill="#263238"/>
<path d="M206.937 178.986C207.037 178.986 207.136 178.537 206.887 177.987C206.637 177.487 206.188 177.287 206.138 177.337C206.088 177.437 206.388 177.687 206.587 178.137C206.837 178.587 206.837 178.986 206.937 178.986Z" fill="#263238"/>
<path d="M209.377 173.374C209.427 173.474 209.876 173.324 210.375 173.324C210.924 173.324 211.323 173.524 211.373 173.424C211.423 173.374 211.024 173.024 210.375 172.974C209.776 173.024 209.327 173.324 209.377 173.374Z" fill="#263238"/>
<path d="M241.067 188.081L241.466 204.326H232.933L232.484 188.431L241.067 188.081Z" fill="#455A64"/>
<path d="M237.222 203.524C237.173 203.524 237.023 200.075 236.973 195.776C236.923 191.478 236.923 188.029 236.973 188.029C237.023 188.029 237.173 191.478 237.222 195.776C237.322 200.025 237.322 203.524 237.222 203.524Z" fill="#263238"/>
<path d="M232.783 199.225C232.783 199.225 232.833 199.075 232.983 198.875C233.133 198.675 233.382 198.376 233.731 198.026C234.081 197.726 234.53 197.326 235.079 197.076C235.628 196.776 236.326 196.576 237.075 196.576C238.572 196.526 239.819 197.226 240.418 197.926C240.767 198.276 240.967 198.626 241.067 198.825C241.166 199.075 241.216 199.225 241.216 199.225C241.166 199.275 240.967 198.675 240.318 198.076C239.669 197.426 238.472 196.826 237.075 196.826C235.677 196.826 234.53 197.576 233.831 198.176C233.182 198.775 232.833 199.275 232.783 199.225Z" fill="#263238"/>
<path d="M241.466 204.376L232.933 204.326L232.883 202.376L241.466 202.426V204.376Z" fill="#263238"/>
<path d="M241.716 119.102L224.001 117.552L223.702 119.502C219.211 123.1 205.089 131.798 197.854 138.895C197.854 138.895 195.159 142.644 196.257 145.943L207.634 171.735L219.211 169.086L212.175 147.193L233.882 137.046C238.123 135.497 241.916 130.148 242.814 127.099C243.512 124.4 241.816 122.451 241.716 119.102Z" fill="#263238"/>
<path d="M226.846 139.644L231.536 194.427L243.363 194.377C243.363 194.377 243.762 177.633 243.512 166.386C243.263 155.09 244.66 132.197 244.66 132.197L226.846 139.644Z" fill="#263238"/>
<path d="M241.715 119.101L247.404 119.751C247.404 119.751 247.953 131.147 247.553 132.597C247.154 134.046 244.06 139.745 244.06 139.745L227.244 144.643V131.747L241.715 119.101Z" fill="#263238"/>
<path d="M240.218 130.749C240.218 130.749 240.168 130.849 240.068 131.049C239.968 131.249 239.819 131.549 239.619 131.899C239.17 132.599 238.471 133.648 237.374 134.648C236.276 135.648 234.779 136.698 232.982 137.597C231.236 138.497 229.24 139.347 227.144 140.346C223.002 142.246 219.26 143.945 216.515 145.245C215.168 145.845 214.07 146.345 213.272 146.694C212.923 146.844 212.623 146.994 212.374 147.094C212.174 147.194 212.074 147.244 212.074 147.194C212.074 147.194 212.174 147.144 212.374 147.044C212.573 146.944 212.873 146.794 213.222 146.644C214.02 146.295 215.068 145.745 216.416 145.145C219.16 143.895 222.903 142.146 226.994 140.196C229.04 139.247 231.086 138.397 232.833 137.497C234.579 136.598 236.076 135.598 237.174 134.648C238.272 133.648 239.02 132.699 239.469 131.999C239.968 131.149 240.218 130.749 240.218 130.749Z" fill="#455A64"/>
<path d="M204.59 146.143C204.59 146.093 205.039 145.993 205.837 145.893C206.586 145.793 207.684 145.743 208.831 145.893C210.029 146.043 211.027 146.293 211.775 146.593C212.474 146.893 212.923 147.093 212.923 147.143C212.923 147.193 212.474 146.993 211.726 146.743C210.977 146.493 209.979 146.243 208.831 146.143C207.684 145.993 206.636 146.043 205.837 146.093C205.039 146.143 204.59 146.193 204.59 146.143Z" fill="#455A64"/>
<path d="M223.553 119.452L247.505 121.751L247.405 119.951L224.002 117.552L223.553 119.452Z" fill="#455A64"/>
<path d="M228.641 120.201C228.691 120.051 228.89 118.001 228.89 118.001L230.188 118.151L229.888 120.701L228.641 120.201Z" fill="#263238"/>
<path d="M241.166 121.551C241.216 121.401 241.416 119.351 241.416 119.351L242.713 119.501L242.414 122.05L241.166 121.551Z" fill="#263238"/>
</svg>
