<svg width="364" height="289" viewBox="0 0 364 289" fill="none" xmlns="http://www.w3.org/2000/svg">
<path opacity="0.95" d="M213.457 132.685H142.282C136.658 132.685 132.094 128.38 132.094 123.077V55.9531C132.094 50.6499 136.658 46.3452 142.282 46.3452H213.457C219.08 46.3452 223.645 50.6499 223.645 55.9531V123.077C223.645 128.38 219.08 132.685 213.457 132.685Z" fill="url(#paint0_linear_2406_1688)"/>
<path d="M199.07 113.027H156.688V115.007H199.07V113.027Z" fill="#96BFE6"/>
<path d="M193.064 119.246H162.691V121.226H193.064V119.246Z" fill="#96BFE6"/>
<path opacity="0.95" d="M352.007 214.981H250.702C244.072 214.981 238.709 209.923 238.709 203.671V87.5909C238.709 81.3384 244.072 76.2808 250.702 76.2808H352.007C358.636 76.2808 363.999 81.3384 363.999 87.5909V203.654C363.999 209.907 358.619 214.981 352.007 214.981Z" fill="url(#paint1_linear_2406_1688)"/>
<path d="M305.46 158.103H295.516V159.838H305.46V158.103Z" fill="#4598E6"/>
<path d="M315.612 174.013H257.783V177.369H315.612V174.013Z" fill="#96BFE6"/>
<path d="M304.539 190.134H257.783V193.49H304.539V190.134Z" fill="#96BFE6"/>
<path d="M285.188 182.083H257.783V185.439H285.188V182.083Z" fill="#96BFE6"/>
<path d="M330.73 90.1128V91.815H341.334V101.194H343.139V90.1128H330.73ZM258.791 101.194H260.596V91.815H271.2V90.1128H258.808V101.194H258.791ZM341.334 149.593V158.972H330.73V160.658H343.122V149.577H341.334V149.593ZM260.578 149.593H258.773V160.658H271.165V158.955H260.561V149.593H260.578Z" fill="#4598E6"/>
<path d="M337.514 193.751C331.666 193.751 326.91 189.266 326.91 183.75C326.91 178.234 331.666 173.75 337.514 173.75C343.363 173.75 348.119 178.234 348.119 183.75C348.119 189.266 343.363 193.751 337.514 193.751ZM337.514 175.697C332.794 175.697 328.975 179.315 328.975 183.75C328.975 188.202 332.811 191.803 337.514 191.803C342.218 191.803 346.053 188.186 346.053 183.75C346.071 179.315 342.235 175.697 337.514 175.697Z" fill="#4598E6"/>
<path d="M336.839 187.695L332.031 183.144L333.489 181.786L336.839 184.945L341.56 180.509L343.017 181.868L336.839 187.695Z" fill="#4598E6"/>
<path d="M343.902 271.696C343.902 275.886 266.912 279.29 171.96 279.29C76.9896 279.274 0 275.886 0 271.696C0 267.506 76.9897 264.101 171.942 264.101C266.912 264.101 343.902 267.489 343.902 271.696Z" fill="url(#paint2_linear_2406_1688)" fill-opacity="0.66"/>
<path opacity="0.95" d="M208.719 49.5718H147.02V99.4934H208.719V49.5718Z" fill="url(#paint3_linear_2406_1688)"/>
<path d="M201.448 79.9645C199.417 74.8905 194.541 72.5663 192.232 71.8461C191.417 71.5842 189.941 71.1423 188.397 70.6676C185.62 69.8165 182.565 68.8999 182.565 68.8999H172.967C172.967 68.8999 169.635 69.9474 166.112 71.1259C162.849 72.2062 159.43 73.3847 158.267 73.9248C155.855 75.0542 151.794 83.1889 150.978 84.1219C150.561 84.5966 148.67 87.7719 146.812 91.3073H157.156C158.25 89.5396 159.1 88.1647 159.1 88.1647C159.1 88.1647 159.76 89.5232 160.541 91.3073H193.69C194.211 89.2286 194.541 86.6098 194.541 86.6098C194.541 86.6098 196.311 88.8849 198.255 91.3073H207.8C205.475 87.6082 202.594 82.8288 201.448 79.9645Z" fill="#385369"/>
<path d="M178.903 44.0047C178.903 44.0047 186.418 45.1177 185.272 56.1986C184.127 67.2796 177.497 66.363 177.063 66.363C176.612 66.3466 170.416 66.5594 169.93 53.0396C169.93 53.0396 169.722 43.039 178.903 44.0047Z" fill="#FFB592"/>
<path d="M185.394 53.0727C185.394 53.0727 186.21 52.238 186.522 53.0891C186.817 53.9239 185.394 57.6721 185.342 57.8358C185.342 57.8358 185.186 58.1631 184.995 57.9831C184.804 57.803 185.394 53.0727 185.394 53.0727Z" fill="#FFB592"/>
<path d="M170.121 52.9276C170.121 52.9276 169.323 52.0765 168.993 52.9112C168.681 53.746 170 57.5106 170.069 57.6906C170.069 57.6906 170.208 58.018 170.416 57.8379C170.625 57.6742 170.121 52.9276 170.121 52.9276Z" fill="#FFB592"/>
<path d="M185.394 54.7752L184.318 56.1337C184.318 56.1337 184.353 53.1548 184.179 52.6965C184.005 52.2382 183.745 50.8142 183.606 50.4705C183.467 50.1431 177.15 48.4736 171.596 50.9615C171.596 50.9615 171.839 53.1057 171.301 53.2857C170.763 53.4821 171.023 56.772 171.023 56.772L170.138 55.8391C170.138 55.8391 168.785 47.3115 169.114 46.4276C169.444 45.5438 170.52 40.1915 181.94 43.3669C181.94 43.3669 185.498 42.6631 186.21 44.9709C186.921 47.2788 185.394 54.7752 185.394 54.7752Z" fill="#434343"/>
<path d="M183.503 68.6874C183.503 68.6711 182.531 68.2455 182.531 68.2455C182.062 67.2634 182.409 63.0897 182.409 63.0897C182.409 63.0897 172.846 60.7982 173.124 62.5495C173.402 64.3009 172.308 68.3764 172.308 68.3764L167.396 70.6679C167.396 70.6679 172.621 83.9094 178.626 82.1908C184.631 80.4886 186.904 70.1769 186.904 70.1769L183.503 68.6874Z" fill="#FFB592"/>
<path d="M173.262 64.5143C173.262 64.5143 174.806 66.3966 177.479 66.3966C179.232 66.3966 180.499 65.9383 182.252 64.3179C182.252 64.3179 181.488 67.3786 177.497 67.6569C177.497 67.6569 174.581 68.0006 173.262 64.5143Z" fill="#A77860"/>
<path d="M145.65 108.954C145.65 108.954 151.169 111.507 149.798 118.431C148.427 125.355 147.837 126.287 149.364 128.988C150.892 131.689 152.697 143.244 151.326 145.421C149.954 147.615 134.317 135.813 132.165 125.911C129.995 116.009 133.536 111.606 134.786 109.969C136.035 108.332 140.791 106.63 145.65 108.954Z" fill="#0E2D3D"/>
<path d="M143.566 269.664H144.816V264.099C144.816 264.099 147.263 265.638 148.808 267.766C150.352 269.894 152.47 269.714 155.68 269.583C158.909 269.452 158.752 268.224 158.475 266.506C158.18 264.787 154.917 264.23 153.858 263.969C152.799 263.69 150.404 259.795 149.623 258.845C148.565 257.552 148.009 256.308 148.009 256.308C148.009 256.308 147.402 254.001 144.434 256.308C141.449 258.616 142.317 263.068 142.646 263.477C142.994 263.87 143.566 269.664 143.566 269.664Z" fill="#163342"/>
<path d="M149.867 263.97C150.978 264.658 153.859 263.97 153.859 263.97C153.043 262.972 148.01 256.31 148.01 256.31C144.955 254.624 143.74 256.948 143.74 256.948C145.007 257.292 148.773 263.283 149.867 263.97Z" fill="#FFB592"/>
<path d="M182.027 161.36C182.027 161.36 184.023 161.72 184.717 160.836C185.307 160.083 186.626 159.51 187.043 159.33C187.598 159.085 188.986 157.759 189.299 158.414C189.629 159.068 187.112 160.705 186.661 161.147C186.21 161.589 189.125 161.785 189.611 162.211C190.115 162.637 189.49 167.17 187.511 166.81C185.533 166.45 183.658 164.846 183.294 164.846C182.929 164.846 181.836 164.65 181.836 164.65L182.027 161.36Z" fill="#FFB592"/>
<path d="M189.194 162.011C189.194 162.011 195.182 163.468 195.494 163.877C195.807 164.286 195.703 164.597 195.13 164.483C194.557 164.368 189.298 163.239 189.298 163.239C189.298 163.239 196.067 166.087 196.414 166.365C196.605 166.529 196.449 167.134 196.137 167.085C195.824 167.052 188.934 164.581 188.934 164.581C188.934 164.581 195.251 167.249 195.46 167.576C195.633 167.855 195.338 168.362 194.852 168.198C194.366 168.035 188.344 165.858 188.344 165.858C188.344 165.858 192.822 168.067 192.822 168.444C192.822 168.673 192.718 169.18 191.572 168.575C190.444 167.969 187.598 166.807 187.598 166.807L189.194 162.011Z" fill="#FFB592"/>
<path d="M127.374 270.041H128.138V265.966C128.138 265.966 129.509 267.292 130.134 269.239C130.759 271.187 132.997 271.776 136.417 271.678C139.836 271.58 139.888 270.32 139.593 268.405C139.298 266.506 136.417 265.508 136.417 265.508C135.115 264.411 131.887 259.91 131.887 259.91C131.887 259.91 129.821 259.386 128.19 260.63C126.559 261.858 127.079 264.656 127.114 265.377C127.183 266.097 127.374 270.041 127.374 270.041Z" fill="#163342"/>
<path d="M129.717 172.786C129.717 172.786 125.656 177.778 124.545 183.703C123.434 189.628 125.205 209.499 125.152 212.412C125.1 215.342 122.219 222.626 122.792 228.125C123.365 233.641 125.638 261.074 125.638 261.074L131.869 259.911C131.869 259.911 131.505 231.939 131.869 229.631C132.234 227.323 132.963 218.878 133.101 217.928C133.24 216.979 142.265 191.969 142.265 187.697C142.282 183.425 139.54 165.83 129.717 172.786Z" fill="#1D3B54"/>
<path d="M150.162 174.749C150.162 174.749 156.844 198.81 157.642 202.149C158.441 205.488 159.586 208.238 159.586 209.645C159.586 212.935 158.285 218.206 158.285 218.206L149.798 256.506H141.71C141.71 256.506 146.222 233.526 146.344 229.041C146.465 224.54 150.145 218.14 149.416 216.242C148.687 214.343 137.805 192.361 137.805 192.361C137.805 192.361 129.561 167.76 150.162 174.749Z" fill="#1D3B54"/>
<path d="M136.416 265.509L131.886 259.912L128.189 260.632C128.189 260.632 129.179 263.136 130.984 265.018C133.101 267.244 136.416 265.509 136.416 265.509Z" fill="#FFB592"/>
<path d="M147.403 133.847C147.403 133.847 150.162 134.093 152.245 136.204C154.328 138.316 156.289 141.671 156.827 142.784C157.365 143.913 165.019 154.307 165.418 154.536C165.817 154.765 169.653 155.976 172.204 156.795C176.126 158.039 184.006 160.739 184.006 160.739L182.444 165.404C182.444 165.404 167.622 160.838 163.925 159.97C159.395 158.923 148.947 146.287 148.947 146.287C148.947 146.287 141.155 137.677 147.403 133.847Z" fill="#285173"/>
<path d="M142.595 132.031C142.595 132.031 146.17 133.618 147.402 133.848C148.634 134.077 153.459 139.969 154.292 142.13C155.143 144.274 154.292 147.515 152.557 151.296C150.821 155.077 152.453 156.353 151.672 160.134C150.873 163.915 151.134 178.09 151.29 180.201C151.446 182.312 128.085 185.488 123.469 181.658C123.469 181.658 126.593 168.891 130.29 165.241C131.088 164.455 131.001 159.201 130.463 157.892C129.925 156.582 123.764 146.811 123.764 146.811C123.764 146.811 123.313 136.892 126.003 134.928C128.328 133.226 134.68 132.62 135.826 132.244C136.954 131.867 140.269 131.703 142.595 132.031Z" fill="#4A83E7"/>
<path d="M144.296 128.132C144.296 128.132 144.191 129.065 144.07 130.309C144.018 130.8 143.966 131.357 143.931 131.913C143.792 133.599 143.671 135.4 143.74 136.316C143.74 136.316 140.026 139.819 135.809 132.224C135.809 132.224 137.579 129.098 136.242 124.826C134.906 120.57 144.296 128.132 144.296 128.132Z" fill="#FFB592"/>
<path d="M154.69 152.687C154.69 152.687 155.576 147.09 154.638 143.685C154.638 143.685 154.638 146.615 152.938 150.772L154.69 152.687Z" fill="#183C59"/>
<path d="M132.963 132.767C132.963 132.767 135.514 139.87 142.526 139.347C149.538 138.823 145.841 133.34 145.841 133.34C145.841 133.34 144.088 132.39 143.602 132.308C143.116 132.227 135.861 132.128 135.861 132.128L132.963 132.767Z" fill="#FFB592"/>
<path d="M145.84 133.355C145.84 133.355 149.502 142.93 149.502 152.685C149.502 162.44 149.797 178.334 151.081 183.358C152.366 188.383 156.01 203.9 156.01 203.9L158.874 202.509C158.874 202.509 152.001 177.728 151.48 175.944C150.96 174.16 151.88 155.288 152.366 153.7C152.852 152.112 154.952 145.091 154.622 143.127C154.205 140.671 151.775 137.021 147.836 133.895L145.84 133.355Z" fill="#285173"/>
<path d="M134.333 132.472C134.333 132.472 136.606 139.363 137.769 148.185C138.932 157.007 134.229 197.959 131.07 207.256L118.852 205.39C118.852 205.39 121.49 176.452 125.048 171.182C128.605 165.911 129.751 161.247 125.898 150.264C122.045 139.265 127.581 133.831 127.581 133.831C127.581 133.831 133.274 132.587 134.333 132.472Z" fill="#285173"/>
<path d="M147.523 161.688L132.701 185.896L116.23 176.927L130.41 152.359L147.523 161.688Z" fill="#616161"/>
<path d="M145.736 162.524L132.58 184.015L117.949 176.044L130.532 154.242L145.736 162.524Z" fill="#E0CEC7"/>
<path d="M140.876 160.593L141.814 159.087L135.895 155.863L134.732 157.238L140.876 160.593Z" fill="#616161"/>
<path d="M140.183 177.76C140.183 177.76 139.506 177.76 139.211 177.629C139.211 177.629 138.69 177.351 138.308 177.171C138.187 177.122 138.083 177.073 138.013 177.04C137.718 176.942 137.024 176.811 136.364 176.385C135.705 175.96 133.396 173.423 133.396 173.423L134.49 171.852L135.288 170.248C135.288 170.248 140.165 170.542 140.825 170.87C140.894 170.902 140.946 170.935 140.998 170.968C141.519 171.295 141.779 171.753 142.022 171.966C142.109 172.048 142.994 172.85 142.959 173.194C142.925 173.668 142.682 173.996 142.369 174.143C142.369 174.143 142.248 175.076 141.762 175.518C141.762 175.518 141.675 176.385 140.911 176.762C140.911 176.762 140.721 177.629 140.183 177.76Z" fill="#FFB592"/>
<path d="M130.133 133.846C130.133 133.846 125.638 132.635 123.052 137.3C120.466 141.981 120.484 143.978 120.136 146.253C119.807 148.413 118.349 154.289 118.193 154.911C118.036 155.517 114.722 162.768 116.249 165.305C117.776 167.858 133.361 175.355 133.257 175.911C133.153 176.468 135.947 170.248 135.947 170.248C135.947 170.248 129.647 166.942 128.606 165.91C126.923 164.257 123.399 162.473 124.111 160.411C124.961 157.988 127.53 149.854 128.12 148.659C128.745 147.464 133.934 135.368 130.133 133.846Z" fill="#285173"/>
<path d="M144.852 109.721C144.852 109.721 152.87 112.094 148.514 125.139C144.157 138.184 133.223 123.633 134.369 115.679C135.514 107.74 144.852 109.721 144.852 109.721Z" fill="#EEA987"/>
<path d="M149.329 117.33C149.329 117.33 145.354 121.013 138.69 121.471C138.69 121.471 136.121 124.303 135.93 125.416C135.93 125.416 129.977 115.857 137.301 110.128C144.608 104.399 152.019 114.973 149.329 117.33Z" fill="#0E2D3D"/>
<path d="M138.777 121.734C138.724 120.785 138.1 118.624 136.607 119.23C135.114 119.836 136.694 124.238 137.683 123.96C137.683 123.96 138.898 123.977 138.777 121.734Z" fill="#EEA987"/>
<path d="M144.071 130.311C144.019 130.802 143.967 131.359 143.932 131.915C143.932 131.915 140.392 131.719 138.031 126.759C138.17 126.972 140.773 130.573 144.071 130.311Z" fill="#A77860"/>
<path d="M56.3375 249.566C61.4748 246.162 67.4798 222.412 67.8443 208.27C68.0352 201.019 70.2915 198.008 72.3047 195.34C74.2138 192.786 75.88 190.593 74.9081 185.552C73.0684 175.911 77.9106 171.737 77.9627 171.705L77.4073 171.099C77.199 171.279 72.1485 175.568 74.075 185.699C74.9775 190.413 73.4849 192.394 71.6105 194.881C69.632 197.5 67.1848 200.757 66.9939 208.254C66.6121 223.427 60.4682 245.851 55.8516 248.911L56.3375 249.566Z" fill="url(#paint4_linear_2406_1688)"/>
<path d="M45.5765 242.645C45.0906 241.614 44.5873 240.534 44.0145 239.404C41.0814 233.561 38.4781 232.596 34.1739 231.008C33.1152 230.615 31.935 230.173 30.616 229.617C24.4547 226.998 25.6349 223.151 26.6936 219.747C26.8324 219.272 26.9886 218.798 27.1101 218.323C27.6482 216.326 26.6068 215.328 25.0274 213.805C23.8473 212.676 22.3894 211.268 21.2613 209.059C20.029 206.636 20.6538 205.327 21.4001 204.672C22.9621 203.281 26.5721 203.526 29.9738 205.278C31.0325 205.818 31.9003 206.685 32.8201 207.602C34.9896 209.746 37.6971 212.414 44.5352 212.447C48.4402 212.463 50.575 212.971 51.6684 214.149C52.918 215.475 52.6924 217.472 52.3626 220.221C52.2411 221.171 52.1196 222.251 52.0502 223.43C51.5816 230.386 55.9379 235.411 55.9899 235.46C58.5933 238.39 61.8041 244.446 60.4156 248.194C59.8429 249.765 58.5412 250.747 56.5627 251.124C55.7817 251.271 55.0527 251.353 54.3932 251.353C49.6378 251.32 47.8848 247.588 45.5765 242.645ZM29.592 205.982C26.5547 204.41 23.2919 204.099 22.0076 205.245C21.0357 206.113 21.4869 207.618 22.0423 208.715C23.101 210.81 24.4547 212.103 25.6349 213.249C27.2837 214.837 28.5854 216.097 27.9258 218.536C27.8044 219.01 27.6482 219.501 27.492 219.976C26.4506 223.364 25.444 226.556 30.9457 228.896C32.23 229.437 33.4102 229.878 34.4689 230.271C38.8252 231.875 41.6889 232.939 44.7608 239.077C45.3336 240.223 45.8369 241.287 46.3228 242.334C48.9782 248.014 50.5923 251.451 56.3891 250.338C58.0552 250.027 59.1313 249.209 59.6173 247.932C60.8321 244.642 57.9164 238.881 55.3478 235.984C55.1569 235.771 50.7312 230.68 51.2171 223.38C51.3039 222.202 51.4254 221.105 51.5469 220.14C51.8419 217.586 52.0676 215.753 51.0609 214.689C50.1411 213.723 48.1278 213.282 44.5526 213.265C37.35 213.232 34.521 210.434 32.23 208.175C31.3275 207.242 30.5465 206.456 29.592 205.982Z" fill="url(#paint5_linear_2406_1688)"/>
<path d="M56.4932 255.951L57.3436 255.902C57.3089 255.149 56.2328 237.422 48.6831 232.25C40.4045 226.554 37.8011 220.449 36.5515 216.341C35.0936 211.512 27.6307 210.219 27.3183 210.154L27.1621 210.939C27.2315 210.956 34.4168 212.2 35.7358 216.554C37.0201 220.776 39.6929 227.062 48.1798 232.889C55.3997 237.864 56.4932 255.771 56.4932 255.951Z" fill="url(#paint6_linear_2406_1688)"/>
<path d="M55.0525 259.928C53.2823 259.093 53.3343 255.737 53.4385 250.663C53.56 244.247 53.7335 235.474 50.1756 227.389C46.3921 218.812 49.7591 216.308 53.0219 213.869C56.6666 211.152 60.1204 208.582 53.5079 197.01C50.4707 191.691 49.4987 188.09 50.4707 185.684C51.4252 183.31 54.1153 182.377 56.9617 181.395C61.8733 179.709 67.4271 177.778 66.7155 167.99C66.4899 164.995 66.8717 163.145 67.8957 162.18C69.0065 161.132 70.6379 161.247 72.547 161.377C75.4107 161.574 78.6562 161.803 81.4852 158.317C81.7802 157.449 84.4877 149.691 87.7159 148.349C88.3927 148.071 89.0696 148.071 89.6944 148.365C91.9333 149.38 93.2176 150.575 93.6515 152.015C94.3978 154.536 92.4366 157.384 90.1804 160.674C86.6225 165.846 82.5786 171.722 86.7613 178.711C92.2978 187.942 89.382 191.183 85.3208 195.652C82.9951 198.221 80.3744 201.118 78.6042 205.849C77.1983 209.662 79.6108 213.296 81.9364 216.799C84.8695 221.202 87.8894 225.768 81.5199 229.713C70.985 236.244 60.5716 257.587 60.4675 257.8L60.4328 257.882L60.346 257.947C58.4022 259.387 56.9964 260.059 55.9203 260.059C55.6079 260.124 55.3302 260.059 55.0525 259.928ZM81.0513 229.091C86.7266 225.572 84.1753 221.725 81.2249 217.273C78.8992 213.771 76.2611 209.793 77.8058 205.636C79.6108 200.758 82.3009 197.796 84.6786 195.177C88.6531 190.79 91.2738 187.893 86.015 179.153C81.572 171.738 85.9456 165.388 89.4514 160.297C91.6035 157.171 93.4779 154.454 92.8184 152.293C92.454 151.082 91.3085 150.051 89.3126 149.151C88.9134 148.971 88.4969 148.971 88.0456 149.151C85.0431 150.378 82.2836 158.595 82.2662 158.677L82.2488 158.742L82.1968 158.791C79.0728 162.671 75.4107 162.425 72.4776 162.212C70.7247 162.098 69.3362 161.999 68.4858 162.785C67.6527 163.554 67.3577 165.257 67.5486 167.974C68.3123 178.367 62.1684 180.479 57.2394 182.181C54.4624 183.13 52.0847 183.965 51.2517 185.995C50.3839 188.171 51.3211 191.56 54.2368 196.65C61.1964 208.828 57.3088 211.725 53.5252 214.524C50.3665 216.864 47.3987 219.074 50.9393 227.094C54.5666 235.327 54.393 244.198 54.2715 250.68C54.1848 255.099 54.1153 258.602 55.417 259.207C56.1807 259.568 57.6212 258.962 59.7212 257.423C60.589 255.705 70.5511 235.605 81.0513 229.091Z" fill="url(#paint7_linear_2406_1688)"/>
<path d="M38.4254 166.925C43.7883 165.19 42.6776 174.945 44.9338 182.147C47.2074 189.365 70.1342 185.29 60.5192 203.343C50.9041 221.397 72.7028 209.383 66.1771 225.145C59.6687 240.907 65.6044 257.75 58.5233 253.478C51.4422 249.189 54.5488 229.352 47.19 226.995C39.8312 224.638 38.6163 221.888 45.9231 215.472C53.2124 209.056 26.8145 202.705 33.3402 189.758C39.8486 176.811 32.2295 168.922 38.4254 166.925Z" fill="url(#paint8_linear_2406_1688)"/>
<path d="M56.0767 252.447C56.7536 249.747 62.5157 226.013 57.1354 223.133C52.3973 220.596 52.5188 210.759 53.2477 201.478C53.9073 193.262 42.6955 189.415 42.2269 189.251L41.9492 190.004C42.0534 190.037 53.0048 193.802 52.4147 201.413C51.651 210.955 51.5816 221.07 56.7189 223.82C60.7974 225.997 57.0486 245.082 55.2436 252.251L56.0767 252.447Z" fill="white"/>
<path d="M76.2953 243.986L68.6415 271.385H51.5288L43.875 243.986H76.2953Z" fill="url(#paint9_linear_2406_1688)"/>
<path d="M76.2953 243.986C76.2953 243.986 59.443 246.965 59.443 271.385H51.5288L43.875 243.986H76.2953Z" fill="url(#paint10_linear_2406_1688)"/>
<path opacity="0.95" d="M291.522 71.5038H241C236.384 71.5038 232.635 67.9683 232.635 63.6145V22.2696C232.635 17.9158 236.384 14.3804 241 14.3804H291.522C296.139 14.3804 299.888 17.9158 299.888 22.2696V63.5981C299.888 67.9683 296.156 71.5038 291.522 71.5038Z" fill="url(#paint11_linear_2406_1688)"/>
<path d="M268.666 60.7026H263.338V61.6356H268.666V60.7026Z" fill="#4598E6"/>
<path d="M270.834 9.37148C270.834 9.37148 275.139 11.5975 273.767 17.0643C272.396 22.5311 271.876 23.2677 272.986 25.4773C274.097 27.687 275.069 36.9511 273.889 38.6534C272.709 40.3556 260.716 30.3876 259.38 22.4166C258.043 14.4455 261.046 11.0574 262.104 9.79704C263.163 8.53672 267.051 7.34188 270.834 9.37148Z" fill="#344052"/>
<path d="M278.905 54.6116H274.306C274.08 52.4674 273.872 50.9779 273.924 50.7651C273.994 50.405 269.342 38.9149 268.908 37.9492C268.475 36.9999 266.774 34.4465 266.548 32.0568C266.323 29.6508 269.637 28.6851 269.637 28.6851C274.115 29.438 275.642 35.2813 275.642 35.2813C275.642 35.2813 277.517 47.1315 278.471 50.4705C278.714 51.3216 278.853 52.8275 278.905 54.6116Z" fill="#FFB592"/>
<path d="M276.597 38.1309L269.741 40.848C269.741 40.848 263.441 26.1007 268.717 27.7538C273.976 29.4069 276.354 32.4841 276.597 38.1309Z" fill="#4A83E7"/>
<path d="M275.069 45.0686C274.861 46.5254 274.045 51.7139 274.236 53.1216C274.271 53.3507 274.375 53.8908 274.514 54.611H257.991C258.425 53.1379 258.824 51.8285 259.067 51.0592C259.866 48.555 259.102 47.8839 258.703 45.8707C258.547 45.085 257.991 43.5955 257.384 41.9097C257.176 41.3532 256.967 40.7639 256.776 40.1747C256.047 38.0469 255.718 35.87 255.509 34.6097C254.52 28.6191 259.397 28.0462 259.397 28.0462C261.219 27.7352 264.396 26.8022 264.396 26.8022L269.359 27.7843C269.359 27.7843 269.828 27.948 270.522 28.439C270.852 28.6682 271.234 28.9792 271.633 29.3556C272.171 29.8794 273.264 31.3852 274.34 33.0384C274.67 33.5458 275 34.0695 275.312 34.5769C276.319 36.2301 277.048 37.5558 277.013 39.0617C276.996 40.5184 275.26 43.6119 275.069 45.0686Z" fill="#4A83E7"/>
<path d="M269.341 27.7683C269.341 27.7683 272.448 32.7932 271.302 33.1697C270.139 33.5461 264.047 32.2695 261.652 27.5392C261.652 27.5228 265.662 25.8042 269.341 27.7683Z" fill="#FFB592"/>
<path d="M268.908 30.0607C268.908 30.0607 266.149 31.1573 263.632 27.5237C263.632 27.5237 264.309 23.399 262.886 21.0094C261.463 18.6197 269.099 23.8737 269.099 23.8737C269.099 23.8737 268.978 24.3647 268.839 25.0849C268.769 25.4614 268.7 25.8869 268.648 26.3452C268.613 26.7217 268.578 27.1309 268.561 27.5237C268.544 28.473 268.613 29.3896 268.908 30.0607Z" fill="#FFB592"/>
<path d="M262.036 35.6733C261.463 38.4395 257.385 41.8931 257.385 41.8931C257.177 41.3366 256.968 40.7473 256.777 40.1581C259.589 38.4559 262.036 35.6733 262.036 35.6733Z" fill="#393D63"/>
<path d="M261.011 37.8697C260.751 38.8845 259.553 49.0652 259.692 49.4253C259.761 49.6217 260.351 51.9787 260.924 54.5975H255.596C255.058 52.9116 254.728 51.504 254.798 50.7184C255.145 47.2811 253.895 36.3148 253.895 36.3148C253.895 36.3148 252.784 29.6858 258.616 28.8511C258.616 28.8511 262.07 29.2766 262.278 31.6827C262.486 34.0887 261.271 36.8713 261.011 37.8697Z" fill="#FFB592"/>
<path d="M253.479 39.2922L260.716 40.8798C260.716 40.8798 266.461 30.3554 261.289 28.4404C255.822 26.4108 252.16 33.5471 253.479 39.2922Z" fill="#4A83E7"/>
<path d="M270.174 9.95873C270.174 9.95873 276.474 12.1356 272.482 22.3818C268.49 32.628 260.35 20.6305 261.583 14.3453C262.798 8.0437 270.174 9.95873 270.174 9.95873Z" fill="#EEA987"/>
<path d="M273.438 16.1828C273.438 16.1828 270.123 18.9817 264.777 19.1126C264.777 19.1126 263.528 21.977 263.337 22.8609C263.337 22.8609 258.078 14.3333 264.118 10.0286C270.175 5.70747 275.677 14.3987 273.438 16.1828Z" fill="#344052"/>
<path d="M265.506 19.7123C265.506 18.9594 265.089 17.208 263.875 17.6336C262.66 18.0592 263.753 21.6273 264.551 21.4473C264.551 21.4473 265.506 21.5128 265.506 19.7123Z" fill="#EEA987"/>
<path d="M268.578 27.3584C265.627 26.5891 264.482 23.9212 264.447 23.8394C266.86 26.7692 268.665 26.3436 268.665 26.3436C268.63 26.7364 268.613 26.982 268.578 27.3584Z" fill="#A77860"/>
<path d="M282.255 24.7085V25.6251H287.947V30.6664H288.919V24.7249H282.255V24.7085ZM243.621 30.65H244.593V25.6251H250.286V24.7085H243.638V30.65H243.621ZM287.947 56.6419V61.6832H282.255V62.5998H288.902V56.6583H287.947V56.6419ZM244.593 56.6419H243.621V62.5834H250.268V61.6668H244.576V56.6419H244.593Z" fill="#4598E6"/>
<path d="M181.436 103.371H174.303V104.615H181.436V103.371Z" fill="#4598E6"/>
<path d="M199.225 55.3179V56.5291H206.827V63.2562H208.111V55.3179H199.225ZM147.627 63.2562H148.911V56.5291H156.513V55.3179H147.627V63.2562ZM206.827 97.9558V104.683H199.225V105.894H208.111V97.9558H206.827ZM148.929 97.9558H147.644V105.894H156.53V104.683H148.929V97.9558Z" fill="#4598E6"/>
<path d="M337.029 148.808H331.007C330.903 148.579 330.816 148.383 330.729 148.219C328.942 144.242 319.726 135.108 319.726 135.108C319.726 135.108 319.726 135.108 319.726 135.125C319.726 135.125 319.726 135.125 319.726 135.141C319.726 135.141 319.726 135.141 319.726 135.158C319.726 135.174 319.708 135.19 319.708 135.19C319.708 135.207 319.691 135.239 319.691 135.272C319.691 135.288 319.674 135.305 319.674 135.321C319.674 135.338 319.656 135.354 319.656 135.354C319.275 136.68 317.418 143.309 316.498 148.808H275.712C275.625 148.301 275.504 147.81 275.382 147.368C275.018 146.009 274.757 144.651 274.601 143.391C274.601 143.325 274.584 143.26 274.584 143.21C274.549 142.981 274.532 142.752 274.497 142.523C274.15 139.069 274.41 136.418 274.428 136.156C274.306 136.385 273.49 139.233 272.414 142.752C271.824 144.684 271.147 146.811 270.488 148.825H260.855L272.935 115.942C273.195 115.745 276.337 114.321 278.628 113.29C280.953 112.243 283.782 110.704 286.316 109.395C287.618 108.724 288.85 108.118 289.909 107.66L290.065 107.594C291.818 106.841 292.998 106.334 292.998 106.334C293.033 106.334 293.311 106.301 293.762 106.268C296.209 106.039 303.828 105.368 306.379 105.237C306.588 105.221 306.761 105.221 306.9 105.205C307.021 105.205 307.108 105.205 307.16 105.205C307.473 105.221 309.052 105.745 311.117 106.481C311.204 106.514 311.274 106.53 311.36 106.563C311.465 106.596 311.551 106.629 311.655 106.661C311.829 106.727 312.02 106.792 312.193 106.858C312.558 106.989 312.94 107.136 313.322 107.283C313.46 107.332 313.582 107.381 313.721 107.431C317.851 108.969 322.572 110.884 323.7 111.653C324.447 112.161 326.755 116.269 329.445 121.343C332.343 130.034 335.867 142.605 337.029 148.808Z" fill="#DECBC4"/>
<path d="M307.109 104.058C307.005 109.23 296.383 112.062 296.383 112.062C296.383 112.062 291.94 106.808 292.999 106.317C293.416 106.12 293.589 105.335 293.641 104.451C293.693 103.616 293.641 102.7 293.589 102.11C293.554 101.75 293.52 101.505 293.52 101.505C293.52 101.505 295.03 99.9989 296.973 98.1984C300.34 95.0558 304.974 91.0294 304.992 92.6334C304.992 92.7152 304.974 92.8134 304.957 92.9444C304.124 96.5289 307.109 104.058 307.109 104.058Z" fill="#FFB592"/>
<path d="M303.012 96.4819C302.995 96.5147 302.544 97.153 301.78 98.0532C300.148 99.9846 297.094 103.16 293.64 104.437C293.692 103.602 293.64 102.685 293.588 102.096C293.241 102.08 292.876 102.047 292.529 101.981C293.467 100.427 294.838 98.7898 294.838 98.7898L296.972 98.1842L303.012 96.4819Z" fill="#A77860"/>
<path d="M305.059 92.6823C304.139 94.5646 303.272 95.9395 303.029 96.4797C302.872 96.8397 302.421 97.4126 301.796 98.051C300.043 99.835 296.798 102.176 293.604 102.094C293.257 102.077 292.893 102.045 292.546 101.979C291.261 101.717 289.734 101.144 288.901 99.6059C282.271 87.3792 287.079 77.3785 287.079 77.3785C287.079 77.3785 305.181 72.55 308.01 77.6895C309.971 81.2904 307.211 88.2631 305.059 92.6823Z" fill="#FFB592"/>
<path d="M287.045 77.3639C287.045 77.3639 285.361 77.282 284.945 74.2704C284.528 71.3078 285.361 70.4731 285.361 70.4731C285.361 70.4731 292.842 67.5269 295.514 67.134C298.187 66.7412 304.8 66.3811 306.344 68.0506C306.344 68.0506 310.11 67.2322 311.134 73.1083C312.766 82.4379 305.598 91.5056 305.598 91.5056C305.598 91.5056 305.667 85.4004 304.227 84.5984C302.804 83.7964 301.571 85.7114 301.571 85.7114L298.656 86.2024C298.656 86.2024 303.081 77.1838 297.771 76.8401C292.46 76.5291 290.082 77.8876 287.045 77.3639Z" fill="#5E5E5E"/>
<path d="M301.658 83.3046C301.936 80.6203 307.091 79.5891 306.744 82.4044C306.396 85.2196 303.862 87.9203 302.682 87.8385C301.519 87.7403 301.45 85.3506 301.658 83.3046Z" fill="#FFB592"/>
<path d="M331.824 121.57C330.14 116.496 328.7 112.486 328.04 112.06C326.912 111.291 317.974 108.983 313.739 107.412C313.6 107.363 313.462 107.314 313.34 107.264C312.958 107.117 312.576 106.986 312.212 106.839C312.021 106.773 311.847 106.708 311.674 106.642C311.57 106.61 311.483 106.577 311.379 106.544C311.292 106.512 311.223 106.479 311.136 106.462L311.119 106.479C310.737 106.872 308.776 108.983 306.432 112.126C302.042 118.002 296.332 127.528 297.217 136.317C297.494 139.132 297.841 143.192 298.432 147.742C298.466 148.102 298.518 148.462 298.57 148.822H318.356C318.599 144.059 319.033 137.79 319.675 135.368C319.675 135.351 319.692 135.335 319.692 135.335C319.692 135.319 319.692 135.302 319.71 135.286C319.71 135.253 319.727 135.237 319.727 135.204C319.727 135.188 319.744 135.171 319.744 135.171V135.155V135.139C319.744 135.139 324.534 142.193 324.777 148.822H337.221C336.614 142.651 334.705 130.261 331.824 121.57Z" fill="#3C4145"/>
<path d="M289.996 107.694C289.996 107.694 288.503 112.391 286.577 124.094C286.507 124.487 286.438 124.88 286.386 125.289C286.386 125.338 286.368 125.387 286.368 125.437C286.316 125.698 286.282 125.977 286.229 126.255C286.229 126.288 286.212 126.32 286.212 126.353C286.177 126.533 286.143 126.73 286.125 126.91C286.056 127.368 285.986 127.843 285.9 128.317C285.171 133.097 284.216 140.691 283.227 148.793H275.4C274.983 146.535 274.584 144.489 274.601 143.097C274.584 143.13 274.566 143.163 274.566 143.195C273.942 144.832 273.247 146.6 272.553 148.335C272.484 148.499 272.432 148.646 272.362 148.81H258.877L272.31 115.681C272.571 115.485 276.042 113.734 278.315 112.702C280.71 111.622 283.713 110.313 286.386 109.151C287.67 108.594 288.868 108.07 289.892 107.628L289.996 107.694Z" fill="#3C4145"/>
<path d="M308.185 119.265L303.013 122.014L305.217 124.142L300.375 148.808H298.553C297.876 143.816 297.494 139.348 297.199 136.303C295.845 122.702 310.233 107.382 311.118 106.449C311.813 106.694 312.559 106.973 313.323 107.251L308.185 119.265Z" fill="#51565C"/>
<path d="M290.083 107.562C290.083 107.562 288.156 113.504 285.9 128.333C285.171 133.112 284.199 140.707 283.227 148.809H282.464L281.457 125.501L283.922 122.98L281.735 120.411L286.421 109.15C287.705 108.593 288.903 108.069 289.927 107.627L290.083 107.562Z" fill="#51565C"/>
<path d="M311.395 106.498L307.109 104.042C307.109 104.042 306.987 106.252 296.383 112.046L299.385 120.05L311.395 106.498Z" fill="#F5E2D9"/>
<path d="M293.571 105.171C293.571 105.171 293.744 107.561 296.399 112.062L290.516 119.28L290.082 107.561L293.571 105.171Z" fill="#F5E2D9"/>
<path d="M296.399 112.046C296.399 112.046 297.545 116.335 297.128 117.546C297.128 117.546 294.629 118.397 292.824 117.333C292.824 117.333 294.091 114.322 296.399 112.046Z" fill="black"/>
<path d="M295.011 126.662C293.814 134.371 293.814 142.178 294.248 148.807H289.232C289.163 147.874 289.093 146.892 289.041 145.877C288.104 130.59 293.831 116.939 293.831 116.939L296.383 116.333C296.4 116.35 295.567 123.093 295.011 126.662Z" fill="black"/>
<path d="M274.774 136.172C274.584 139.839 274.618 143.096 274.618 143.096C274.618 143.112 274.618 143.21 274.601 143.374C274.601 143.309 274.584 143.243 274.584 143.194C273.959 144.831 273.264 146.598 272.57 148.333C272.414 146.337 272.362 144.471 272.414 142.736C272.692 132.457 276.128 127.072 276.128 127.072C275.33 128.856 274.965 132.702 274.774 136.172Z" fill="#2D3133"/>
<path d="M227.861 148.854L211.825 157.169L195.719 133.256L215.192 126.873L227.861 148.854Z" fill="#292C47"/>
<path d="M226.837 148.135L211.842 155.909L196.777 133.551L215.001 127.593L226.837 148.135Z" fill="white"/>
<path d="M232.34 143.943C232.34 143.943 229.546 142.683 228.331 142.028C227.098 141.373 223.957 140.473 223.697 140.244C223.436 140.031 214.359 139.507 213.804 139.049C213.249 138.607 212.711 140.097 215.071 140.588C217.431 141.079 220.711 142.257 220.885 143.125C221.059 143.992 218.473 144.205 218.195 144.909C217.935 145.629 218.264 145.465 218.646 145.613C219.011 145.76 221.735 144.352 222.933 144.745C224.131 145.154 225.953 144.598 226.873 144.892C227.793 145.187 232.253 146.595 232.253 146.595L232.34 143.943Z" fill="#FFB592"/>
<path d="M211.044 154.157C211.044 154.157 208.701 152.16 207.556 151.342C206.428 150.507 204.293 148.052 203.98 147.921C203.668 147.773 199.607 139.901 198.93 139.59C198.27 139.279 199.555 138.215 200.961 140.113C202.366 142.012 204.831 144.467 205.768 144.287C206.705 144.107 205.907 141.717 206.514 141.21C207.122 140.703 207.104 141.063 207.4 141.325C207.695 141.603 207.33 144.565 208.198 145.466C209.066 146.366 209.222 148.215 209.864 148.919C210.524 149.623 213.665 153.028 213.665 153.028L211.044 154.157Z" fill="#FFB592"/>
<path d="M261.549 260.564C261.549 260.564 262.052 263.887 262.122 264.378C262.191 264.869 267.762 264.084 267.762 264.084L268.213 260.123C268.213 260.139 262.243 260.09 261.549 260.564Z" fill="#424773"/>
<path d="M262.053 263.954C262.053 263.954 260.283 265.951 258.582 266.835C256.864 267.703 254.191 268.046 253.167 268.963C252.438 269.618 250.512 272.417 257.61 272.367C264.709 272.318 268.128 272.76 268.891 271.68C269.655 270.6 267.798 263.742 267.798 263.742C267.798 263.742 266.114 264.298 262.053 263.954Z" fill="#292C47"/>
<path d="M221.562 260.564C221.562 260.564 222.066 263.887 222.135 264.378C222.205 264.869 227.776 264.084 227.776 264.084L228.227 260.123C228.227 260.139 222.257 260.09 221.562 260.564Z" fill="#424773"/>
<path d="M222.083 263.953C222.083 263.953 220.313 265.95 218.612 266.834C216.894 267.701 210.611 268.422 209.604 269.322C208.876 269.977 207.661 272.595 217.658 272.35C224.756 272.17 228.175 272.743 228.939 271.662C229.702 270.582 227.845 263.724 227.845 263.724C227.845 263.724 226.231 264.346 222.083 263.953Z" fill="#292C47"/>
<path d="M256.915 175.238C256.915 175.238 262.156 183.094 261.774 190.198C261.375 197.302 263.684 205.06 264.465 212.474C265.35 220.74 268.942 240.316 269.064 244.752C269.203 249.171 268.508 263.296 268.508 263.296L261.323 263.444C261.323 263.444 255.283 229.219 253.721 225.716C252.159 222.23 244.401 197.318 244.141 194.535C243.863 191.736 256.915 175.238 256.915 175.238Z" fill="#292C47"/>
<path d="M229.32 176.302C229.32 176.302 225.363 195.764 224.842 200.117C224.321 204.471 223.974 221.15 223.714 223.867C223.454 226.584 221.978 259.418 220.59 263.444H229.788C229.788 263.444 236.852 239.58 236.852 228.286C236.852 216.993 242.302 203.735 245.825 196.287C249.348 188.84 257.401 188.66 259.571 174.846C259.553 174.829 232.253 171.916 229.32 176.302Z" fill="#292C47"/>
<path d="M248.168 109.18C248.168 109.18 241.139 106.708 237.893 111.749C234.648 116.807 234.96 126.922 238.501 128.166C242.041 129.41 247.37 128.755 249.192 125.596C251.014 122.437 252.646 117.871 252.576 114.81C252.489 111.766 250.025 110.063 248.168 109.18Z" fill="#FFB592"/>
<path d="M239.263 128.394C239.263 128.394 239.558 130.178 239.073 131.062C238.587 131.946 248.184 131.962 248.184 131.962C248.184 131.962 248.965 127.166 250.44 123.107C251.933 119.064 239.263 128.394 239.263 128.394Z" fill="#FFB592"/>
<path d="M250.459 123.125C250.459 123.125 249.799 124.156 247.092 123.763C244.384 123.37 241.087 119.966 239.959 119.589C238.83 119.213 238.813 118.591 238.813 118.591L238.101 119.573L236.904 119.638C236.904 119.638 237.997 116.61 236.349 115.366C234.7 114.122 238.067 105.546 246.745 108.394C246.745 108.394 253.409 110.129 253.166 113.697C252.923 117.265 251.951 121.341 250.459 123.125Z" fill="#3A3F47"/>
<path d="M238.5 130.965C238.5 130.965 238.535 129.279 239.333 129.115C240.149 128.952 248.289 128.215 249.278 128.592V130.556C249.295 130.556 247.369 131.669 238.5 130.965Z" fill="#E2D2CA"/>
<path d="M238.986 117.281C239.142 116.675 240.756 114.973 241.381 116.806C242.006 118.639 240.444 121.111 239.576 120.898C238.708 120.685 238.604 118.803 238.986 117.281Z" fill="#FFB592"/>
<path d="M206.218 150.9C206.218 150.884 206.218 150.884 206.218 150.9C206.167 150.916 206.167 150.916 206.218 150.9Z" fill="#323657"/>
<path d="M262.833 193.949C262.833 193.949 258.512 195.144 251.153 195.913C243.794 196.683 225.397 195.635 225.293 194.817C225.171 193.998 229.25 164.291 229.024 162.752C228.799 161.23 228.66 155.763 228.66 155.763C228.573 157.253 226.959 163.358 225.015 166.68C224.304 167.875 221.943 171.656 220.815 170.789C215.313 166.648 206.774 151.017 206.236 150.886C206.688 150.706 210.28 149.134 210.783 148.987C211.217 148.856 215.192 152.817 217.604 155.272C218.68 156.369 219.444 157.171 219.444 157.171C220.138 155.698 222.672 146.401 223.453 143.176C225.223 135.926 224.963 135.615 224.963 135.615C230.343 134.076 238.518 130.95 238.518 130.95L249.296 130.541C249.296 130.541 259.188 132.603 263.093 134.256C263.458 134.42 263.458 142.587 264.482 144.731L261.254 151.164C261.254 151.164 259.379 163.898 258.997 169.561C258.807 172.164 262.833 193.949 262.833 193.949Z" fill="#4A83E7"/>
<path d="M264.917 155.337C264.639 156.188 263.355 156.925 262.522 157.236C261.984 157.432 261.393 157.498 260.803 157.399L260.387 157.318L252.993 156.024C252.993 156.024 251.379 138.462 263.094 134.255C263.389 134.37 267.503 147.48 264.917 155.337Z" fill="#4A83E7"/>
<path d="M262.537 157.237C261.999 157.433 261.409 157.499 260.819 157.4L260.402 157.319L261.131 148.349L262.537 157.237Z" fill="#AB9546"/>
<path d="M219.444 157.17L218.542 160.771C218.542 160.771 217.57 157.153 217.604 155.271C218.68 156.368 219.444 157.17 219.444 157.17Z" fill="#AB9546"/>
<path d="M250.18 109.784C250.18 109.784 259.396 108.687 250.336 123.222L250.18 109.784Z" fill="#3A3F47"/>
<path d="M203.129 131.979L202.191 130.456L209.568 128.05L210.505 129.572L203.129 131.979Z" fill="#292C47"/>
<g opacity="0.95">
<path d="M343.972 66.8875H349.196L347.599 63.7612H342.375L343.972 66.8875Z" fill="url(#paint12_linear_2406_1688)"/>
<path d="M341.524 66.8875H342.774L341.16 63.7612H339.928L341.524 66.8875Z" fill="url(#paint13_linear_2406_1688)"/>
<path d="M323.44 63.1567H344.632L343.92 61.5854H322.746L323.44 63.1567Z" fill="url(#paint14_linear_2406_1688)"/>
</g>
<path d="M209.69 13.2189H201.689C201.411 13.2189 201.203 13.0061 201.203 12.7606V11.1238C201.203 10.8619 201.429 10.6655 201.689 10.6655H209.69C209.968 10.6655 210.176 10.8783 210.176 11.1238V12.7606C210.176 13.0225 209.95 13.2189 209.69 13.2189Z" fill="url(#paint15_linear_2406_1688)"/>
<path d="M209.69 19.34H201.689C201.411 19.34 201.203 19.1272 201.203 18.8817V17.2449C201.203 16.983 201.429 16.7866 201.689 16.7866H209.69C209.968 16.7866 210.176 16.9994 210.176 17.2449V18.8817C210.176 19.1272 209.95 19.34 209.69 19.34Z" fill="url(#paint16_linear_2406_1688)"/>
<path d="M209.69 25.463H201.689C201.411 25.463 201.203 25.2503 201.203 25.0047V23.368C201.203 23.1061 201.429 22.9097 201.689 22.9097H209.69C209.968 22.9097 210.176 23.1224 210.176 23.368V25.0047C210.176 25.2503 209.95 25.463 209.69 25.463Z" fill="url(#paint17_linear_2406_1688)"/>
<path d="M215.938 13.2189H214.359C214.081 13.2189 213.873 13.0061 213.873 12.7606V11.1238C213.873 10.8619 214.099 10.6655 214.359 10.6655H215.938C216.216 10.6655 216.424 10.8783 216.424 11.1238V12.7606C216.442 13.0225 216.216 13.2189 215.938 13.2189Z" fill="url(#paint18_linear_2406_1688)"/>
<path d="M215.938 19.34H214.359C214.081 19.34 213.873 19.1272 213.873 18.8817V17.2449C213.873 16.983 214.099 16.7866 214.359 16.7866H215.938C216.216 16.7866 216.424 16.9994 216.424 17.2449V18.8817C216.442 19.1272 216.216 19.34 215.938 19.34Z" fill="url(#paint19_linear_2406_1688)"/>
<path d="M215.938 25.463H214.359C214.081 25.463 213.873 25.2503 213.873 25.0047V23.368C213.873 23.1061 214.099 22.9097 214.359 22.9097H215.938C216.216 22.9097 216.424 23.1224 216.424 23.368V25.0047C216.442 25.2503 216.216 25.463 215.938 25.463Z" fill="url(#paint20_linear_2406_1688)"/>
<path d="M181.194 150.999H190.583L187.702 145.369H178.312L181.194 150.999Z" fill="url(#paint21_linear_2406_1688)"/>
<path d="M176.803 150.999H179.042L176.161 145.369H173.922L176.803 150.999Z" fill="url(#paint22_linear_2406_1688)"/>
<defs>
<linearGradient id="paint0_linear_2406_1688" x1="184.412" y1="201.273" x2="178.051" y2="79.037" gradientUnits="userSpaceOnUse">
<stop stop-color="#D1D7E0"/>
<stop offset="1" stop-color="#EBEBFF"/>
</linearGradient>
<linearGradient id="paint1_linear_2406_1688" x1="301.35" y1="235.339" x2="301.35" y2="109.537" gradientUnits="userSpaceOnUse">
<stop stop-color="#D1D7E0"/>
<stop offset="1" stop-color="#EBEBFF"/>
</linearGradient>
<linearGradient id="paint2_linear_2406_1688" x1="0" y1="271.688" x2="343.895" y2="271.688" gradientUnits="userSpaceOnUse">
<stop offset="0.00520833" stop-color="#4A83E7"/>
<stop offset="1" stop-color="#C5A3DC"/>
</linearGradient>
<linearGradient id="paint3_linear_2406_1688" x1="177.873" y1="157.656" x2="177.873" y2="65.6695" gradientUnits="userSpaceOnUse">
<stop stop-color="#D1D7E0"/>
<stop offset="1" stop-color="#EBEBFF"/>
</linearGradient>
<linearGradient id="paint4_linear_2406_1688" x1="77.9576" y1="210.33" x2="55.8486" y2="210.33" gradientUnits="userSpaceOnUse">
<stop stop-color="#3076A1"/>
<stop offset="1" stop-color="#48C9B6"/>
</linearGradient>
<linearGradient id="paint5_linear_2406_1688" x1="60.7791" y1="227.544" x2="20.5856" y2="227.544" gradientUnits="userSpaceOnUse">
<stop stop-color="#3076A1"/>
<stop offset="1" stop-color="#48C9B6"/>
</linearGradient>
<linearGradient id="paint6_linear_2406_1688" x1="57.3433" y1="233.055" x2="27.1753" y2="233.055" gradientUnits="userSpaceOnUse">
<stop stop-color="#3076A1"/>
<stop offset="1" stop-color="#48C9B6"/>
</linearGradient>
<linearGradient id="paint7_linear_2406_1688" x1="93.8099" y1="204.153" x2="48.5074" y2="204.153" gradientUnits="userSpaceOnUse">
<stop stop-color="#3076A1"/>
<stop offset="1" stop-color="#48C9B6"/>
</linearGradient>
<linearGradient id="paint8_linear_2406_1688" x1="66.8359" y1="250.788" x2="43.1144" y2="175.328" gradientUnits="userSpaceOnUse">
<stop stop-color="#3076A1"/>
<stop offset="1" stop-color="#48C9B6"/>
</linearGradient>
<linearGradient id="paint9_linear_2406_1688" x1="46.4284" y1="299.526" x2="58.2246" y2="245.605" gradientUnits="userSpaceOnUse">
<stop stop-color="#C9C4C1"/>
<stop offset="1" stop-color="#FFF6DE"/>
</linearGradient>
<linearGradient id="paint10_linear_2406_1688" x1="43.8787" y1="257.686" x2="76.2993" y2="257.686" gradientUnits="userSpaceOnUse">
<stop stop-color="#C9C4C1"/>
<stop offset="1" stop-color="#FFF6DE"/>
</linearGradient>
<linearGradient id="paint11_linear_2406_1688" x1="266.267" y1="79.888" x2="266.267" y2="28.0705" gradientUnits="userSpaceOnUse">
<stop stop-color="#D1D7E0"/>
<stop offset="1" stop-color="#EBEBFF"/>
</linearGradient>
<linearGradient id="paint12_linear_2406_1688" x1="342.368" y1="65.3218" x2="349.201" y2="65.3218" gradientUnits="userSpaceOnUse">
<stop stop-color="#D1D7E0"/>
<stop offset="1" stop-color="#EBEBFF"/>
</linearGradient>
<linearGradient id="paint13_linear_2406_1688" x1="339.92" y1="65.3218" x2="342.768" y2="65.3218" gradientUnits="userSpaceOnUse">
<stop stop-color="#D1D7E0"/>
<stop offset="1" stop-color="#EBEBFF"/>
</linearGradient>
<linearGradient id="paint14_linear_2406_1688" x1="322.745" y1="62.3758" x2="344.631" y2="62.3758" gradientUnits="userSpaceOnUse">
<stop stop-color="#D1D7E0"/>
<stop offset="1" stop-color="#EBEBFF"/>
</linearGradient>
<linearGradient id="paint15_linear_2406_1688" x1="201.196" y1="11.9465" x2="210.173" y2="11.9465" gradientUnits="userSpaceOnUse">
<stop stop-color="#D1D7E0"/>
<stop offset="1" stop-color="#EBEBFF"/>
</linearGradient>
<linearGradient id="paint16_linear_2406_1688" x1="201.196" y1="18.0636" x2="210.173" y2="18.0636" gradientUnits="userSpaceOnUse">
<stop stop-color="#D1D7E0"/>
<stop offset="1" stop-color="#EBEBFF"/>
</linearGradient>
<linearGradient id="paint17_linear_2406_1688" x1="201.196" y1="24.1828" x2="210.173" y2="24.1828" gradientUnits="userSpaceOnUse">
<stop stop-color="#D1D7E0"/>
<stop offset="1" stop-color="#EBEBFF"/>
</linearGradient>
<linearGradient id="paint18_linear_2406_1688" x1="213.88" y1="11.9465" x2="216.434" y2="11.9465" gradientUnits="userSpaceOnUse">
<stop stop-color="#D1D7E0"/>
<stop offset="1" stop-color="#EBEBFF"/>
</linearGradient>
<linearGradient id="paint19_linear_2406_1688" x1="213.88" y1="18.0636" x2="216.434" y2="18.0636" gradientUnits="userSpaceOnUse">
<stop stop-color="#D1D7E0"/>
<stop offset="1" stop-color="#EBEBFF"/>
</linearGradient>
<linearGradient id="paint20_linear_2406_1688" x1="213.88" y1="24.1828" x2="216.434" y2="24.1828" gradientUnits="userSpaceOnUse">
<stop stop-color="#D1D7E0"/>
<stop offset="1" stop-color="#EBEBFF"/>
</linearGradient>
<linearGradient id="paint21_linear_2406_1688" x1="178.318" y1="148.184" x2="190.583" y2="148.184" gradientUnits="userSpaceOnUse">
<stop stop-color="#D1D7E0"/>
<stop offset="1" stop-color="#EBEBFF"/>
</linearGradient>
<linearGradient id="paint22_linear_2406_1688" x1="173.924" y1="148.184" x2="179.036" y2="148.184" gradientUnits="userSpaceOnUse">
<stop stop-color="#D1D7E0"/>
<stop offset="1" stop-color="#EBEBFF"/>
</linearGradient>
</defs>
</svg>
