<svg width="241" height="50" viewBox="0 0 241 50" fill="none" xmlns="http://www.w3.org/2000/svg">
<path d="M240.986 43.4175L239.29 37.8986L235.359 42.1265L240.986 43.4175ZM1.19847 49.0157C1.63548 48.3218 2.09472 47.6324 2.57571 46.9476L1.7574 46.3728C1.26704 47.0709 0.798491 47.7743 0.352311 48.4827L1.19847 49.0157ZM5.65606 42.9704C6.72124 41.7144 7.86035 40.4767 9.0701 39.2588L8.36063 38.5541C7.13338 39.7896 5.97641 41.0465 4.8934 42.3236L5.65606 42.9704ZM12.7577 35.7977C13.9985 34.7088 15.2968 33.6382 16.6498 32.5871L16.0364 31.7974C14.6683 32.8601 13.3546 33.9434 12.0981 35.0461L12.7577 35.7977ZM20.7063 29.6076C22.0666 28.6617 23.4724 27.7339 24.9215 26.8252L24.3902 25.978C22.9282 26.8948 21.5092 27.8313 20.1354 28.7866L20.7063 29.6076ZM29.2759 24.2258C30.7228 23.4031 32.2064 22.5984 33.7248 21.8123L33.2651 20.9243C31.7354 21.7161 30.2403 22.5271 28.7816 23.3565L29.2759 24.2258ZM38.2446 19.5764C39.7549 18.8625 41.2951 18.1663 42.8636 17.4886L42.467 16.5706C40.8884 17.2527 39.3379 17.9535 37.8172 18.6723L38.2446 19.5764ZM47.5534 15.5507C49.1026 14.9388 50.6761 14.3443 52.2724 13.768L51.9329 12.8274C50.3273 13.4071 48.7446 14.005 47.186 14.6206L47.5534 15.5507ZM57.0684 12.1138C58.6598 11.5898 60.2714 11.0835 61.902 10.5953L61.6152 9.63736C59.9761 10.1281 58.3558 10.6371 56.7557 11.1639L57.0684 12.1138ZM66.7634 9.2091C68.3874 8.76867 70.0281 8.34602 71.6844 7.94166L71.4472 6.97019C69.7828 7.37654 68.1339 7.8013 66.5016 8.24396L66.7634 9.2091ZM76.607 6.8039C78.2487 6.44553 79.904 6.10498 81.5717 5.78273L81.382 4.80089C79.7064 5.12465 78.0433 5.46682 76.3938 5.82691L76.607 6.8039ZM86.5618 4.8797C88.2171 4.60025 89.8833 4.33877 91.5593 4.09572L91.4157 3.10607C89.7321 3.35024 88.0583 3.61291 86.3954 3.89365L86.5618 4.8797ZM96.594 3.42489C98.2607 3.22234 99.9359 3.03803 101.619 2.87239L101.521 1.8772C99.8304 2.04359 98.1476 2.22872 96.4734 2.43219L96.594 3.42489ZM106.671 2.43318C108.35 2.30653 110.035 2.19857 111.725 2.10968L111.673 1.11106C109.975 1.20034 108.282 1.3088 106.596 1.43602L106.671 2.43318ZM116.787 1.90143C118.472 1.85137 120.162 1.82048 121.856 1.80913L121.849 0.809151C120.148 0.820549 118.45 0.851589 116.757 0.901871L116.787 1.90143ZM126.918 1.8337C128.606 1.86145 130.296 1.90888 131.988 1.97638L132.028 0.977171C130.328 0.909362 128.63 0.861712 126.935 0.833831L126.918 1.8337ZM137.042 2.23784C138.726 2.34503 140.411 2.47245 142.096 2.62045L142.183 1.62429C140.491 1.47557 138.798 1.34756 137.105 1.23986L137.042 2.23784ZM147.134 3.1251C148.811 3.31388 150.487 3.52348 152.161 3.75428L152.298 2.76365C150.616 2.53171 148.931 2.32107 147.246 2.13137L147.134 3.1251ZM157.169 4.50962C158.835 4.78261 160.497 5.07709 162.156 5.39342L162.343 4.41113C160.676 4.09315 159.005 3.79716 157.331 3.52279L157.169 4.50962ZM167.118 6.40793C168.767 6.7681 170.411 7.15048 172.05 7.55542L172.29 6.58462C170.642 6.17747 168.989 5.79305 167.331 5.43096L167.118 6.40793ZM176.948 8.83827C178.575 9.28877 180.195 9.76223 181.808 10.259L182.102 9.30331C180.48 8.80369 178.851 8.32756 177.215 7.87454L176.948 8.83827ZM186.624 11.8197C188.221 12.3637 189.811 12.9313 191.391 13.523L191.742 12.5865C190.152 11.9912 188.553 11.4202 186.946 10.8731L186.624 11.8197ZM196.103 15.3707C197.664 16.011 199.215 16.6756 200.755 17.3651L201.164 16.4524C199.614 15.7585 198.053 15.0897 196.483 14.4455L196.103 15.3707ZM205.339 19.5074C206.855 20.2464 208.36 21.0104 209.852 21.8L210.319 20.9162C208.818 20.1214 207.303 19.3522 205.777 18.6085L205.339 19.5074ZM214.281 24.242C215.744 25.0813 217.193 25.9465 218.628 26.8378L219.155 25.9883C217.711 25.0908 216.251 24.2197 214.779 23.3747L214.281 24.242ZM222.873 29.5806C224.272 30.5201 225.656 31.4859 227.024 32.4784L227.611 31.669C226.234 30.6694 224.84 29.6966 223.431 28.7504L222.873 29.5806ZM231.06 35.5211C232.385 36.559 233.693 37.6235 234.984 38.7149L235.63 37.9513C234.329 36.8517 233.011 35.7794 231.676 34.7339L231.06 35.5211Z" fill="#4A83E7"/>
</svg>
