<svg width="58" height="59" viewBox="0 0 58 59" fill="none" xmlns="http://www.w3.org/2000/svg">
<g clip-path="url(#clip0_2406_2190)">
<path d="M56.3068 10.2534V56.4441C56.3068 57.0955 55.7839 57.6285 55.1448 57.6285H2.85344C2.21432 57.6285 1.69141 57.0955 1.69141 56.4441V10.2534H56.3068Z" fill="white"/>
<path d="M56.3068 3.14483V10.2511H1.69141V3.14483C1.69141 2.49342 2.21432 1.96045 2.85344 1.96045H55.1448C55.7839 1.96045 56.3068 2.49342 56.3068 3.14483Z" fill="#4A83E7"/>
<path d="M55.1447 0.774902H2.85336C1.57187 0.774902 0.529297 1.83753 0.529297 3.14366V56.4406C0.529297 57.7468 1.57187 58.8094 2.85336 58.8094H55.1447C56.4262 58.8094 57.4688 57.7468 57.4688 56.4406V3.14366C57.4688 1.83753 56.4262 0.774902 55.1447 0.774902ZM55.1447 3.14366V9.06554H2.85336V3.14366H55.1447ZM2.85336 56.4406V11.4343H55.1447V56.4406H2.85336Z" fill="#003084"/>
<path d="M9.24484 4.91748H5.17773V7.28623H9.24484V4.91748Z" fill="#003084"/>
<path d="M15.0554 4.91748H10.9883V7.28623H15.0554V4.91748Z" fill="#003084"/>
<path d="M52.821 4.91748H48.7539V7.28623H52.821V4.91748Z" fill="#003084"/>
<path d="M44.6854 29.2077V33.9452C44.6854 34.5967 44.1625 35.1296 43.5233 35.1296H40.688C40.444 35.9587 40.1302 36.7522 39.7351 37.4865L41.7338 39.5355C42.187 39.9974 42.187 40.7436 41.7338 41.2055L38.4453 44.5573C37.9921 45.0192 37.26 45.0192 36.8068 44.5573L34.7965 42.5201C34.076 42.9228 33.2975 43.2426 32.484 43.4913V46.3812C32.484 47.0326 31.9611 47.5656 31.322 47.5656H26.6739C26.0348 47.5656 25.5119 47.0326 25.5119 46.3812V43.4913C24.6984 43.2426 23.9199 42.9228 23.1994 42.5201L21.1891 44.5573C20.7359 45.0192 20.0038 45.0192 19.5506 44.5573L16.2621 41.2055C15.8089 40.7436 15.8089 39.9974 16.2621 39.5355L18.2608 37.4865C17.8657 36.7522 17.552 35.9587 17.3079 35.1296H14.4726C13.8335 35.1296 13.3105 34.5967 13.3105 33.9452V29.2077C13.3105 28.5563 13.8335 28.0234 14.4726 28.0234H17.3079C17.552 27.1943 17.8657 26.4008 18.2608 25.6665L16.2621 23.6175C15.8089 23.1556 15.8089 22.4094 16.2621 21.9475L19.5506 18.5957C20.0038 18.1338 20.7359 18.1338 21.1891 18.5957L23.1994 20.6328C23.9199 20.2302 24.6984 19.9104 25.5119 19.6617V16.7718C25.5119 16.1204 26.0348 15.5874 26.6739 15.5874H31.322C31.9611 15.5874 32.484 16.1204 32.484 16.7718V19.6617C33.2975 19.9104 34.076 20.2302 34.7965 20.6328L36.8068 18.5957C37.26 18.1338 37.9921 18.1338 38.4453 18.5957L41.7338 21.9475C42.187 22.4094 42.187 23.1556 41.7338 23.6175L39.7351 25.6665C40.1302 26.4008 40.444 27.1943 40.688 28.0234H43.5233C44.1625 28.0234 44.6854 28.5563 44.6854 29.2077Z" fill="#AFB6BB"/>
<path d="M31.3219 48.7507H26.6738C25.3923 48.7507 24.3498 47.6881 24.3498 46.382V44.3457C24.0322 44.2269 23.7242 44.0983 23.4271 43.9604L22.0084 45.398C21.5722 45.8426 20.9894 46.0889 20.3698 46.0889C19.7502 46.0889 19.1675 45.8426 18.7288 45.3955L15.4404 42.0439C15.0018 41.5969 14.7601 41.0029 14.7601 40.3714C14.7601 39.7399 15.0017 39.1459 15.4404 38.6988L16.8484 37.2553C16.713 36.9523 16.5868 36.6386 16.4703 36.3149H14.4725C13.191 36.3149 12.1484 35.2523 12.1484 33.9461V29.2086C12.1484 27.9025 13.191 26.8399 14.4725 26.8399H16.4704C16.5869 26.5162 16.7131 26.2023 16.8484 25.8995L15.4379 24.4535C15.0017 24.0089 14.7601 23.4149 14.7601 22.7834C14.7601 22.1519 15.0017 21.5579 15.4404 21.1108L18.7288 17.7591C19.1673 17.3122 19.7501 17.0658 20.3697 17.0658C20.9893 17.0658 21.572 17.312 22.0107 17.7591L23.427 19.1943C23.7242 19.0563 24.0321 18.9277 24.3496 18.8089V16.7726C24.3496 15.4664 25.3922 14.4038 26.6737 14.4038H31.3218C32.6033 14.4038 33.6459 15.4664 33.6459 16.7726V18.8089C33.9635 18.9277 34.2714 19.0563 34.5685 19.1941L35.9873 17.7565C36.4235 17.3119 37.0062 17.0657 37.6258 17.0657C38.2454 17.0657 38.8282 17.3119 39.2669 17.759L42.5553 21.1107C42.9938 21.5577 43.2355 22.1516 43.2355 22.7832C43.2355 23.4147 42.994 24.0086 42.5553 24.4557L41.1473 25.8993C41.2826 26.2022 41.4088 26.516 41.5254 26.8396H43.5233C44.8047 26.8396 45.8473 27.9023 45.8473 29.2084V33.9459C45.8473 35.252 44.8047 36.3147 43.5233 36.3147H41.5254C41.4088 36.6384 41.2826 36.9522 41.1474 37.2551L42.5578 38.7011C42.9941 39.1457 43.2357 39.7396 43.2357 40.3712C43.2357 41.0027 42.9941 41.5966 42.5554 42.0437L39.267 45.3954C38.8284 45.8424 38.2457 46.0887 37.6261 46.0887C37.0065 46.0887 36.4237 45.8425 35.9851 45.3954L34.5688 43.9603C34.2715 44.0983 33.9637 44.2269 33.6461 44.3457V46.382C33.646 47.6881 32.6034 48.7507 31.3219 48.7507ZM23.1997 41.3365C23.3904 41.3365 23.5825 41.3843 23.7581 41.4823C24.3793 41.8295 25.0817 42.1239 25.8458 42.3576C26.3373 42.5079 26.6739 42.969 26.6739 43.492V46.382H31.3221V43.4921C31.3221 42.9691 31.6586 42.5079 32.1502 42.3577C32.9143 42.124 33.6167 41.8296 34.2379 41.4825C34.6896 41.2299 35.2503 41.3108 35.6159 41.6811L37.6262 43.7181L40.9121 40.3688L38.911 38.3225C38.5478 37.9501 38.4684 37.3785 38.7162 36.9181C39.0568 36.2849 39.3456 35.569 39.5749 34.7903C39.7224 34.2893 40.1748 33.9461 40.6879 33.9461H43.5233V29.2086H40.6879C40.1748 29.2086 39.7223 28.8656 39.5749 28.3645C39.3456 27.5858 39.0568 26.8699 38.7162 26.2367C38.4684 25.7762 38.5478 25.2046 38.911 24.8322L40.9096 22.7833L37.6235 19.4342L35.6159 21.4737C35.2503 21.8441 34.6896 21.9248 34.2379 21.6723C33.6167 21.3252 32.9143 21.0308 32.1502 20.7971C31.6587 20.6468 31.3221 20.1857 31.3221 19.6627V16.7726H26.6739V19.6624C26.6739 20.1855 26.3374 20.6467 25.8458 20.7968C25.0817 21.0305 24.3793 21.325 23.7581 21.6721C23.3063 21.9244 22.7455 21.8437 22.3801 21.4735L20.3698 19.4365L17.0839 22.7858L19.0849 24.832C19.4482 25.2045 19.5276 25.7761 19.2798 26.2364C18.9392 26.8696 18.6503 27.5856 18.4211 28.3643C18.2736 28.8653 17.8212 29.2084 17.3081 29.2084H14.4725V33.9459H17.3079C17.821 33.9459 18.2735 34.2889 18.4208 34.79C18.6501 35.5687 18.939 36.2847 19.2796 36.9179C19.5273 37.3784 19.448 37.9499 19.0847 38.3223L17.0861 40.3713L20.3722 43.7203L22.3799 41.6808C22.6035 41.4546 22.8998 41.3365 23.1997 41.3365Z" fill="#003084"/>
<path d="M28.9977 26.8394C31.5658 26.8394 33.6459 28.9594 33.6459 31.5769C33.6459 34.1943 31.5658 36.3144 28.9977 36.3144C26.4296 36.3144 24.3496 34.1943 24.3496 31.5769C24.3496 28.9594 26.4296 26.8394 28.9977 26.8394Z" fill="white"/>
<path d="M28.9977 37.4976C25.7939 37.4976 23.1875 34.841 23.1875 31.5757C23.1875 28.3104 25.7939 25.6538 28.9977 25.6538C32.2014 25.6538 34.8078 28.3104 34.8078 31.5757C34.8078 34.841 32.2014 37.4976 28.9977 37.4976ZM28.9977 28.0226C27.0754 28.0226 25.5116 29.6165 25.5116 31.5757C25.5116 33.5349 27.0754 35.1288 28.9977 35.1288C30.9199 35.1288 32.4837 33.5349 32.4837 31.5757C32.4837 29.6165 30.9199 28.0226 28.9977 28.0226Z" fill="#003084"/>
<path d="M47.0096 18.5425H44.6855V20.9112H47.0096V18.5425Z" fill="#003084"/>
<path d="M50.4959 18.5425H48.1719V20.9112H50.4959V18.5425Z" fill="#003084"/>
<path d="M53.9823 18.5425H51.6582V20.9112H53.9823V18.5425Z" fill="#003084"/>
<path d="M6.33969 42.2339H4.01562V44.6026H6.33969V42.2339Z" fill="#003084"/>
<path d="M9.82406 42.2339H7.5V44.6026H9.82406V42.2339Z" fill="#003084"/>
<path d="M13.3104 42.2339H10.9863V44.6026H13.3104V42.2339Z" fill="#003084"/>
<path d="M49.9151 51.7085H8.08203V54.0773H49.9151V51.7085Z" fill="#003084"/>
</g>
<defs>
<clipPath id="clip0_2406_2190">
<rect width="56.9395" height="58.0345" fill="white" transform="translate(0.529297 0.780762)"/>
</clipPath>
</defs>
</svg>
