<svg width="78" height="79" viewBox="0 0 78 79" fill="none" xmlns="http://www.w3.org/2000/svg">
<g clip-path="url(#clip0_2406_2417)">
<path d="M70.6834 78.7771H56.0604C55.9804 78.7772 55.9011 78.7614 55.8272 78.7308C55.7532 78.7002 55.686 78.6553 55.6295 78.5987C55.5729 78.5421 55.528 78.4749 55.4974 78.401C55.4668 78.327 55.4511 78.2477 55.4512 78.1677V76.1553C55.4512 74.6617 56.4339 74.1691 57.3552 73.8251C58.3952 73.4336 59.5114 72.7886 59.7305 72.5172C59.7595 72.3686 59.8429 72.2361 59.9643 72.1456C60.0858 72.0551 60.2366 72.0131 60.3873 72.0278C60.538 72.0425 60.6779 72.1129 60.7795 72.2251C60.8812 72.3374 60.9374 72.4835 60.9371 72.635C60.9371 73.7001 58.5215 74.6879 57.7823 74.9652C56.8232 75.3246 56.6696 75.566 56.6696 76.1553V77.5585H70.0742V76.1553C70.0742 75.565 69.9206 75.3247 68.9615 74.9664C68.4342 74.7688 65.8101 73.7287 65.8101 72.635C65.8101 72.555 65.8258 72.4757 65.8564 72.4018C65.887 72.3278 65.9319 72.2606 65.9885 72.204C66.0451 72.1475 66.1123 72.1026 66.1862 72.072C66.2602 72.0414 66.3394 72.0257 66.4195 72.0257C66.5608 72.0258 66.6978 72.075 66.807 72.1648C66.9161 72.2546 66.9907 72.3796 67.018 72.5183C67.2359 72.7896 68.3484 73.4347 69.3886 73.825C70.3097 74.169 71.2928 74.6603 71.2928 76.1552V78.1676C71.2928 78.2476 71.2771 78.3269 71.2465 78.4009C71.2159 78.4748 71.171 78.542 71.1145 78.5987C71.0579 78.6553 70.9907 78.7002 70.9167 78.7308C70.8427 78.7614 70.7635 78.7772 70.6834 78.7771Z" fill="#155DDD"/>
<path d="M63.373 73.9047C61.2905 73.9047 58.5 71.0163 58.5 68.0637C58.5 65.1409 60.5944 62.937 63.373 62.937C66.197 62.937 68.2474 65.0934 68.2474 68.0637C68.2474 71.0163 65.4569 73.9047 63.373 73.9047ZM63.373 64.1555C61.2561 64.1555 59.7186 65.7991 59.7186 68.0637C59.7186 70.5463 62.1701 72.686 63.373 72.686C64.5762 72.686 67.0288 70.5463 67.0288 68.0637C67.0288 65.7991 65.4915 64.1555 63.373 64.1555Z" fill="#155DDD"/>
<path d="M66.4203 73.2481C66.0835 73.2481 65.811 72.9757 65.811 72.6389V71.3334C65.811 70.9965 66.0835 70.7241 66.4203 70.7241C66.7572 70.7241 67.0295 70.9965 67.0295 71.3334V72.6389C67.0296 72.7189 67.0139 72.7981 66.9833 72.8721C66.9527 72.946 66.9078 73.0132 66.8512 73.0698C66.7947 73.1264 66.7275 73.1712 66.6535 73.2018C66.5796 73.2324 66.5003 73.2482 66.4203 73.2481ZM60.3286 73.2481C60.2485 73.2481 60.1693 73.2324 60.0954 73.2018C60.0214 73.1712 59.9543 73.1263 59.8977 73.0697C59.8411 73.0132 59.7962 72.946 59.7656 72.872C59.735 72.7981 59.7193 72.7189 59.7193 72.6389V71.3334C59.7193 71.2533 59.735 71.1741 59.7656 71.1002C59.7962 71.0262 59.8411 70.9591 59.8977 70.9025C59.9543 70.8459 60.0214 70.801 60.0954 70.7704C60.1693 70.7398 60.2485 70.7241 60.3286 70.7241C60.4086 70.7241 60.4878 70.7398 60.5618 70.7704C60.6357 70.801 60.7029 70.8458 60.7595 70.9024C60.8161 70.959 60.8609 71.0262 60.8915 71.1001C60.9221 71.1741 60.9378 71.2533 60.9378 71.3334V72.6389C60.9378 72.7189 60.9221 72.7981 60.8915 72.8721C60.8609 72.946 60.8161 73.0132 60.7595 73.0698C60.7029 73.1264 60.6357 73.1712 60.5618 73.2018C60.4878 73.2324 60.4086 73.2482 60.3286 73.2481ZM46.3123 78.7808H31.6893C31.6093 78.7809 31.53 78.7651 31.4561 78.7345C31.3821 78.7039 31.315 78.659 31.2584 78.6024C31.2018 78.5458 31.1569 78.4786 31.1263 78.4047C31.0957 78.3307 31.08 78.2515 31.0801 78.1714V76.159C31.0801 74.6654 32.0624 74.1729 32.9835 73.8289C34.0247 73.4373 35.1397 72.7923 35.3588 72.5209C35.3862 72.3825 35.4608 72.2578 35.5698 72.1682C35.6789 72.0785 35.8156 72.0295 35.9568 72.0295C36.2934 72.0295 36.5661 72.302 36.5661 72.6387C36.5661 73.7038 34.1509 74.6916 33.4114 74.9689C32.4522 75.3283 32.2987 75.5698 32.2987 76.159V77.5622H45.7032V76.159C45.7032 75.5687 45.5497 75.3284 44.5905 74.9701C44.0633 74.7725 41.4393 73.7324 41.4393 72.6387C41.4393 72.5587 41.455 72.4794 41.4856 72.4055C41.5162 72.3316 41.5611 72.2644 41.6176 72.2078C41.6742 72.1512 41.7414 72.1064 41.8153 72.0758C41.8893 72.0451 41.9685 72.0294 42.0485 72.0295C42.1899 72.0295 42.3268 72.0787 42.436 72.1685C42.5452 72.2584 42.6198 72.3833 42.6471 72.522C42.8649 72.7933 43.9777 73.4384 45.0177 73.8287C45.9389 74.1727 46.9218 74.664 46.9218 76.1589V78.1713C46.9219 78.2513 46.9061 78.3306 46.8755 78.4046C46.8449 78.4785 46.8 78.5457 46.7434 78.6023C46.6868 78.6589 46.6196 78.7038 46.5456 78.7345C46.4716 78.7651 46.3924 78.7808 46.3123 78.7808Z" fill="#155DDD"/>
<path d="M39.0021 73.9047C36.9195 73.9047 34.1289 71.0163 34.1289 68.0637C34.1289 65.1409 36.2239 62.937 39.0021 62.937C41.8259 62.937 43.8765 65.0934 43.8765 68.0637C43.8765 71.0163 41.0858 73.9047 39.0021 73.9047ZM39.0021 64.1555C36.8843 64.1555 35.3475 65.7991 35.3475 68.0637C35.3475 70.5463 37.799 72.686 39.0021 72.686C40.2057 72.686 42.6577 70.5463 42.6577 68.0637C42.6577 65.7991 41.1203 64.1555 39.0021 64.1555Z" fill="#155DDD"/>
<path d="M42.0494 73.2481C41.9694 73.2481 41.8901 73.2324 41.8162 73.2018C41.7423 73.1712 41.6751 73.1263 41.6185 73.0697C41.5619 73.0132 41.5171 72.946 41.4865 72.872C41.4559 72.7981 41.4401 72.7189 41.4402 72.6389V71.3334C41.4401 71.2533 41.4559 71.1741 41.4865 71.1002C41.5171 71.0262 41.5619 70.9591 41.6185 70.9025C41.6751 70.8459 41.7423 70.801 41.8162 70.7704C41.8901 70.7398 41.9694 70.7241 42.0494 70.7241C42.1294 70.7241 42.2087 70.7398 42.2826 70.7704C42.3565 70.801 42.4237 70.8458 42.4803 70.9024C42.5369 70.959 42.5818 71.0262 42.6124 71.1001C42.643 71.1741 42.6587 71.2533 42.6586 71.3334V72.6389C42.6587 72.7189 42.643 72.7981 42.6124 72.8721C42.5818 72.946 42.5369 73.0132 42.4803 73.0698C42.4237 73.1264 42.3565 73.1712 42.2826 73.2018C42.2087 73.2324 42.1294 73.2482 42.0494 73.2481ZM35.9576 73.2481C35.6209 73.2481 35.3482 72.9757 35.3482 72.6389V71.3334C35.3482 70.9965 35.6208 70.7241 35.9576 70.7241C36.2944 70.7241 36.567 70.9965 36.567 71.3334V72.6389C36.567 72.7189 36.5513 72.7981 36.5207 72.8721C36.4901 72.946 36.4452 73.0132 36.3886 73.0698C36.332 73.1264 36.2648 73.1713 36.1908 73.2018C36.1169 73.2324 36.0376 73.2482 35.9576 73.2481ZM21.9415 78.7808H7.31821C7.23818 78.7809 7.15893 78.7651 7.08498 78.7345C7.01104 78.7039 6.94386 78.659 6.88728 78.6024C6.8307 78.5458 6.78583 78.4786 6.75523 78.4047C6.72464 78.3307 6.70892 78.2515 6.70898 78.1714V76.159C6.70898 74.6654 7.6913 74.1729 8.61237 73.8289C9.65364 73.4373 10.7686 72.7923 10.9877 72.5209C11.0151 72.3824 11.0897 72.2577 11.1988 72.1681C11.3079 72.0785 11.4446 72.0295 11.5858 72.0295C11.6658 72.0294 11.7451 72.0451 11.819 72.0758C11.8929 72.1064 11.9601 72.1512 12.0167 72.2078C12.0733 72.2644 12.1181 72.3316 12.1487 72.4055C12.1793 72.4794 12.1951 72.5587 12.195 72.6387C12.195 73.7038 9.77978 74.6916 9.0403 74.9689C8.08114 75.3283 7.92758 75.5698 7.92758 76.159V77.5622H21.332V76.159C21.332 75.5687 21.1784 75.3284 20.2193 74.9701C19.6922 74.7725 17.0681 73.7324 17.0681 72.6387C17.068 72.5587 17.0837 72.4794 17.1143 72.4055C17.1449 72.3316 17.1898 72.2644 17.2464 72.2078C17.303 72.1512 17.3702 72.1064 17.4441 72.0758C17.518 72.0451 17.5973 72.0294 17.6773 72.0295C17.8186 72.0296 17.9555 72.0787 18.0646 72.1686C18.1737 72.2584 18.2482 72.3833 18.2754 72.522C18.4938 72.7933 19.607 73.4384 20.6465 73.8287C21.5669 74.1727 22.5504 74.664 22.5504 76.1589V78.1713C22.5506 78.2513 22.5349 78.3306 22.5044 78.4045C22.4738 78.4785 22.429 78.5457 22.3724 78.6023C22.3158 78.659 22.2487 78.7039 22.1747 78.7345C22.1008 78.7651 22.0216 78.7809 21.9415 78.7808Z" fill="#155DDD"/>
<path d="M14.631 73.9047C12.5484 73.9047 9.75781 71.0163 9.75781 68.0637C9.75781 65.1409 11.8528 62.937 14.631 62.937C17.4556 62.937 19.5054 65.0934 19.5054 68.0637C19.5054 71.0163 16.7141 73.9047 14.631 73.9047ZM14.631 64.1555C12.5134 64.1555 10.9764 65.7991 10.9764 68.0637C10.9764 70.5463 13.4279 72.686 14.631 72.686C15.8347 72.686 18.2868 70.5463 18.2868 68.0637C18.2868 65.7991 16.7493 64.1555 14.631 64.1555Z" fill="#155DDD"/>
<path d="M17.6776 73.2481C17.5975 73.2481 17.5183 73.2324 17.4444 73.2018C17.3704 73.1712 17.3033 73.1263 17.2467 73.0697C17.1901 73.0132 17.1452 72.946 17.1146 72.872C17.084 72.7981 17.0683 72.7189 17.0683 72.6389V71.3334C17.0683 71.2533 17.084 71.1741 17.1146 71.1002C17.1452 71.0262 17.1901 70.9591 17.2467 70.9025C17.3033 70.8459 17.3704 70.801 17.4444 70.7704C17.5183 70.7398 17.5975 70.7241 17.6776 70.7241C18.0144 70.7241 18.2869 70.9965 18.2869 71.3334V72.6389C18.287 72.7189 18.2712 72.7981 18.2406 72.8721C18.21 72.946 18.1651 73.0132 18.1085 73.0698C18.0519 73.1264 17.9847 73.1713 17.9108 73.2018C17.8368 73.2324 17.7576 73.2482 17.6776 73.2481ZM11.5859 73.2481C11.2491 73.2481 10.9766 72.9757 10.9766 72.6389V71.3334C10.9765 71.2533 10.9923 71.1741 11.0229 71.1001C11.0535 71.0262 11.0984 70.959 11.155 70.9024C11.2116 70.8458 11.2788 70.801 11.3527 70.7704C11.4267 70.7398 11.5059 70.7241 11.5859 70.7241C11.666 70.7241 11.7452 70.7398 11.8191 70.7704C11.8931 70.801 11.9602 70.8459 12.0168 70.9025C12.0734 70.9591 12.1183 71.0262 12.1489 71.1002C12.1795 71.1741 12.1952 71.2533 12.1952 71.3334V72.6389C12.1952 72.7189 12.1795 72.7981 12.1489 72.872C12.1183 72.946 12.0734 73.0132 12.0168 73.0697C11.9602 73.1263 11.8931 73.1712 11.8191 73.2018C11.7452 73.2324 11.666 73.2481 11.5859 73.2481Z" fill="#155DDD"/>
<path d="M24.377 43.4344C24.0403 43.4344 23.7676 43.162 23.7676 42.8252V38.7647C23.7676 36.3893 25.0296 35.4527 27.2098 34.6374C28.3475 34.2137 30.0217 33.5724 31.4261 32.9023C31.4982 32.8678 31.5765 32.8478 31.6563 32.8435C31.7362 32.8392 31.8162 32.8507 31.8916 32.8774C31.967 32.904 32.0365 32.9452 32.096 32.9987C32.1555 33.0522 32.2039 33.1169 32.2383 33.189C32.3835 33.4937 32.255 33.8566 31.9509 34.0018C30.5032 34.6932 28.7949 35.3477 27.6365 35.7797C25.5562 36.5569 24.9863 37.1984 24.9863 38.7646V42.825C24.9863 43.162 24.7138 43.4344 24.377 43.4344ZM53.6231 43.4344C53.5431 43.4345 53.4639 43.4187 53.3899 43.3882C53.316 43.3576 53.2488 43.3127 53.1922 43.2561C53.1356 43.1995 53.0908 43.1323 53.0602 43.0584C53.0296 42.9844 53.0139 42.9052 53.0139 42.8252V38.7647C53.0139 37.1986 52.4439 36.557 50.3638 35.7799C49.6985 35.5313 47.6743 34.7767 46.0463 33.9973C45.7429 33.8521 45.6143 33.4878 45.7595 33.1845C45.9046 32.8811 46.2689 32.7536 46.5722 32.8977C48.1514 33.6546 50.1365 34.3949 50.7899 34.6376C52.9711 35.4528 54.2325 36.3895 54.2325 38.7649V42.8253C54.2325 42.9053 54.2168 42.9846 54.1862 43.0585C54.1555 43.1324 54.1107 43.1996 54.0541 43.2562C53.9975 43.3127 53.9303 43.3576 53.8563 43.3882C53.7824 43.4188 53.7032 43.4345 53.6231 43.4344ZM38.9715 33.6852C35.5281 33.6852 29.8321 28.2049 29.8321 21.9606C29.832 21.8805 29.8478 21.8013 29.8784 21.7274C29.909 21.6534 29.9538 21.5863 30.0104 21.5297C30.067 21.4731 30.1342 21.4282 30.2081 21.3976C30.282 21.367 30.3613 21.3513 30.4413 21.3513C30.7781 21.3513 31.0507 21.6239 31.0507 21.9606C31.0507 27.3778 35.9922 32.4666 38.9715 32.4666C41.9513 32.4666 46.8923 27.3778 46.8923 21.9606C46.8923 21.8805 46.908 21.8013 46.9386 21.7274C46.9692 21.6534 47.0141 21.5863 47.0706 21.5297C47.1272 21.4731 47.1944 21.4282 47.2683 21.3976C47.3423 21.367 47.4215 21.3513 47.5015 21.3513C47.8383 21.3513 48.1109 21.6239 48.1109 21.9606C48.111 28.2051 42.4155 33.6852 38.9715 33.6852Z" fill="#155DDD"/>
<path d="M30.4041 21.3345C30.3548 21.3345 30.3048 21.3285 30.2548 21.3154C30.1328 21.2847 30.0233 21.217 29.9414 21.1215C29.8595 21.026 29.8091 20.9075 29.7973 20.7822C29.4777 17.3691 30.2126 14.6533 31.981 12.711C34.5272 9.91449 38.6601 9.32764 41.6786 9.32764C43.6862 9.32764 45.1403 9.58587 45.201 9.59669C45.4663 9.64422 45.6699 9.8633 45.6985 10.1322C45.7272 10.4011 45.5748 10.657 45.3248 10.7606C44.7811 10.9844 44.4216 11.3045 44.2598 11.7127C44.1027 12.1126 44.1455 12.5375 44.211 12.8302C44.8335 12.8551 46.0843 13.0552 47.0375 14.1678C48.1965 15.5222 48.5442 17.7594 48.0669 20.8191C48.1217 20.9015 48.1557 20.9961 48.1657 21.0947C48.1758 21.1932 48.1617 21.2927 48.1246 21.3846C48.0875 21.4764 48.0286 21.5579 47.9529 21.6218C47.8773 21.6858 47.7872 21.7303 47.6905 21.7516C47.5937 21.7728 47.4933 21.7702 47.3978 21.7439C47.3023 21.7176 47.2147 21.6684 47.1425 21.6005C47.0703 21.5327 47.0157 21.4483 46.9835 21.3546C46.9513 21.261 46.9424 21.1609 46.9576 21.063L44.7906 17.8129C43.8219 18.1639 41.4966 18.897 38.9713 18.897C36.4377 18.897 34.0617 18.1592 33.08 17.8092L30.9113 21.0628C30.8557 21.1464 30.7803 21.215 30.6919 21.2624C30.6034 21.3098 30.5045 21.3346 30.4041 21.3345ZM45.0261 16.4599C45.1266 16.4597 45.2256 16.4844 45.3143 16.5317C45.4029 16.579 45.4785 16.6476 45.5343 16.7312L47.0373 18.9865C47.1301 17.1608 46.8182 15.7851 46.1115 14.9605C45.4307 14.1655 44.5358 14.0464 44.0645 14.0464C43.9457 14.0464 43.8683 14.0547 43.8527 14.0558C43.5873 14.0951 43.3267 13.9475 43.2159 13.7048C43.1934 13.6536 42.6577 12.4516 43.1267 11.264C43.2187 11.0331 43.3429 10.8163 43.4956 10.6202C40.9001 10.4095 35.6819 10.4559 32.8817 13.5323C31.6791 14.8521 31.033 16.6206 30.9521 18.8042L32.3343 16.7312C32.4119 16.6135 32.5281 16.5265 32.6628 16.4853C32.7976 16.444 32.9426 16.451 33.0727 16.5051C33.1014 16.517 35.9711 17.6785 38.9712 17.6785C41.9688 17.6785 44.7631 16.5195 44.7904 16.5074C44.8651 16.4762 44.9452 16.4601 45.0261 16.4599Z" fill="#155DDD"/>
<path d="M47.5016 22.573C47.4216 22.5731 47.3423 22.5573 47.2684 22.5267C47.1945 22.4961 47.1273 22.4512 47.0707 22.3946C47.0141 22.338 46.9692 22.2708 46.9386 22.1969C46.9081 22.1229 46.8923 22.0437 46.8924 21.9636V20.7259C46.8924 20.6459 46.9081 20.5667 46.9387 20.4927C46.9693 20.4188 47.0142 20.3516 47.0707 20.2951C47.1273 20.2385 47.1945 20.1936 47.2684 20.163C47.3424 20.1324 47.4216 20.1167 47.5016 20.1167C47.8384 20.1167 48.111 20.3893 48.111 20.7259V21.9636C48.111 22.3005 47.8384 22.573 47.5016 22.573ZM30.4413 22.573C30.3612 22.5731 30.282 22.5573 30.208 22.5267C30.1341 22.4961 30.0669 22.4512 30.0103 22.3946C29.9537 22.338 29.9089 22.2708 29.8783 22.1969C29.8477 22.1229 29.832 22.0437 29.832 21.9636V20.7259C29.832 20.6459 29.8477 20.5667 29.8783 20.4927C29.9089 20.4188 29.9538 20.3516 30.0104 20.2951C30.067 20.2385 30.1341 20.1936 30.2081 20.163C30.282 20.1324 30.3612 20.1167 30.4413 20.1167C30.7781 20.1167 31.0506 20.3893 31.0506 20.7259V21.9636C31.0506 22.3005 30.7781 22.573 30.4413 22.573ZM36.5819 36.1256C36.4204 36.1254 36.2654 36.0612 36.1511 35.947L32.4953 32.2911C32.3852 32.176 32.3245 32.0224 32.3262 31.8631C32.328 31.7037 32.392 31.5515 32.5047 31.4388C32.6174 31.3262 32.7696 31.2621 32.9289 31.2604C33.0882 31.2587 33.2419 31.3194 33.357 31.4296L36.7033 34.7761L38.7662 33.7514C38.8381 33.7147 38.9165 33.6926 38.997 33.6864C39.0774 33.6802 39.1583 33.69 39.235 33.7153C39.3116 33.7407 39.3824 33.7809 39.4434 33.8338C39.5043 33.8867 39.5542 33.9512 39.59 34.0235C39.6258 34.0958 39.647 34.1745 39.6521 34.2551C39.6573 34.3356 39.6465 34.4164 39.6202 34.4927C39.5939 34.569 39.5528 34.6393 39.4991 34.6996C39.4455 34.7599 39.3804 34.8089 39.3077 34.8439L36.8525 36.0625C36.7685 36.1044 36.6758 36.126 36.5819 36.1256Z" fill="#155DDD"/>
<path d="M41.4561 36.1262C41.3624 36.1264 41.2699 36.1048 41.186 36.0631L38.7304 34.8444C38.5876 34.7714 38.4793 34.6451 38.429 34.4928C38.3786 34.3405 38.3904 34.1745 38.4616 34.0308C38.5328 33.8871 38.6578 33.7772 38.8094 33.725C38.9611 33.6728 39.1272 33.6825 39.2718 33.7519L41.3347 34.7767L44.6811 31.4301C44.7376 31.3736 44.8048 31.3287 44.8787 31.2981C44.9526 31.2675 45.0318 31.2517 45.1118 31.2517C45.1918 31.2517 45.271 31.2675 45.3449 31.2981C45.4189 31.3287 45.486 31.3736 45.5426 31.4301C45.5991 31.4867 45.644 31.5539 45.6746 31.6278C45.7052 31.7017 45.721 31.7809 45.721 31.8609C45.721 31.9409 45.7052 32.0201 45.6746 32.094C45.644 32.1679 45.5991 32.2351 45.5426 32.2917L41.8868 35.9476C41.8303 36.0042 41.7631 36.0491 41.6892 36.0798C41.6153 36.1104 41.5361 36.1262 41.4561 36.1262ZM39.0666 37.345C38.9866 37.345 38.9073 37.3293 38.8334 37.2987C38.7594 37.268 38.6923 37.2231 38.6358 37.1664L37.4172 35.9478C37.307 35.8327 37.2463 35.679 37.2481 35.5197C37.2498 35.3604 37.3139 35.2081 37.4266 35.0955C37.5392 34.9828 37.6915 34.9188 37.8508 34.9171C38.0101 34.9153 38.1637 34.9761 38.2788 35.0862L39.4974 36.3049C39.5827 36.39 39.6408 36.4986 39.6644 36.6168C39.6879 36.7351 39.6759 36.8576 39.6297 36.969C39.5836 37.0803 39.5055 37.1755 39.4052 37.2424C39.305 37.3094 39.1871 37.3451 39.0666 37.345Z" fill="#155DDD"/>
<path d="M39.0666 37.3468C38.946 37.3469 38.8282 37.3112 38.7279 37.2443C38.6277 37.1774 38.5495 37.0822 38.5034 36.9708C38.4573 36.8595 38.4452 36.7369 38.4688 36.6187C38.4923 36.5005 38.5504 36.3919 38.6357 36.3067L39.8543 35.0881C39.9109 35.0315 39.978 34.9867 40.052 34.956C40.1259 34.9254 40.2051 34.9097 40.2851 34.9097C40.3651 34.9097 40.4443 34.9254 40.5182 34.956C40.5921 34.9867 40.6593 35.0315 40.7158 35.0881C40.7724 35.1447 40.8173 35.2118 40.8479 35.2857C40.8785 35.3596 40.8943 35.4389 40.8943 35.5189C40.8943 35.5989 40.8785 35.6781 40.8479 35.752C40.8173 35.8259 40.7724 35.8931 40.7158 35.9496L39.4972 37.1683C39.4408 37.225 39.3736 37.2699 39.2997 37.3006C39.2258 37.3312 39.1466 37.3469 39.0666 37.3468Z" fill="#155DDD"/>
<path d="M37.8484 42.2151C37.7626 42.2151 37.6777 42.1971 37.5994 42.1621C37.5211 42.1271 37.451 42.076 37.3937 42.0121C37.3365 41.9482 37.2934 41.8729 37.2673 41.7912C37.2411 41.7095 37.2325 41.6231 37.242 41.5379L37.8514 36.0541C37.8889 35.7207 38.1977 35.484 38.5243 35.5161C38.6039 35.5249 38.681 35.5494 38.7511 35.588C38.8213 35.6266 38.8831 35.6787 38.9331 35.7413C38.9832 35.8038 39.0204 35.8756 39.0426 35.9525C39.0649 36.0295 39.0717 36.11 39.0628 36.1896L38.4535 41.6735C38.4367 41.8223 38.3657 41.9597 38.2541 42.0596C38.1425 42.1595 37.9981 42.2148 37.8484 42.2151Z" fill="#155DDD"/>
<path d="M40.2841 42.2155C40.1344 42.2151 39.99 42.1598 39.8785 42.0599C39.767 41.96 39.6962 41.8226 39.6794 41.6739L39.0702 36.19C39.0613 36.1105 39.0681 36.0299 39.0904 35.953C39.1126 35.876 39.1498 35.8042 39.1998 35.7417C39.2498 35.6791 39.3116 35.627 39.3818 35.5884C39.4519 35.5498 39.529 35.5253 39.6086 35.5165C39.952 35.4819 40.2448 35.7211 40.2816 36.0545L40.8909 41.5383C40.9003 41.6236 40.8916 41.7099 40.8654 41.7916C40.8392 41.8733 40.7961 41.9486 40.7388 42.0125C40.6815 42.0764 40.6114 42.1275 40.5331 42.1625C40.4547 42.1975 40.3699 42.2155 40.2841 42.2155Z" fill="#155DDD"/>
<path d="M53.6251 43.4348H24.3789C24.0422 43.4348 23.7695 43.1624 23.7695 42.8256C23.7695 42.7455 23.7852 42.6663 23.8158 42.5923C23.8465 42.5184 23.8913 42.4512 23.9479 42.3946C24.0045 42.338 24.0717 42.2932 24.1457 42.2626C24.2196 42.232 24.2989 42.2162 24.3789 42.2163H53.6251C53.7051 42.2163 53.7844 42.232 53.8583 42.2626C53.9322 42.2932 53.9994 42.3381 54.056 42.3947C54.1126 42.4512 54.1574 42.5184 54.188 42.5924C54.2186 42.6663 54.2344 42.7455 54.2343 42.8256C54.2344 42.9056 54.2187 42.9848 54.1881 43.0588C54.1575 43.1327 54.1126 43.1999 54.056 43.2565C53.9994 43.3131 53.9323 43.358 53.8583 43.3885C53.7844 43.4191 53.7051 43.4349 53.6251 43.4348Z" fill="#155DDD"/>
<path d="M39 60.5C38.6632 60.5 38.3906 60.2274 38.3906 59.8906V45.267C38.3906 44.9301 38.6632 44.6577 39 44.6577C39.3368 44.6577 39.6092 44.9301 39.6092 45.267V59.8906C39.6092 60.2274 39.3368 60.5 39 60.5Z" fill="#155DDD"/>
<path d="M14.6289 60.4949C14.2921 60.4949 14.0195 60.2223 14.0195 59.8855V52.5736C14.0195 52.2369 14.2921 51.9644 14.6289 51.9644C14.9657 51.9644 15.2383 52.2369 15.2383 52.5736V59.8855C15.2383 59.9655 15.2226 60.0448 15.1919 60.1187C15.1613 60.1926 15.1164 60.2598 15.0598 60.3164C15.0033 60.373 14.9361 60.4179 14.8621 60.4485C14.7882 60.4791 14.7089 60.4949 14.6289 60.4949Z" fill="#155DDD"/>
<path d="M63.3729 60.4949C63.2929 60.4949 63.2136 60.4792 63.1397 60.4486C63.0657 60.4179 62.9985 60.3731 62.942 60.3165C62.8854 60.2599 62.8405 60.1927 62.8099 60.1187C62.7793 60.0448 62.7636 59.9655 62.7637 59.8855V52.5736C62.7636 52.4936 62.7794 52.4143 62.81 52.3404C62.8406 52.2665 62.8854 52.1993 62.942 52.1427C62.9986 52.0861 63.0658 52.0413 63.1397 52.0106C63.2136 51.98 63.2929 51.9643 63.3729 51.9644C63.7097 51.9644 63.9823 52.2369 63.9823 52.5736V59.8855C63.9823 60.2223 63.7096 60.4949 63.3729 60.4949Z" fill="#155DDD"/>
<path d="M36.5635 53.183H14.6289C14.2921 53.183 14.0195 52.9104 14.0195 52.5736C14.0195 52.4936 14.0352 52.4143 14.0658 52.3404C14.0964 52.2664 14.1413 52.1992 14.1979 52.1427C14.2545 52.0861 14.3217 52.0412 14.3957 52.0106C14.4696 51.98 14.5489 51.9643 14.6289 51.9644H36.5635C36.6435 51.9643 36.7228 51.98 36.7967 52.0106C36.8706 52.0413 36.9378 52.0861 36.9944 52.1427C37.051 52.1993 37.0958 52.2665 37.1264 52.3404C37.157 52.4143 37.1728 52.4936 37.1727 52.5736C37.1727 52.9104 36.9002 53.183 36.5635 53.183Z" fill="#155DDD"/>
<path d="M63.372 53.183H41.4375C41.1007 53.183 40.8281 52.9104 40.8281 52.5736C40.8281 52.4936 40.8438 52.4143 40.8744 52.3404C40.905 52.2664 40.9499 52.1992 41.0065 52.1427C41.0631 52.0861 41.1303 52.0412 41.2043 52.0106C41.2782 51.98 41.3575 51.9643 41.4375 51.9644H63.372C63.7088 51.9644 63.9813 52.2369 63.9813 52.5736C63.9813 52.9104 63.7086 53.183 63.372 53.183Z" fill="#155DDD"/>
<path d="M43.8757 6.88938H34.127C33.7901 6.88938 33.5176 6.61683 33.5176 6.27998V2.6242C33.5178 2.52028 33.5444 2.41812 33.595 2.32734C33.6456 2.23656 33.7185 2.16015 33.8067 2.10529C33.8953 2.05124 33.9961 2.0205 34.0998 2.01595C34.2034 2.01139 34.3065 2.03317 34.3995 2.07924L36.4439 3.10151L38.5705 0.97486C38.6271 0.918279 38.6942 0.873394 38.7681 0.842771C38.842 0.812148 38.9213 0.796387 39.0013 0.796387C39.0813 0.796387 39.1605 0.812148 39.2344 0.842771C39.3083 0.873394 39.3755 0.918279 39.432 0.97486L41.5587 3.10151L43.6032 2.07924C43.6961 2.03321 43.7992 2.01145 43.9029 2.01601C44.0065 2.02057 44.1073 2.05128 44.1958 2.10529C44.2841 2.16011 44.357 2.23651 44.4076 2.3273C44.4582 2.41809 44.4848 2.52027 44.485 2.6242V6.28013C44.485 6.36015 44.4693 6.43939 44.4387 6.51333C44.4081 6.58726 44.3632 6.65444 44.3066 6.71102C44.25 6.76761 44.1829 6.81248 44.1089 6.84308C44.035 6.87369 43.9557 6.88942 43.8757 6.88938ZM34.7362 5.67073H43.2664V3.60944L41.7111 4.3878C41.5966 4.44474 41.4672 4.46435 41.341 4.44385C41.2148 4.42335 41.0983 4.36378 41.0077 4.27354L39.0013 2.26709L36.995 4.27354C36.904 4.36305 36.7875 4.42211 36.6615 4.44258C36.5355 4.46305 36.4063 4.44391 36.2916 4.3878L34.7363 3.60944V5.67073H34.7362Z" fill="#155DDD"/>
</g>
<defs>
<clipPath id="clip0_2406_2417">
<rect width="78" height="78.003" fill="white" transform="translate(0 0.780762)"/>
</clipPath>
</defs>
</svg>
