<svg width="61" height="56" viewBox="0 0 61 56" fill="none" xmlns="http://www.w3.org/2000/svg">
<g clip-path="url(#clip0_2406_2240)">
<path d="M56.6366 46.8899H4.29491C2.08773 46.8899 0.353516 45.1133 0.353516 42.8523V4.81834C0.353516 2.55729 2.08773 0.780762 4.29491 0.780762H56.6366C58.8438 0.780762 60.578 2.55729 60.578 4.81834V42.8523C60.578 45.1133 58.8438 46.8899 56.6366 46.8899Z" fill="#AED5FF"/>
<path d="M42.9211 46.8901H19.3516V52.139H42.9211V46.8901Z" fill="#D9E9FF"/>
<path d="M48.2024 55.5297H15.3312C14.3852 55.5297 13.6758 54.7222 13.6758 53.834C13.6758 52.8649 14.4641 52.1382 15.3312 52.1382H48.2024C49.1483 52.1382 49.8578 52.9457 49.8578 53.834C49.8578 54.803 49.0695 55.5297 48.2024 55.5297Z" fill="#AED5FF"/>
<path d="M31.0962 44.1418C32.0976 44.1418 32.9093 43.3103 32.9093 42.2845C32.9093 41.2588 32.0976 40.4272 31.0962 40.4272C30.0949 40.4272 29.2832 41.2588 29.2832 42.2845C29.2832 43.3103 30.0949 44.1418 31.0962 44.1418Z" fill="#D9E9FF"/>
<path d="M60.6576 5.54443H16.9082V37.1183H60.6576V5.54443Z" fill="#1A204F"/>
<path d="M16.9074 5.54443H0.353516V37.1183H16.9074V5.54443Z" fill="#4A83E7"/>
<path d="M25.3428 14.6715H21.5591C21.1649 14.6715 20.8496 14.3485 20.8496 13.9448C20.8496 13.541 21.1649 13.218 21.5591 13.218H25.3428C25.7369 13.218 26.0522 13.541 26.0522 13.9448C26.0522 14.2678 25.7369 14.6715 25.3428 14.6715Z" fill="white"/>
<path d="M32.6737 14.6715H27.7075C27.3134 14.6715 26.998 14.3485 26.998 13.9448C26.998 13.541 27.3134 13.218 27.7075 13.218H32.6737C33.0678 13.218 33.3831 13.541 33.3831 13.9448C33.4619 14.2678 33.1466 14.6715 32.6737 14.6715Z" fill="#4A83E7"/>
<path d="M44.1832 14.6715H35.5122C35.118 14.6715 34.8027 14.3485 34.8027 13.9448C34.8027 13.541 35.118 13.218 35.5122 13.218H44.1832C44.5774 13.218 44.8927 13.541 44.8927 13.9448C44.8927 14.2678 44.5774 14.6715 44.1832 14.6715Z" fill="#4A83E7"/>
<path d="M52.0643 14.6715H47.0981C46.704 14.6715 46.3887 14.3485 46.3887 13.9448C46.3887 13.541 46.704 13.218 47.0981 13.218H52.0643C52.4584 13.218 52.7737 13.541 52.7737 13.9448C52.8526 14.2678 52.5372 14.6715 52.0643 14.6715Z" fill="#4A83E7"/>
<path d="M38.0337 18.2222H45.9953C46.3894 18.2222 46.7047 18.5452 46.7047 18.9489C46.7047 19.3527 46.3894 19.6757 45.9953 19.6757H38.0337C37.6395 19.6757 37.3242 19.3527 37.3242 18.9489C37.3242 18.5452 37.6395 18.2222 38.0337 18.2222Z" fill="#4A83E7"/>
<path d="M29.3621 18.2222H35.1954C35.5895 18.2222 35.9049 18.5452 35.9049 18.9489C35.9049 19.3527 35.5895 19.6757 35.1954 19.6757H29.3621C28.968 19.6757 28.6527 19.3527 28.6527 18.9489C28.5739 18.5452 28.8892 18.2222 29.3621 18.2222Z" fill="white"/>
<path d="M21.5591 18.2222H26.5252C26.9194 18.2222 27.2347 18.5452 27.2347 18.9489C27.2347 19.3527 26.9194 19.6757 26.5252 19.6757H21.5591C21.1649 19.6757 20.8496 19.3527 20.8496 18.9489C20.8496 18.5452 21.1649 18.2222 21.5591 18.2222Z" fill="#4A83E7"/>
<path d="M32.7526 24.7636H21.5591C21.1649 24.7636 20.8496 24.4406 20.8496 24.0368C20.8496 23.6331 21.1649 23.3101 21.5591 23.3101H32.7526C33.1467 23.3101 33.4621 23.6331 33.4621 24.0368C33.5409 24.4406 33.1467 24.7636 32.7526 24.7636Z" fill="white"/>
<path d="M37.877 24.7636H35.5122C35.118 24.7636 34.8027 24.4406 34.8027 24.0368C34.8027 23.6331 35.118 23.3101 35.5122 23.3101H37.877C38.2712 23.3101 38.5865 23.6331 38.5865 24.0368C38.5865 24.4406 38.2712 24.7636 37.877 24.7636Z" fill="#4A83E7"/>
<path d="M44.3408 24.7636H40.5571C40.163 24.7636 39.8477 24.4406 39.8477 24.0368C39.8477 23.6331 40.163 23.3101 40.5571 23.3101H44.3408C44.735 23.3101 45.0503 23.6331 45.0503 24.0368C45.0503 24.4406 44.735 24.7636 44.3408 24.7636Z" fill="white"/>
<path d="M48.3602 33.4038H52.144C52.5381 33.4038 52.8534 33.7268 52.8534 34.1306C52.8534 34.5343 52.5381 34.8573 52.144 34.8573H48.3602C47.9661 34.8573 47.6508 34.5343 47.6508 34.1306C47.5719 33.8076 47.9661 33.4038 48.3602 33.4038Z" fill="white"/>
<path d="M44.1821 33.4038H45.9163C46.3105 33.4038 46.6258 33.7268 46.6258 34.1306C46.6258 34.5343 46.3105 34.8573 45.9163 34.8573H44.1821C43.788 34.8573 43.4727 34.5343 43.4727 34.1306C43.4727 33.8076 43.788 33.4038 44.1821 33.4038Z" fill="#4A83E7"/>
<path d="M35.827 33.4038H41.7391C42.1332 33.4038 42.4485 33.7268 42.4485 34.1306C42.4485 34.5343 42.1332 34.8573 41.7391 34.8573H35.827C35.4329 34.8573 35.1175 34.5343 35.1175 34.1306C35.0387 33.8076 35.354 33.4038 35.827 33.4038Z" fill="#4A83E7"/>
<path d="M21.5591 33.4038H33.0679C33.4621 33.4038 33.7774 33.7268 33.7774 34.1306C33.7774 34.5343 33.4621 34.8573 33.0679 34.8573H21.5591C21.1649 34.8573 20.8496 34.5343 20.8496 34.1306C20.8496 33.8076 21.1649 33.4038 21.5591 33.4038Z" fill="white"/>
<path d="M23.2913 29.8495H21.5571C21.163 29.8495 20.8477 29.5265 20.8477 29.1228C20.8477 28.719 21.163 28.396 21.5571 28.396H23.2913C23.6855 28.396 24.0008 28.719 24.0008 29.1228C24.0796 29.5265 23.6855 29.8495 23.2913 29.8495Z" fill="white"/>
<path d="M37.8751 29.8493H35.5102C35.1161 29.8493 34.8008 29.5263 34.8008 29.1225C34.8008 28.7188 35.1161 28.3958 35.5102 28.3958H37.8751C38.2692 28.3958 38.5845 28.7188 38.5845 29.1225C38.5845 29.5263 38.2692 29.8493 37.8751 29.8493Z" fill="#4A83E7"/>
<path d="M44.3389 29.8493H40.5552C40.161 29.8493 39.8457 29.5263 39.8457 29.1225C39.8457 28.7188 40.161 28.3958 40.5552 28.3958H44.3389C44.733 28.3958 45.0483 28.7188 45.0483 29.1225C45.0483 29.5263 44.733 29.8493 44.3389 29.8493Z" fill="white"/>
<path d="M52.0643 29.8493H47.0981C46.704 29.8493 46.3887 29.5263 46.3887 29.1225C46.3887 28.7188 46.704 28.3958 47.0981 28.3958H52.0643C52.4584 28.3958 52.7737 28.7188 52.7737 29.1225C52.8526 29.5263 52.5372 29.8493 52.0643 29.8493Z" fill="#4A83E7"/>
<path d="M32.752 29.8493H30.3872C29.993 29.8493 29.6777 29.5263 29.6777 29.1225C29.6777 28.7188 29.993 28.3958 30.3872 28.3958H32.752C33.1462 28.3958 33.4615 28.7188 33.4615 29.1225C33.5403 29.5263 33.225 29.8493 32.752 29.8493Z" fill="#4A83E7"/>
<path d="M28.0997 29.8493H25.7348C25.3407 29.8493 25.0254 29.5263 25.0254 29.1225C25.0254 28.7188 25.3407 28.3958 25.7348 28.3958H28.0997C28.4938 28.3958 28.8091 28.7188 28.8091 29.1225C28.888 29.5263 28.5726 29.8493 28.0997 29.8493Z" fill="#4A83E7"/>
<path d="M5.63656 13.8604C5.63656 14.3449 5.24242 14.7487 4.76945 14.7487C4.29648 14.7487 3.90234 14.3449 3.90234 13.8604C3.90234 13.3759 4.29648 12.9722 4.76945 12.9722C5.24242 12.9722 5.63656 13.3759 5.63656 13.8604Z" fill="white"/>
<path d="M11.3128 14.6679H7.60789C7.21375 14.6679 6.89844 14.3449 6.89844 13.9411C6.89844 13.5374 7.21375 13.2144 7.60789 13.2144H11.3916C11.7858 13.2144 12.1011 13.5374 12.1011 13.9411C12.1011 14.2641 11.7069 14.6679 11.3128 14.6679Z" fill="white"/>
<path d="M5.63656 18.9464C5.63656 19.4309 5.24242 19.8346 4.76945 19.8346C4.29648 19.8346 3.90234 19.4309 3.90234 18.9464C3.90234 18.4619 4.29648 18.0581 4.76945 18.0581C5.24242 18.0581 5.63656 18.4619 5.63656 18.9464Z" fill="white"/>
<path d="M11.3128 19.6737H7.60789C7.21375 19.6737 6.89844 19.3507 6.89844 18.947C6.89844 18.5432 7.21375 18.2202 7.60789 18.2202H11.3916C11.7858 18.2202 12.1011 18.5432 12.1011 18.947C12.1011 19.3507 11.7069 19.6737 11.3128 19.6737Z" fill="white"/>
<path d="M5.63656 24.0362C5.63656 24.5207 5.24242 24.9245 4.76945 24.9245C4.29648 24.9245 3.90234 24.5207 3.90234 24.0362C3.90234 23.5517 4.29648 23.1479 4.76945 23.1479C5.24242 23.1479 5.63656 23.5517 5.63656 24.0362Z" fill="white"/>
<path d="M11.3128 24.7633H7.60789C7.21375 24.7633 6.89844 24.4403 6.89844 24.0366C6.89844 23.6328 7.21375 23.3098 7.60789 23.3098H11.3916C11.7858 23.3098 12.1011 23.6328 12.1011 24.0366C12.1011 24.4403 11.7069 24.7633 11.3128 24.7633Z" fill="white"/>
<path d="M5.63656 29.128C5.63656 29.6125 5.24242 30.0163 4.76945 30.0163C4.29648 30.0163 3.90234 29.6125 3.90234 29.128C3.90234 28.6435 4.29648 28.2397 4.76945 28.2397C5.24242 28.2397 5.63656 28.6435 5.63656 29.128Z" fill="white"/>
<path d="M11.3128 29.8554H7.60789C7.21375 29.8554 6.89844 29.5324 6.89844 29.1286C6.89844 28.7249 7.21375 28.4019 7.60789 28.4019H11.3916C11.7858 28.4019 12.1011 28.7249 12.1011 29.1286C12.1011 29.5324 11.7069 29.8554 11.3128 29.8554Z" fill="white"/>
<path d="M5.63531 34.21C5.63531 34.6946 5.24117 35.0983 4.7682 35.0983C4.29523 35.0983 3.82227 34.6946 3.82227 34.21C3.82227 33.7255 4.2164 33.3218 4.68937 33.3218C5.16234 33.3218 5.63531 33.6448 5.63531 34.21Z" fill="white"/>
<path d="M11.3108 34.9374H7.60593C7.2118 34.9374 6.89648 34.6144 6.89648 34.2107C6.89648 33.8069 7.2118 33.4839 7.60593 33.4839H11.3897C11.7838 33.4839 12.0991 33.8069 12.0991 34.2107C12.0991 34.6144 11.705 34.9374 11.3108 34.9374Z" fill="white"/>
<path d="M5.63656 9.41903C5.63656 9.90354 5.24242 10.3073 4.76945 10.3073C4.29648 10.3073 3.90234 9.90354 3.90234 9.41903C3.90234 8.93452 4.29648 8.53076 4.76945 8.53076C5.24242 8.53076 5.63656 8.93452 5.63656 9.41903Z" fill="white"/>
<path d="M11.3128 10.2265H7.60789C7.21375 10.2265 6.89844 9.90347 6.89844 9.49971C6.89844 9.09596 7.21375 8.77295 7.60789 8.77295H11.3916C11.7858 8.77295 12.1011 9.09596 12.1011 9.49971C12.1011 9.90347 11.7069 10.2265 11.3128 10.2265Z" fill="white"/>
<path d="M25.1846 10.3886H21.4009C21.0067 10.3886 20.6914 10.0656 20.6914 9.66182C20.6914 9.25806 21.0067 8.93506 21.4009 8.93506H25.1846C25.5787 8.93506 25.894 9.25806 25.894 9.66182C25.894 9.98483 25.5787 10.3886 25.1846 10.3886Z" fill="white"/>
<path d="M44.182 10.3886H27.5493C27.1552 10.3886 26.8398 10.0656 26.8398 9.66182C26.8398 9.25806 27.1552 8.93506 27.5493 8.93506H44.182C44.5761 8.93506 44.8914 9.25806 44.8914 9.66182C44.8914 9.98483 44.5761 10.3886 44.182 10.3886Z" fill="white"/>
<path d="M51.908 10.3886H46.9419C46.5477 10.3886 46.2324 10.0656 46.2324 9.66182C46.2324 9.25806 46.5477 8.93506 46.9419 8.93506H51.908C52.3022 8.93506 52.6175 9.25806 52.6175 9.66182C52.6963 9.98483 52.381 10.3886 51.908 10.3886Z" fill="#4A83E7"/>
</g>
<defs>
<clipPath id="clip0_2406_2240">
<rect width="60.2245" height="54.7495" fill="white" transform="translate(0.353516 0.780762)"/>
</clipPath>
</defs>
</svg>
